<?xml version="1.0" standalone="no"?>
<!DOCTYPE svg PUBLIC "-//W3C//DTD SVG 20010904//EN"
 "http://www.w3.org/TR/2001/REC-SVG-20010904/DTD/svg10.dtd">
<svg version="1.0" xmlns="http://www.w3.org/2000/svg"
 width="300.000000pt" height="133.000000pt" viewBox="0 0 300.000000 133.000000"
 preserveAspectRatio="xMidYMid meet">
<metadata>
Created by potrace 1.10, written by Peter Selinger 2001-2011
</metadata>
<g transform="translate(0.000000,133.000000) scale(0.100000,-0.100000)"
fill="#000000" stroke="none">
<path d="M1965 1056 c-100 -44 -119 -164 -38 -233 33 -29 45 -33 96 -33 51 0
61 4 93 33 61 56 64 145 7 199 -49 47 -103 58 -158 34z m-8 -54 c-25 -26 -26
-28 -10 -60 15 -31 15 -34 -2 -46 -12 -8 -16 -20 -12 -35 3 -11 3 -21 1 -21
-10 0 -25 44 -29 86 -4 44 -2 49 31 81 42 40 60 36 21 -5z m83 24 c0 -7 9 -16
19 -19 11 -2 21 -15 23 -28 2 -14 6 -19 10 -13 4 6 1 22 -7 37 -17 33 -11 34
20 3 49 -49 40 -139 -17 -175 -19 -12 -19 -11 2 19 24 34 25 28 -16 103 -8 15
-19 27 -25 27 -17 0 -9 -45 11 -58 27 -16 25 -51 -5 -84 -24 -28 -45 -36 -45
-18 0 6 -6 10 -13 10 -22 0 -52 39 -40 51 7 7 14 5 23 -6 18 -22 30 -18 30 10
0 14 -8 29 -19 35 -11 5 -22 19 -26 30 -8 24 11 60 30 60 8 0 15 7 15 15 0 8
7 15 15 15 8 0 15 -6 15 -14z"/>
<path d="M1994 976 c-4 -10 -2 -22 4 -28 8 -8 13 -7 18 6 4 10 2 22 -4 28 -8
8 -13 7 -18 -6z"/>
<path d="M2040 886 c0 -9 5 -16 10 -16 6 0 10 4 10 9 0 6 -4 13 -10 16 -5 3
-10 -1 -10 -9z"/>
<path d="M785 1043 c-51 -13 -131 -60 -172 -102 -179 -179 -138 -485 80 -605
159 -86 333 -66 462 55 55 51 90 117 110 206 16 70 16 76 -4 152 -32 128 -103
218 -210 269 -47 22 -72 27 -151 29 -52 1 -104 -1 -115 -4z m188 -52 c155 -43
249 -164 250 -323 1 -66 -4 -85 -31 -140 -38 -76 -83 -124 -154 -163 -48 -26
-62 -29 -148 -29 -85 -1 -101 2 -153 28 -128 64 -212 220 -188 351 27 143 118
242 261 281 62 17 86 17 163 -5z"/>
<path d="M824 960 c-85 -18 -160 -75 -202 -155 -23 -43 -27 -62 -27 -135 0
-73 4 -92 27 -137 60 -114 192 -177 319 -152 152 30 250 163 237 320 -14 170
-184 295 -354 259z m184 -53 c49 -25 92 -60 92 -72 0 -3 10 -19 21 -35 30 -39
41 -208 15 -229 -13 -11 -17 -11 -22 3 -3 9 -11 16 -17 16 -6 0 -18 6 -26 14
-9 8 -36 25 -61 39 -53 30 -61 53 -43 122 15 59 11 78 -20 92 -37 17 -72 -8
-88 -62 -7 -25 -24 -57 -36 -72 -24 -27 -27 -42 -17 -80 7 -26 67 -57 93 -48
13 4 39 -7 75 -30 30 -19 59 -35 64 -35 5 0 15 -6 22 -14 6 -8 19 -12 28 -9 9
3 -2 -13 -24 -35 -26 -25 -59 -45 -85 -52 -55 -15 -167 -14 -185 1 -8 6 -14 9
-14 5 0 -4 -13 0 -29 8 -45 24 -107 101 -121 151 -17 61 -8 176 19 218 77 125
233 170 359 104z m-55 -79 c11 -16 8 -28 -24 -90 -5 -9 -6 -31 -3 -48 5 -25
21 -39 90 -81 90 -54 103 -66 81 -75 -13 -5 -87 33 -148 77 -19 13 -36 17 -57
13 -23 -5 -34 -1 -51 17 -26 29 -26 31 4 67 14 17 32 50 40 74 9 23 17 49 20
56 6 18 35 12 48 -10z"/>
<path d="M1716 861 c-16 -18 -16 -21 9 -56 14 -21 25 -41 25 -45 0 -4 -12 -20
-26 -36 -14 -16 -32 -41 -39 -55 -8 -15 -28 -31 -44 -37 -46 -16 -56 -44 -33
-95 28 -63 51 -80 90 -66 29 10 35 8 75 -26 41 -34 44 -40 40 -75 -5 -33 -2
-38 23 -48 16 -6 44 -14 62 -17 30 -6 33 -4 47 29 l15 36 85 0 c66 0 85 -3 85
-14 0 -8 8 -23 18 -35 l17 -22 55 19 c59 21 60 22 44 100 -5 28 -3 36 16 49
29 21 60 89 60 136 0 49 26 50 46 2 18 -43 37 -38 22 6 -6 17 -27 41 -49 55
-21 13 -57 44 -79 68 -22 24 -60 54 -84 67 -44 23 -45 23 -65 5 -20 -18 -20
-19 21 -40 44 -22 61 -46 34 -46 -9 0 -30 9 -48 20 -43 26 -181 29 -217 4 -15
-11 -26 -13 -33 -6 -13 13 -2 31 24 41 19 7 19 8 3 24 -9 9 -25 17 -36 17 -10
0 -38 14 -61 30 -47 35 -78 38 -102 11z m100 -36 c15 -14 35 -25 45 -25 22 0
23 -4 9 -30 -7 -14 -6 -23 5 -33 8 -8 11 -18 7 -22 -4 -4 7 -4 23 0 17 4 64
10 105 14 62 6 82 4 119 -12 37 -16 47 -17 67 -6 19 10 22 17 17 38 -6 24 -3
22 35 -16 24 -24 43 -46 43 -50 0 -5 9 -11 19 -15 16 -6 18 -12 11 -30 -4 -13
-6 -29 -4 -36 6 -17 -23 -79 -55 -117 -21 -25 -24 -36 -19 -82 l6 -52 -37 -11
c-34 -9 -38 -8 -65 25 -28 34 -30 35 -103 35 -77 0 -102 -11 -117 -52 -8 -22
-59 -24 -77 -3 -7 8 -10 28 -8 45 3 16 3 28 1 27 -2 -2 -27 18 -56 45 -28 26
-58 46 -65 43 -55 -20 -61 -18 -84 30 -23 47 -23 48 -3 59 11 6 34 25 52 43
18 17 33 25 33 18 0 -17 57 -65 78 -65 21 0 62 48 62 73 0 22 -47 67 -69 67
-8 0 -26 -10 -39 -22 l-24 -23 22 37 c19 33 20 41 9 73 -7 19 -17 35 -22 35
-4 0 -5 5 -2 10 11 18 54 10 81 -15z m8 -141 c19 -19 20 -36 4 -52 -26 -26
-78 -7 -78 28 0 38 46 53 74 24z"/>
</g>
</svg>
