<?xml version="1.0" encoding="UTF-8"?>
<svg xmlns="http://www.w3.org/2000/svg" xmlns:xlink="http://www.w3.org/1999/xlink" width="1400px" height="1400px" viewBox="0 0 1400 1400" version="1.1">
<g id="surface1">
<path style=" stroke:none;fill-rule:nonzero;fill:rgb(0%,0%,0%);fill-opacity:1;" d="M 663.507812 254.414062 C 651.480469 256.074219 637.589844 258.769531 632.40625 260.425781 C 627.222656 262.085938 621 263.328125 618.304688 263.328125 C 615.816406 263.328125 612.085938 264.160156 610.011719 265.195312 C 608.144531 266.230469 598.609375 269.136719 588.863281 271.832031 C 579.117188 274.320312 564.1875 279.296875 555.6875 282.613281 C 539.515625 288.832031 536.402344 290.078125 514.011719 300.445312 C 506.546875 303.96875 499.289062 306.871094 498.046875 306.871094 C 496.59375 306.871094 495.558594 307.703125 495.558594 308.738281 C 495.558594 309.773438 493.484375 311.433594 491.203125 312.054688 C 485.398438 313.921875 444.964844 338.179688 444.136719 340.460938 C 443.71875 341.292969 442.0625 342.121094 440.609375 342.121094 C 439.160156 342.121094 434.183594 345.230469 429.621094 348.757812 C 425.058594 352.488281 418.425781 357.878906 414.691406 360.574219 C 406.8125 366.585938 366.796875 407.226562 364.308594 411.789062 C 362.027344 415.9375 365.757812 425.058594 369.699219 425.058594 C 373.429688 425.058594 383.175781 418.007812 397.898438 404.53125 C 400.800781 401.835938 408.886719 395.410156 415.730469 390.226562 C 422.570312 385.042969 428.585938 380.066406 429.207031 379.441406 C 429.828125 378.820312 435.839844 374.675781 442.683594 370.113281 C 449.527344 365.550781 455.539062 361.402344 456.160156 360.78125 C 461.136719 355.804688 508.414062 327.605469 511.730469 327.605469 C 512.558594 327.605469 516.5 325.949219 520.4375 323.875 C 524.378906 321.800781 535.574219 317.03125 545.320312 313.09375 C 555.066406 309.359375 565.847656 305.007812 569.578125 303.554688 C 573.105469 301.894531 577.875 300.652344 580.152344 300.652344 C 582.640625 300.652344 584.921875 299.824219 585.546875 298.785156 C 586.167969 297.75 590.3125 296.296875 594.460938 295.675781 C 598.816406 294.847656 606.074219 292.980469 610.632812 291.320312 C 623.902344 286.96875 638.417969 283.441406 672.835938 276.390625 C 707.050781 269.550781 769.460938 268.097656 803.464844 273.695312 C 810.308594 274.734375 821.917969 276.597656 829.382812 277.636719 C 848.460938 280.539062 860.484375 283.027344 868.78125 285.722656 C 872.71875 286.96875 881.636719 289.664062 888.476562 291.320312 C 895.320312 293.1875 903.613281 296.089844 906.722656 297.75 C 910.042969 299.40625 913.773438 300.652344 915.019531 300.652344 C 916.46875 300.859375 921.238281 302.519531 925.800781 304.796875 C 930.363281 307.078125 935.753906 308.738281 937.824219 308.945312 C 939.691406 308.945312 941.351562 309.773438 941.351562 311.019531 C 941.351562 312.054688 943.839844 313.714844 946.949219 314.335938 C 950.058594 315.164062 954 317.03125 955.449219 318.691406 C 956.902344 320.140625 960.011719 321.386719 962.085938 321.386719 C 964.160156 321.386719 966.441406 322.214844 967.0625 323.253906 C 967.683594 324.289062 972.039062 327.191406 976.808594 329.472656 C 981.574219 331.960938 986.757812 335.277344 988.417969 336.9375 C 992.152344 340.875 996.089844 340.875 999.199219 337.144531 C 1005.628906 329.472656 988.210938 313.921875 955.863281 298.578125 C 950.679688 296.089844 944.046875 292.773438 940.9375 291.113281 C 938.03125 289.453125 934.09375 288.210938 932.433594 288.210938 C 930.777344 288.210938 928.289062 286.757812 926.835938 285.101562 C 925.386719 283.441406 922.273438 281.992188 919.785156 281.992188 C 917.296875 281.992188 913.359375 280.539062 911.078125 278.878906 C 909.003906 277.222656 904.441406 275.769531 900.917969 275.769531 C 897.601562 275.769531 892.832031 274.320312 890.757812 272.660156 C 888.476562 271 883.707031 269.550781 880.183594 269.550781 C 876.660156 269.550781 871.890625 268.097656 869.609375 266.441406 C 867.535156 264.78125 861.9375 263.328125 857.167969 263.328125 C 852.605469 263.328125 847.007812 261.878906 844.726562 260.21875 C 842.238281 258.351562 835.605469 257.109375 826.273438 257.109375 C 817.773438 257.109375 809.6875 255.65625 806.574219 254 C 799.320312 249.851562 694.609375 250.265625 663.507812 254.414062 Z M 663.507812 254.414062 "/>
<path style=" stroke:none;fill-rule:nonzero;fill:rgb(0%,0%,0%);fill-opacity:1;" d="M 856.339844 302.519531 C 854.679688 303.554688 849.910156 304.796875 845.972656 305.628906 C 825.445312 309.359375 822.542969 343.988281 841.824219 355.390625 C 847.628906 358.707031 861.316406 359.539062 870.851562 356.84375 C 878.523438 354.769531 887.234375 340.667969 887.441406 330.507812 C 887.441406 323.460938 885.988281 320.558594 879.5625 313.507812 C 875 308.738281 869.609375 304.796875 867.535156 304.796875 C 865.253906 304.796875 862.558594 303.96875 861.523438 302.933594 C 860.277344 301.6875 857.996094 301.6875 856.339844 302.519531 Z M 852.191406 319.726562 C 851.984375 323.875 842.03125 334.242188 839.75 332.789062 C 836.433594 330.71875 837.261719 327.191406 842.238281 322.007812 C 847.007812 316.824219 852.191406 315.789062 852.191406 319.726562 Z M 852.191406 319.726562 "/>
<path style=" stroke:none;fill-rule:nonzero;fill:rgb(0%,0%,0%);fill-opacity:1;" d="M 508.828125 352.695312 C 500.53125 358.707031 495.558594 367.625 495.558594 376.125 C 495.558594 386.285156 505.507812 398.726562 516.914062 403.082031 C 525.621094 406.398438 526.867188 406.398438 534.125 403.289062 C 544.90625 398.933594 549.257812 394.578125 553.820312 384.003906 C 557.554688 375.503906 557.554688 375.089844 553.820312 366.378906 C 548.015625 353.523438 542.417969 349.585938 527.695312 348.757812 C 517.328125 348.132812 514.21875 348.964844 508.828125 352.695312 Z M 520.4375 366.171875 C 520.4375 367.832031 519.402344 369.074219 518.363281 369.074219 C 517.121094 369.074219 515.253906 371.5625 514.21875 374.46875 C 512.972656 377.371094 511.316406 379.027344 510.070312 378.40625 C 506.339844 376.125 507.789062 367.417969 512.558594 364.097656 C 517.328125 360.574219 520.4375 361.402344 520.4375 366.171875 Z M 520.4375 366.171875 "/>
<path style=" stroke:none;fill-rule:nonzero;fill:rgb(0%,0%,0%);fill-opacity:1;" d="M 817.980469 371.355469 C 813.417969 372.1875 798.902344 373.636719 785.839844 374.257812 C 772.777344 374.882812 753.082031 376.746094 742.296875 378.40625 C 721.5625 381.515625 718.246094 381.929688 686.316406 386.492188 C 675.53125 388.152344 664.75 390.019531 662.46875 390.640625 C 660.191406 391.46875 651.273438 392.714844 642.773438 393.957031 C 634.269531 394.992188 620.792969 397.273438 612.707031 398.933594 C 604.828125 400.59375 591.144531 403.496094 582.640625 405.152344 C 557.761719 410.335938 544.492188 413.65625 542.210938 414.898438 C 541.171875 415.730469 535.78125 416.972656 530.390625 417.59375 C 525 418.425781 520.023438 419.875 519.402344 420.703125 C 518.988281 421.742188 514.011719 423.191406 508.621094 424.023438 C 503.019531 424.851562 497.628906 426.304688 496.59375 427.132812 C 495.347656 428.167969 490.582031 429.828125 486.226562 431.074219 C 474.40625 433.976562 447.660156 443.925781 442.269531 447.453125 C 437.292969 450.5625 436.257812 455.125 439.367188 460.101562 C 441.855469 463.832031 459.0625 463.417969 465.078125 459.269531 C 467.566406 457.613281 471.917969 456.160156 475.03125 456.160156 C 478.140625 456.160156 481.664062 454.710938 483.117188 453.050781 C 484.566406 451.390625 489.128906 449.941406 493.484375 449.941406 C 498.460938 449.941406 501.777344 448.902344 502.605469 446.832031 C 503.230469 444.964844 506.546875 443.71875 510.484375 443.71875 C 514.21875 443.511719 519.609375 442.269531 522.511719 440.609375 C 525.414062 438.953125 531.011719 437.5 534.953125 437.5 C 538.890625 437.5 544.074219 436.046875 546.148438 434.390625 C 548.429688 432.730469 554.027344 431.28125 558.796875 431.28125 C 563.566406 431.28125 569.164062 429.828125 571.445312 428.167969 C 573.519531 426.511719 579.53125 425.058594 584.714844 425.058594 C 589.898438 425.058594 596.328125 423.609375 599.230469 421.949219 C 602.132812 420.289062 609.183594 418.839844 614.78125 418.839844 C 620.585938 418.839844 627.429688 417.386719 630.332031 415.730469 C 633.234375 414.070312 640.285156 412.824219 646.089844 412.617188 C 651.894531 412.617188 660.8125 411.167969 665.582031 409.507812 C 670.347656 407.847656 679.679688 406.398438 686.316406 406.398438 C 692.949219 406.398438 702.28125 404.945312 707.050781 403.289062 C 711.820312 401.628906 722.601562 400.175781 730.894531 400.175781 C 738.980469 400.175781 750.386719 398.726562 755.984375 397.066406 C 762.617188 394.992188 775.058594 393.957031 791.230469 393.957031 C 809.480469 393.957031 818.1875 393.128906 822.335938 390.847656 C 831.042969 386.285156 903.40625 386.285156 909.417969 390.847656 C 911.492188 392.507812 917.089844 393.957031 921.859375 393.957031 C 926.421875 393.957031 932.019531 395.410156 934.300781 397.066406 C 943.007812 403.703125 952.960938 398.105469 951.304688 387.324219 C 950.472656 381.722656 945.082031 379.027344 922.480469 372.394531 C 913.359375 369.699219 902.164062 369.074219 868.574219 369.28125 C 845.347656 369.492188 822.542969 370.320312 817.980469 371.355469 Z M 817.980469 371.355469 "/>
<path style=" stroke:none;fill-rule:nonzero;fill:rgb(0%,0%,0%);fill-opacity:1;" d="M 1096.859375 404.324219 C 1093.957031 405.152344 1087.324219 405.984375 1082.136719 406.191406 C 1076.332031 406.398438 1071.5625 407.640625 1069.90625 409.507812 C 1068.453125 411.375 1063.683594 412.617188 1058.707031 412.617188 C 1054.148438 412.617188 1048.339844 414.070312 1046.269531 415.730469 C 1043.988281 417.386719 1039.632812 418.839844 1036.523438 418.839844 C 1033.621094 418.839844 1028.644531 420.703125 1025.949219 422.984375 L 1020.765625 426.925781 L 1016.410156 421.949219 C 1011.433594 416.351562 1005.214844 415.3125 1001.894531 419.253906 C 1000.859375 420.703125 999.199219 426.304688 998.578125 431.695312 C 997.75 437.085938 996.296875 442.0625 995.054688 442.683594 C 994.015625 443.511719 993.1875 448.28125 993.1875 453.671875 C 992.980469 459.0625 991.734375 465.699219 990.078125 468.601562 C 988.417969 471.503906 986.96875 477.519531 986.96875 482.078125 C 986.96875 486.640625 985.515625 492.652344 983.855469 495.558594 C 982.199219 498.460938 980.746094 504.058594 980.746094 507.996094 C 980.746094 511.9375 979.296875 517.535156 977.636719 520.4375 C 975.976562 523.339844 974.527344 528.941406 974.527344 532.878906 C 974.527344 536.820312 973.074219 542.417969 971.414062 545.320312 C 969.757812 548.222656 968.511719 554.441406 968.304688 559.210938 C 968.304688 567.089844 968.925781 568.128906 973.902344 569.371094 C 976.808594 570.203125 980.746094 569.992188 982.40625 568.75 C 985.515625 566.882812 991.734375 550.296875 994.222656 537.441406 C 994.847656 533.5 996.296875 528.730469 997.335938 526.867188 C 999.613281 522.304688 1005.628906 487.46875 1005.628906 478.140625 C 1005.628906 473.992188 1007.078125 467.152344 1008.738281 463.003906 C 1010.398438 459.0625 1011.847656 451.808594 1011.847656 447.039062 C 1012.054688 433.558594 1015.164062 431.28125 1033.414062 430.65625 L 1049.171875 430.035156 L 1049.171875 474.824219 C 1049.378906 509.449219 1050 520.644531 1052.28125 524.585938 C 1053.941406 527.488281 1055.183594 532.257812 1055.390625 535.367188 C 1055.390625 539.929688 1053.730469 541.585938 1045.644531 545.320312 C 1040.046875 547.601562 1032.996094 551.125 1029.886719 552.578125 C 1026.570312 554.234375 1022.628906 555.6875 1021.179688 555.6875 C 1015.582031 555.6875 1003.96875 562.53125 1001.480469 567.296875 C 999.40625 570.824219 999.40625 573.519531 1001.066406 577.875 C 1002.308594 580.984375 1004.382812 589.691406 1005.421875 597.15625 C 1006.457031 604.621094 1008.53125 614.78125 1009.773438 619.964844 C 1012.261719 630.539062 1019.3125 664.335938 1023.046875 684.242188 C 1024.496094 691.707031 1026.15625 699.171875 1026.777344 700.828125 C 1028.019531 703.730469 1029.472656 710.574219 1034.65625 739.601562 C 1035.902344 746.238281 1037.765625 753.289062 1038.804688 755.152344 C 1040.046875 757.226562 1040.875 761.375 1040.875 764.484375 C 1040.875 767.800781 1042.742188 777.132812 1045.023438 785.632812 C 1047.304688 794.136719 1049.171875 803.257812 1049.171875 805.746094 C 1049.171875 808.441406 1050.207031 811.136719 1051.242188 811.757812 C 1052.488281 812.382812 1053.316406 816.113281 1053.316406 819.636719 C 1053.316406 823.371094 1054.355469 829.589844 1055.390625 833.738281 C 1057.671875 842.03125 1062.441406 865.667969 1066.378906 889.515625 C 1070.941406 915.847656 1076.539062 922.691406 1087.945312 915.433594 C 1094.992188 910.664062 1094.578125 906.308594 1081.515625 842.863281 C 1079.859375 834.773438 1076.953125 821.296875 1075.089844 812.796875 C 1073.222656 804.296875 1070.527344 791.230469 1069.074219 783.769531 C 1067.625 776.304688 1065.757812 768.839844 1064.929688 767.179688 C 1064.308594 765.519531 1062.855469 758.472656 1061.613281 751.628906 C 1060.574219 744.785156 1058.292969 733.175781 1056.425781 725.710938 C 1054.5625 718.246094 1051.867188 706.21875 1050.414062 698.757812 C 1046.683594 680.925781 1042.949219 666.410156 1039.632812 656.664062 C 1037.972656 652.519531 1036.730469 646.296875 1036.730469 643.1875 C 1036.523438 640.078125 1035.277344 635.308594 1033.621094 632.40625 C 1031.960938 629.503906 1030.507812 623.902344 1030.507812 619.964844 C 1030.507812 616.023438 1029.058594 610.425781 1027.398438 607.523438 C 1025.742188 604.621094 1024.496094 597.777344 1024.289062 592.386719 C 1024.289062 586.996094 1022.835938 580.152344 1020.972656 577.457031 C 1019.3125 574.761719 1018.070312 570.410156 1018.484375 567.714844 C 1018.898438 563.773438 1020.558594 562.738281 1027.191406 562.324219 C 1031.753906 561.90625 1037.351562 560.25 1039.632812 558.589844 C 1041.914062 556.929688 1046.683594 555.6875 1050.207031 555.6875 C 1053.523438 555.480469 1058.707031 554.234375 1061.613281 552.578125 C 1064.515625 550.917969 1070.941406 549.46875 1076.125 549.46875 C 1081.308594 549.46875 1087.738281 548.015625 1090.640625 546.355469 C 1093.542969 544.699219 1100.175781 543.453125 1105.570312 543.246094 C 1110.960938 543.246094 1115.9375 542.210938 1116.765625 540.964844 C 1117.386719 539.722656 1118.007812 514.839844 1117.800781 485.605469 C 1117.386719 444.136719 1116.765625 431.488281 1114.277344 426.925781 C 1112.617188 423.816406 1111.375 416.972656 1111.375 411.582031 C 1111.375 403.289062 1110.960938 402.25 1106.8125 402.457031 C 1104.117188 402.664062 1099.761719 403.496094 1096.859375 404.324219 Z M 1096.859375 404.324219 "/>
<path style=" stroke:none;fill-rule:nonzero;fill:rgb(0%,0%,0%);fill-opacity:1;" d="M 837.886719 436.257812 C 832.285156 437.914062 825.652344 441.855469 820.675781 446.625 C 813.003906 454.296875 812.796875 454.917969 812.796875 469.015625 C 812.796875 483.324219 813.003906 483.738281 821.089844 491.824219 C 831.457031 502.191406 831.664062 505.507812 821.710938 506.339844 C 815.078125 506.960938 813.417969 508.203125 808.234375 517.328125 C 800.976562 530.183594 801.390625 529.5625 798.902344 542.625 C 797.453125 550.503906 797.660156 555.894531 799.941406 563.152344 C 803.878906 577.042969 801.390625 579.117188 776.925781 580.570312 C 766.558594 581.398438 755.152344 583.058594 752.042969 584.300781 C 748.726562 585.753906 738.980469 586.789062 730.273438 586.789062 C 720.320312 586.996094 712.441406 588.03125 709.125 589.898438 C 705.804688 591.765625 697.71875 592.800781 686.109375 593.007812 C 674.289062 593.007812 665.996094 594.046875 662.261719 596.121094 C 658.324219 598.191406 650.238281 599.230469 638.417969 599.230469 C 627.222656 599.230469 617.683594 600.472656 613.121094 602.339844 C 608.558594 604.207031 599.023438 605.449219 588.863281 605.449219 C 578.703125 605.449219 569.164062 606.695312 564.601562 608.558594 C 560.457031 610.425781 550.917969 611.671875 542.210938 611.671875 C 533.5 611.671875 523.964844 612.914062 519.816406 614.78125 C 515.253906 616.648438 505.925781 617.890625 496.59375 617.890625 C 483.738281 617.890625 479.796875 618.71875 474.824219 622.453125 C 467.359375 627.84375 466.941406 633.234375 473.371094 637.382812 C 477.101562 639.871094 481.457031 640.078125 497.628906 638.417969 C 508.414062 637.175781 521.683594 635.308594 527.074219 634.269531 C 532.464844 633.027344 544.492188 631.160156 554.027344 630.125 C 563.566406 629.085938 581.605469 626.808594 594.046875 625.355469 C 606.695312 623.695312 625.769531 621.414062 636.550781 620.171875 C 647.335938 618.925781 661.433594 616.855469 667.652344 615.816406 C 673.875 614.78125 685.070312 613.328125 692.535156 612.707031 C 700 611.878906 709.746094 610.632812 714.308594 609.390625 C 718.867188 608.351562 731.515625 606.488281 742.296875 605.449219 C 762.203125 603.375 786.257812 600.058594 823.578125 594.046875 C 834.773438 592.386719 852.605469 589.484375 862.972656 588.03125 C 895.941406 583.058594 910.871094 580.570312 924.96875 577.457031 C 932.640625 575.800781 940.730469 574.347656 942.800781 574.347656 C 949.644531 574.347656 954.207031 567.507812 951.925781 561.078125 C 949.851562 555.894531 949.023438 555.6875 934.09375 555.6875 L 918.542969 555.6875 L 918.542969 547.394531 C 918.542969 540.34375 917.714844 538.683594 913.566406 537.027344 C 910.871094 535.988281 907.96875 534.125 907.136719 533.085938 C 906.515625 531.84375 902.785156 530.804688 899.050781 530.804688 C 890.757812 530.804688 887.441406 527.695312 887.441406 519.609375 C 887.441406 515.046875 885.367188 511.523438 878.730469 505.925781 L 870.230469 498.253906 L 875 491.410156 C 881.21875 482.703125 887.441406 470.675781 887.441406 467.359375 C 887.441406 462.589844 880.183594 451.183594 873.339844 444.964844 C 867.742188 439.78125 851.984375 432.730469 848.046875 433.558594 C 847.421875 433.769531 842.863281 435.011719 837.886719 436.257812 Z M 837.886719 436.257812 "/>
<path style=" stroke:none;fill-rule:nonzero;fill:rgb(0%,0%,0%);fill-opacity:1;" d="M 685.902344 448.074219 C 682.582031 451.597656 682.167969 456.78125 682.167969 492.03125 C 682.167969 523.964844 682.789062 532.878906 685.277344 536.195312 C 686.9375 538.269531 688.386719 542.210938 688.386719 544.699219 C 688.386719 547.1875 689.425781 549.882812 690.667969 550.503906 C 691.707031 551.332031 693.574219 554.234375 694.816406 557.136719 C 696.476562 561.492188 697.71875 562.113281 704.355469 561.492188 C 711.195312 560.871094 712.234375 560.042969 712.855469 555.066406 C 713.269531 551.953125 712.648438 549.46875 711.613281 549.46875 C 710.367188 549.46875 707.464844 545.527344 705.183594 540.550781 C 701.242188 532.464844 700.828125 527.902344 700.828125 492.238281 C 700.621094 456.992188 700.207031 452.636719 696.890625 448.28125 C 692.121094 442.890625 690.667969 442.683594 685.902344 448.074219 Z M 685.902344 448.074219 "/>
<path style=" stroke:none;fill-rule:nonzero;fill:rgb(0%,0%,0%);fill-opacity:1;" d="M 369.90625 453.050781 C 369.28125 455.953125 369.492188 468.394531 370.734375 480.628906 C 371.769531 492.863281 372.394531 503.4375 371.769531 504.265625 C 371.355469 505.300781 359.125 505.925781 344.609375 505.925781 C 327.191406 505.925781 314.75 506.960938 308.117188 509.035156 C 302.519531 510.691406 294.429688 512.144531 290.078125 512.144531 C 285.722656 512.144531 279.085938 514.011719 275.148438 516.292969 C 268.71875 520.023438 267.890625 521.476562 267.890625 529.976562 C 267.683594 535.160156 267.0625 541.171875 266.441406 543.039062 C 265.816406 545.113281 266.855469 550.710938 268.511719 555.6875 C 270.171875 560.457031 271.625 570.824219 271.625 578.496094 C 271.625 586.167969 273.074219 595.914062 274.734375 599.851562 C 276.390625 604 277.84375 613.328125 277.84375 620.378906 C 278.050781 627.84375 279.296875 635.722656 280.953125 638.625 C 282.613281 641.527344 284.0625 647.125 284.0625 651.066406 C 284.0625 655.007812 285.929688 660.605469 288.003906 663.507812 C 291.941406 668.484375 292.359375 668.484375 301.066406 665.789062 C 306.042969 664.335938 314.542969 662.675781 320.347656 662.054688 C 325.949219 661.433594 332.582031 659.773438 334.863281 658.117188 C 337.144531 656.457031 342.742188 655.214844 347.511719 655.214844 C 352.28125 655.214844 360.160156 653.761719 364.929688 652.101562 C 377.578125 647.75 421.328125 647.75 425.058594 652.101562 C 428.375 656.042969 426.71875 706.636719 423.191406 715.964844 C 421.949219 719.28125 420.914062 735.871094 420.914062 753.289062 C 420.703125 771.328125 419.460938 791.855469 417.800781 801.390625 C 415.730469 812.589844 414.691406 833.117188 414.691406 864.21875 C 414.691406 906.308594 415.105469 911.078125 418.839844 918.542969 C 421.121094 923.105469 424.851562 927.664062 427.132812 928.910156 C 432.730469 931.8125 440.609375 929.53125 443.304688 924.140625 C 444.757812 921.238281 446 871.890625 446.832031 781.902344 L 448.28125 644.222656 L 438.742188 625.355469 C 429.207031 606.28125 414.691406 570.617188 414.691406 566.261719 C 414.691406 565.019531 413.863281 562.324219 412.824219 560.25 C 410.960938 556.308594 404.117188 534.332031 399.140625 515.253906 C 397.273438 508.414062 394.578125 498.046875 392.921875 492.238281 C 391.261719 486.433594 389.808594 478.96875 389.808594 475.445312 C 389.808594 472.125 389.1875 468.601562 388.359375 467.773438 C 387.324219 466.941406 385.871094 462.382812 384.625 457.613281 C 382.96875 450.355469 381.722656 448.695312 376.953125 448.28125 C 372.394531 447.660156 370.941406 448.695312 369.90625 453.050781 Z M 377.371094 525.414062 C 377.371094 529.148438 378.820312 535.160156 380.480469 538.269531 C 382.136719 541.585938 383.589844 548.015625 383.589844 552.578125 C 383.589844 557.136719 385.042969 562.738281 386.699219 564.808594 C 388.359375 567.089844 389.808594 572.273438 389.808594 576.214844 C 389.808594 580.363281 391.261719 585.546875 392.921875 587.617188 C 394.578125 589.898438 396.03125 594.667969 396.03125 598.191406 C 396.03125 601.71875 397.480469 606.488281 399.140625 608.769531 C 400.800781 610.839844 402.25 615.195312 402.25 618.097656 C 402.25 621.207031 403.703125 624.320312 405.570312 624.941406 C 407.433594 625.5625 408.472656 628.050781 408.058594 630.746094 C 407.433594 635.515625 406.8125 635.515625 380.480469 635.515625 L 353.523438 635.515625 L 352.488281 622.660156 C 351.867188 615.609375 350.207031 608.558594 348.964844 607.109375 C 347.304688 605.65625 346.269531 598.816406 346.269531 590.105469 C 346.269531 582.019531 344.816406 566.882812 343.15625 556.722656 C 339.839844 536.820312 339.21875 522.097656 341.5 519.816406 C 342.121094 518.988281 350.621094 518.363281 360.160156 518.363281 L 377.371094 518.363281 Z M 377.371094 525.414062 "/>
<path style=" stroke:none;fill-rule:nonzero;fill:rgb(0%,0%,0%);fill-opacity:1;" d="M 571.238281 564.808594 C 568.957031 566.675781 562.738281 568.128906 557.554688 568.128906 C 551.539062 568.128906 546.980469 569.371094 545.320312 571.238281 C 543.867188 573.105469 539.308594 574.347656 534.125 574.347656 C 529.355469 574.347656 523.546875 575.800781 521.269531 577.457031 C 519.195312 579.117188 514.425781 580.570312 510.902344 580.570312 C 507.582031 580.570312 502.8125 582.019531 500.53125 583.679688 C 498.460938 585.335938 493.691406 586.789062 490.164062 586.789062 C 486.847656 586.789062 482.078125 588.242188 479.796875 589.898438 C 477.726562 591.558594 473.164062 593.007812 469.636719 593.007812 C 460.308594 593.007812 449.941406 600.058594 449.941406 606.488281 C 449.941406 612.914062 458.855469 618.097656 462.796875 614.160156 C 464.246094 612.707031 467.359375 611.671875 469.847656 611.671875 C 472.335938 611.671875 475.445312 610.21875 476.894531 608.558594 C 478.347656 606.902344 482.492188 605.449219 486.226562 605.449219 C 489.957031 605.449219 494.105469 604 495.558594 602.339844 C 497.007812 600.679688 501.570312 599.230469 505.71875 599.230469 C 509.863281 599.230469 515.046875 597.777344 517.121094 596.121094 C 519.402344 594.460938 524.585938 593.007812 528.523438 593.007812 C 532.671875 592.800781 538.269531 591.558594 541.171875 589.898438 C 544.074219 588.242188 550.089844 586.789062 554.652344 586.789062 C 559.210938 586.789062 565.226562 585.335938 568.128906 583.679688 C 571.03125 582.019531 577.25 580.777344 582.226562 580.570312 C 594.667969 580.570312 607.9375 573.519531 607.109375 567.507812 C 606.488281 563.359375 605.242188 562.945312 590.9375 562.324219 C 579.53125 561.90625 574.347656 562.53125 571.238281 564.808594 Z M 571.238281 564.808594 "/>
<path style=" stroke:none;fill-rule:nonzero;fill:rgb(0%,0%,0%);fill-opacity:1;" d="M 717.417969 654.589844 C 682.789062 659.773438 650.859375 668.277344 630.332031 677.398438 C 626.390625 679.265625 619.757812 682.375 615.816406 684.035156 C 604.828125 689.011719 568.128906 711.195312 559.210938 718.039062 C 552.992188 722.808594 551.539062 725.296875 551.953125 729.652344 C 552.992188 738.773438 559.835938 737.53125 578.910156 725.089844 C 593.425781 715.550781 608.769531 707.671875 633.441406 696.476562 C 638.210938 694.402344 656.871094 688.386719 673.875 683.621094 C 698.132812 676.570312 716.171875 674.910156 766.144531 674.910156 C 807.40625 674.910156 817.773438 675.53125 827.101562 678.644531 C 833.324219 680.507812 841.824219 682.167969 845.972656 682.167969 C 850.117188 682.167969 854.265625 682.789062 855.09375 683.621094 C 855.925781 684.65625 861.9375 686.316406 868.363281 687.765625 C 897.394531 693.78125 901.125 694.609375 905.273438 696.890625 C 911.90625 700.414062 925.59375 698.546875 926.421875 693.988281 C 927.664062 687.558594 924.96875 680.09375 921.445312 680.09375 C 919.578125 680.09375 915.640625 678.644531 912.738281 677.191406 C 903.40625 672.007812 893.039062 668.070312 885.367188 666.617188 C 881.425781 665.789062 877.28125 664.335938 876.035156 663.507812 C 873.546875 661.640625 850.742188 657.492188 829.382812 655.214844 C 814.039062 653.554688 727.578125 652.933594 717.417969 654.589844 Z M 717.417969 654.589844 "/>
<path style=" stroke:none;fill-rule:nonzero;fill:rgb(0%,0%,0%);fill-opacity:1;" d="M 952.753906 729.234375 C 941.351562 730.480469 922.898438 743.128906 917.507812 753.703125 C 909.417969 769.460938 907.761719 778.585938 910.457031 791.648438 C 913.566406 804.917969 913.980469 805.746094 926.835938 818.808594 C 933.886719 826.066406 939.277344 829.175781 949.023438 832.078125 C 961.257812 835.8125 962.707031 835.8125 976.808594 832.492188 C 990.078125 829.589844 993.1875 827.933594 1001.6875 819.429688 C 1006.871094 814.039062 1013.09375 805.953125 1015.164062 801.390625 C 1020.558594 790.195312 1020.347656 770.496094 1014.957031 759.714844 C 1009.980469 749.96875 1001.6875 740.226562 998.164062 740.226562 C 996.917969 740.226562 995.261719 738.980469 994.636719 737.53125 C 993.394531 734.210938 973.902344 727.578125 966.441406 728.199219 C 963.535156 728.40625 957.316406 728.820312 952.753906 729.234375 Z M 954.828125 754.738281 C 954.828125 758.472656 953.585938 760.128906 950.058594 760.546875 C 947.363281 760.960938 944.460938 763.449219 943.425781 766.144531 C 942.386719 768.839844 940.519531 771.535156 939.484375 772.363281 C 938.242188 772.984375 937.203125 775.886719 937.203125 778.585938 C 937.203125 785.839844 933.886719 786.671875 929.117188 780.449219 C 923.726562 773.816406 923.726562 771.121094 928.496094 763.449219 C 935.546875 752.042969 939.898438 748.726562 947.570312 749.140625 C 953.792969 749.554688 954.828125 750.175781 954.828125 754.738281 Z M 954.828125 754.738281 "/>
<path style=" stroke:none;fill-rule:nonzero;fill:rgb(0%,0%,0%);fill-opacity:1;" d="M 835.8125 757.019531 C 829.796875 758.058594 805.953125 759.714844 782.9375 760.960938 C 740.226562 762.824219 702.28125 766.351562 696.683594 768.632812 C 695.023438 769.460938 688.386719 771.121094 682.167969 772.570312 C 646.503906 780.65625 638.625 783.976562 638.625 791.855469 C 638.625 794.964844 640.492188 799.320312 642.773438 801.390625 C 647.125 805.332031 650.03125 805.125 670.765625 799.320312 C 677.605469 797.453125 689.839844 794.757812 697.71875 793.304688 C 705.804688 791.648438 713.683594 789.988281 715.34375 789.160156 C 717.003906 788.535156 732.554688 787.085938 749.554688 786.046875 C 853.851562 779.414062 859.449219 779 864.21875 775.886719 C 869.816406 772.15625 871.890625 764.898438 868.78125 759.09375 C 866.292969 754.324219 856.546875 753.703125 835.8125 757.019531 Z M 835.8125 757.019531 "/>
<path style=" stroke:none;fill-rule:nonzero;fill:rgb(0%,0%,0%);fill-opacity:1;" d="M 510.484375 775.679688 C 468.808594 795.171875 468.394531 850.742188 509.65625 870.230469 C 537.441406 883.5 573.3125 871.058594 584.921875 844.3125 C 589.691406 833.53125 590.105469 814.246094 585.960938 804.085938 C 581.398438 793.097656 568.128906 780.65625 556.308594 775.679688 C 542.210938 769.875 522.71875 769.875 510.484375 775.679688 Z M 527.902344 799.320312 C 531.21875 801.808594 531.21875 802.222656 528.523438 802.429688 C 524.585938 802.429688 514.21875 811.550781 514.21875 814.871094 C 514.21875 819.015625 507.167969 829.382812 504.472656 829.382812 C 502.605469 829.382812 501.777344 825.859375 501.777344 818.394531 C 501.777344 804.503906 507.582031 798.074219 521.683594 796.414062 C 522.71875 796.414062 525.621094 797.660156 527.902344 799.320312 Z M 527.902344 799.320312 "/>
<path style=" stroke:none;fill-rule:nonzero;fill:rgb(0%,0%,0%);fill-opacity:1;" d="M 809.6875 804.710938 C 785.011719 806.160156 770.914062 808.441406 740.226562 815.285156 C 729.441406 817.566406 714.515625 820.675781 707.050781 822.125 C 699.585938 823.578125 690.253906 825.859375 686.316406 827.101562 C 682.375 828.347656 675.949219 829.382812 672.214844 829.382812 C 663.300781 829.382812 653.347656 835.191406 651.894531 841.203125 C 651.066406 844.105469 652.308594 847.214844 655.214844 850.117188 C 660.191406 855.09375 662.261719 855.09375 690.460938 849.289062 C 722.808594 842.652344 739.601562 839.542969 754.738281 837.054688 C 763.242188 835.605469 771.328125 833.738281 772.570312 832.910156 C 773.816406 832.285156 787.292969 830.628906 802.636719 829.382812 C 817.980469 828.140625 833.53125 826.273438 837.261719 825.03125 C 843.070312 823.164062 843.898438 821.917969 843.898438 815.90625 C 843.898438 810.929688 842.445312 807.820312 839.335938 805.746094 C 836.847656 803.878906 834.152344 802.636719 833.53125 802.84375 C 832.910156 803.050781 822.335938 803.878906 809.6875 804.710938 Z M 809.6875 804.710938 "/>
<path style=" stroke:none;fill-rule:nonzero;fill:rgb(0%,0%,0%);fill-opacity:1;" d="M 776.511719 854.265625 C 750.800781 857.375 718.246094 862.144531 715.34375 863.386719 C 713.683594 864.011719 704.769531 864.839844 695.851562 865.460938 C 677.605469 866.292969 673.875 868.78125 673.875 879.5625 C 673.875 888.683594 680.09375 889.929688 709.539062 886.195312 C 776.511719 877.902344 802.222656 875.207031 812.382812 875 C 827.308594 875 831.457031 872.511719 831.457031 863.597656 C 831.457031 858.621094 830.214844 855.71875 827.519531 854.265625 C 822.957031 851.984375 796 851.984375 776.511719 854.265625 Z M 776.511719 854.265625 "/>
<path style=" stroke:none;fill-rule:nonzero;fill:rgb(0%,0%,0%);fill-opacity:1;" d="M 1007.078125 874.171875 C 1005.421875 875.828125 981.160156 880.804688 961.671875 883.292969 C 953.792969 884.332031 946.328125 885.78125 945.082031 886.820312 C 942.59375 888.269531 931.605469 890.136719 892.832031 895.734375 C 884.953125 896.769531 875.621094 898.636719 872.097656 899.882812 C 868.574219 900.917969 859.242188 902.992188 851.15625 904.234375 C 843.277344 905.480469 828.347656 907.761719 817.980469 909.210938 C 791.441406 913.359375 761.996094 917.921875 747.480469 920.410156 C 740.640625 921.652344 731.101562 922.691406 726.332031 922.691406 C 721.5625 922.691406 715.550781 923.519531 712.855469 924.761719 C 710.160156 925.800781 698.339844 927.664062 686.316406 928.910156 C 656.042969 931.605469 627.636719 934.921875 611.671875 937.410156 C 598.191406 939.484375 572.691406 941.765625 513.179688 945.496094 C 460.929688 948.816406 434.804688 952.132812 430.863281 955.449219 C 426.097656 959.597656 426.097656 964.367188 431.28125 969.964844 C 435.011719 973.902344 436.878906 974.320312 457.613281 973.28125 C 470.054688 972.867188 491.617188 971.414062 505.925781 970.171875 C 520.230469 969.136719 543.453125 967.269531 557.761719 966.230469 C 602.546875 963.121094 635.101562 960.011719 647.957031 957.9375 C 654.796875 956.695312 669.726562 954.828125 681.132812 953.792969 C 692.535156 952.546875 711.613281 950.265625 723.636719 948.816406 C 735.664062 947.15625 752.875 944.875 761.996094 943.632812 C 792.890625 939.484375 857.996094 929.738281 872.925781 926.628906 C 878.109375 925.800781 887.027344 924.347656 892.625 923.519531 C 898.429688 922.898438 908.175781 920.824219 914.394531 919.371094 C 920.617188 917.714844 929.117188 916.46875 933.472656 916.46875 C 937.617188 916.46875 941.765625 915.433594 942.386719 914.394531 C 943.007812 913.152344 947.15625 912.324219 951.304688 912.324219 C 955.65625 912.324219 964.160156 911.078125 970.378906 909.417969 C 976.597656 907.761719 985.929688 905.894531 991.113281 905.273438 C 1007.703125 902.785156 1023.460938 896.980469 1027.191406 892.003906 C 1030.71875 887.441406 1030.71875 887.027344 1026.984375 880.597656 C 1023.875 875.414062 1021.386719 873.757812 1015.789062 873.339844 C 1011.847656 872.925781 1007.910156 873.339844 1007.078125 874.171875 Z M 1007.078125 874.171875 "/>
<path style=" stroke:none;fill-rule:nonzero;fill:rgb(0%,0%,0%);fill-opacity:1;" d="M 1041.292969 896.769531 C 1037.144531 899.882812 1036.730469 901.746094 1036.730469 919.164062 C 1036.730469 930.570312 1037.972656 941.558594 1039.839844 946.535156 C 1043.574219 956.902344 1043.78125 964.160156 1040.460938 964.988281 C 1039.011719 965.402344 1032.582031 967.269531 1026.363281 968.925781 C 1008.324219 973.902344 995.054688 977.015625 984.894531 978.464844 C 979.710938 979.296875 974.113281 980.746094 972.453125 981.78125 C 970.792969 982.820312 964.160156 984.480469 957.9375 985.308594 C 946.328125 986.757812 934.09375 989.039062 910.042969 994.222656 C 902.371094 995.882812 892.210938 997.335938 887.441406 997.335938 C 882.671875 997.335938 877.074219 998.371094 875 999.40625 C 872.71875 1000.652344 862.351562 1002.308594 851.777344 1003.554688 C 816.527344 1006.871094 791.230469 1009.980469 777.546875 1012.054688 C 770.082031 1013.300781 754.324219 1014.957031 742.296875 1015.996094 C 703.730469 1019.3125 658.945312 1023.875 637.589844 1026.570312 C 620.585938 1028.644531 610.632812 1028.644531 583.679688 1026.363281 C 541.585938 1022.835938 473.578125 1021.59375 468.601562 1024.289062 C 465.285156 1026.15625 464.871094 1030.09375 464.664062 1069.90625 C 464.453125 1106.191406 464.871094 1114.277344 467.566406 1118.21875 C 469.222656 1120.703125 470.675781 1124.644531 470.675781 1127.132812 C 470.675781 1129.621094 472.125 1132.730469 473.785156 1134.183594 C 475.445312 1135.632812 476.894531 1138.742188 476.894531 1141.230469 C 477.101562 1150.148438 485.191406 1152.84375 513.597656 1154.085938 C 531.425781 1154.917969 543.246094 1154.503906 549.46875 1152.84375 C 554.652344 1151.390625 564.394531 1149.734375 571.445312 1148.902344 C 586.167969 1147.453125 589.898438 1144.964844 591.765625 1135.632812 C 593.007812 1130.242188 593.632812 1129.621094 595.082031 1132.316406 C 596.742188 1135.21875 600.679688 1135.632812 621.414062 1135.011719 C 669.726562 1133.558594 717.210938 1129.414062 770.289062 1121.949219 C 778.375 1120.703125 791.855469 1119.253906 800.355469 1118.632812 C 808.855469 1117.800781 830.421875 1115.519531 848.046875 1113.65625 C 893.453125 1108.472656 907.136719 1109.507812 965.195312 1121.949219 C 987.796875 1126.71875 1004.175781 1126.304688 1019.105469 1120.914062 C 1023.667969 1119.253906 1030.300781 1117.59375 1033.621094 1117.59375 C 1037.144531 1117.386719 1044.609375 1114.691406 1050.207031 1111.375 C 1056.011719 1108.058594 1064.929688 1103.082031 1070.320312 1100.59375 C 1085.25 1093.335938 1090.433594 1080.273438 1083.382812 1067.832031 C 1081.722656 1064.929688 1080.480469 1057.464844 1080.273438 1051.035156 C 1080.273438 1044.609375 1078.820312 1035.277344 1077.164062 1030.507812 C 1075.503906 1025.742188 1074.050781 1016.410156 1074.050781 1009.980469 C 1073.84375 1003.140625 1072.601562 996.710938 1070.941406 994.429688 C 1066.378906 988.417969 1067.210938 983.234375 1073.222656 976.183594 C 1076.539062 972.039062 1077.992188 968.511719 1076.953125 966.441406 C 1076.125 964.574219 1074.882812 958.351562 1074.050781 952.753906 C 1072.394531 942.386719 1068.867188 931.8125 1064.097656 923.3125 C 1062.648438 920.824219 1061.613281 916.46875 1061.613281 913.359375 C 1061.613281 907.347656 1056.21875 895.734375 1053.523438 895.734375 C 1052.488281 895.734375 1050.414062 895.320312 1048.757812 894.699219 C 1047.304688 894.074219 1043.988281 895.113281 1041.292969 896.769531 Z M 939.484375 1014.542969 C 939.277344 1017.03125 936.375 1016.410156 935.546875 1013.714844 C 934.921875 1012.46875 935.753906 1011.640625 937.203125 1012.054688 C 938.449219 1012.675781 939.484375 1013.714844 939.484375 1014.542969 Z M 939.484375 1014.542969 "/>
</g>
</svg>
