<?xml version="1.0" standalone="no"?>
<!DOCTYPE svg PUBLIC "-//W3C//DTD SVG 20010904//EN"
 "http://www.w3.org/TR/2001/REC-SVG-20010904/DTD/svg10.dtd">
<svg version="1.0" xmlns="http://www.w3.org/2000/svg"
 width="675.000000pt" height="675.000000pt" viewBox="0 0 675.000000 675.000000"
 preserveAspectRatio="xMidYMid meet">
<metadata>
Created by potrace 1.10, written by Peter Selinger 2001-2011
</metadata>
<g transform="translate(0.000000,675.000000) scale(0.100000,-0.100000)"
fill="#000000" stroke="none">
<path d="M3200 5523 c-58 -8 -125 -21 -150 -29 -25 -8 -55 -14 -68 -14 -12 0
-30 -4 -40 -9 -9 -5 -55 -19 -102 -32 -47 -12 -119 -36 -160 -52 -78 -30 -93
-36 -201 -86 -36 -17 -71 -31 -77 -31 -7 0 -12 -4 -12 -9 0 -5 -10 -13 -21
-16 -28 -9 -223 -126 -227 -137 -2 -4 -10 -8 -17 -8 -7 0 -31 -15 -53 -32 -22
-18 -54 -44 -72 -57 -38 -29 -231 -225 -243 -247 -11 -20 7 -64 26 -64 18 0
65 34 136 99 14 13 53 44 86 69 33 25 62 49 65 52 3 3 32 23 65 45 33 22 62
42 65 45 24 24 252 160 268 160 4 0 23 8 42 18 19 10 73 33 120 52 47 18 99
39 117 46 17 8 40 14 51 14 12 0 23 4 26 9 3 5 23 12 43 15 21 4 56 13 78 21
64 21 134 38 300 72 165 33 466 40 630 13 33 -5 89 -14 125 -19 92 -14 150
-26 190 -39 19 -6 62 -19 95 -27 33 -9 73 -23 88 -31 16 -8 34 -14 40 -14 7
-1 30 -9 52 -20 22 -11 48 -19 58 -20 9 0 17 -4 17 -10 0 -5 12 -13 27 -16 15
-4 34 -13 41 -21 7 -7 22 -13 32 -13 10 0 21 -4 24 -9 3 -5 24 -19 47 -30 23
-12 48 -28 56 -36 18 -19 37 -19 52 -1 31 37 -53 112 -209 186 -25 12 -57 28
-72 36 -14 8 -33 14 -41 14 -8 0 -20 7 -27 15 -7 8 -22 15 -34 15 -12 0 -31 7
-42 15 -10 8 -32 15 -49 15 -16 0 -39 7 -49 15 -11 8 -34 15 -51 15 -17 0 -40
7 -51 15 -10 8 -37 15 -60 15 -22 0 -49 7 -60 15 -12 9 -44 15 -89 15 -41 0
-80 7 -95 15 -35 20 -540 18 -690 -2z"/>
<path d="M4130 5291 c-8 -5 -31 -11 -50 -15 -99 -18 -113 -185 -20 -240 28
-16 94 -20 140 -7 37 10 79 78 80 127 0 34 -7 48 -38 82 -22 23 -48 42 -58 42
-11 0 -24 4 -29 9 -6 6 -17 6 -25 2z m-20 -83 c-1 -20 -49 -70 -60 -63 -16 10
-12 27 12 52 23 25 48 30 48 11z"/>
<path d="M2454 5049 c-40 -29 -64 -72 -64 -113 0 -49 48 -109 103 -130 42 -16
48 -16 83 -1 52 21 73 42 95 93 18 41 18 43 0 85 -28 62 -55 81 -126 85 -50 3
-65 -1 -91 -19z m56 -65 c0 -8 -5 -14 -10 -14 -6 0 -15 -12 -20 -26 -6 -14
-14 -22 -20 -19 -18 11 -11 53 12 69 23 17 38 13 38 -10z"/>
<path d="M3945 4959 c-22 -4 -92 -11 -155 -14 -63 -3 -158 -12 -210 -20 -100
-15 -116 -17 -270 -39 -52 -8 -104 -17 -115 -20 -11 -4 -54 -10 -95 -16 -41
-5 -106 -16 -145 -24 -38 -8 -104 -22 -145 -30 -120 -25 -184 -41 -195 -47 -5
-4 -31 -10 -57 -13 -26 -4 -50 -11 -53 -15 -2 -5 -26 -12 -52 -16 -27 -4 -53
-11 -58 -15 -6 -5 -29 -13 -50 -19 -57 -14 -186 -62 -212 -79 -24 -15 -29 -37
-14 -61 12 -18 95 -16 124 4 12 8 33 15 48 15 15 0 32 7 39 15 7 8 29 15 50
15 24 0 40 5 44 15 3 9 19 15 38 15 18 1 44 7 58 15 14 8 41 15 60 15 19 0 44
7 54 15 11 8 38 15 61 15 23 0 50 7 61 15 10 8 39 15 64 15 25 0 56 7 70 15
14 8 48 15 75 15 28 0 61 7 75 15 14 8 48 14 76 15 28 0 71 7 94 15 23 8 68
15 100 15 32 0 77 7 100 15 23 8 75 15 115 15 39 0 94 7 121 15 32 10 92 15
170 15 88 0 130 4 150 15 42 22 391 22 420 0 10 -8 37 -15 60 -15 22 0 49 -7
60 -15 42 -32 90 -5 82 47 -4 27 -30 40 -139 72 -44 13 -98 16 -260 15 -112
-1 -222 -5 -244 -10z"/>
<path d="M5290 4800 c-14 -4 -46 -8 -71 -9 -28 -1 -51 -7 -59 -16 -7 -9 -30
-15 -54 -15 -22 0 -50 -7 -60 -15 -11 -8 -32 -15 -47 -15 -14 0 -38 -9 -51
-20 l-25 -19 -21 24 c-24 27 -54 32 -70 13 -5 -7 -13 -34 -16 -60 -4 -26 -11
-50 -17 -53 -5 -4 -9 -27 -9 -53 -1 -26 -7 -58 -15 -72 -8 -14 -15 -43 -15
-65 0 -22 -7 -51 -15 -65 -8 -14 -15 -41 -15 -60 0 -19 -7 -46 -15 -60 -8 -14
-15 -41 -15 -60 0 -19 -7 -46 -15 -60 -8 -14 -14 -44 -15 -67 0 -38 3 -43 27
-49 14 -4 33 -3 41 3 15 9 45 89 57 151 3 19 10 42 15 51 11 22 40 190 40 235
0 20 7 53 15 73 8 19 15 54 15 77 1 65 16 76 104 79 l76 3 0 -216 c1 -167 4
-221 15 -240 8 -14 14 -37 15 -52 0 -22 -8 -30 -47 -48 -27 -11 -61 -28 -76
-35 -16 -8 -35 -15 -42 -15 -27 0 -83 -33 -95 -56 -10 -17 -10 -30 -2 -51 6
-15 16 -57 21 -93 5 -36 15 -85 21 -110 12 -51 46 -214 64 -310 7 -36 15 -72
18 -80 6 -14 13 -47 38 -187 6 -32 15 -66 20 -75 6 -10 10 -30 10 -45 0 -16 9
-61 20 -102 11 -41 20 -85 20 -97 0 -13 5 -26 10 -29 6 -3 10 -21 10 -38 0
-18 5 -48 10 -68 11 -40 34 -154 53 -269 22 -127 49 -160 104 -125 34 23 32
44 -31 350 -8 39 -22 104 -31 145 -9 41 -22 104 -29 140 -7 36 -16 72 -20 80
-3 8 -10 42 -16 75 -5 33 -16 89 -25 125 -9 36 -22 94 -29 130 -18 86 -36 156
-52 203 -8 20 -14 50 -14 65 -1 15 -7 38 -15 52 -8 14 -15 41 -15 60 0 19 -7
46 -15 60 -8 14 -14 47 -15 73 0 26 -7 59 -16 72 -8 13 -14 34 -12 47 2 19 10
24 42 26 22 2 49 10 60 18 11 8 34 14 51 14 16 1 41 7 55 15 14 8 45 15 70 15
25 0 56 7 70 15 14 8 46 14 72 15 26 0 50 5 54 11 3 6 6 126 5 267 -2 200 -5
261 -17 283 -8 15 -14 48 -14 74 0 40 -2 45 -22 44 -13 -1 -34 -5 -48 -9z"/>
<path d="M4041 4646 c-27 -8 -59 -27 -83 -50 -37 -37 -38 -40 -38 -108 0 -69
1 -71 40 -110 50 -50 51 -66 3 -70 -32 -3 -40 -9 -65 -53 -35 -62 -33 -59 -45
-122 -7 -38 -6 -64 5 -99 19 -67 7 -77 -111 -84 -50 -4 -105 -12 -120 -18 -16
-7 -63 -12 -105 -12 -48 -1 -86 -6 -102 -15 -16 -9 -55 -14 -111 -15 -57 0
-97 -5 -115 -15 -19 -10 -58 -15 -115 -15 -54 0 -100 -6 -122 -15 -22 -9 -68
-15 -117 -15 -49 0 -95 -6 -117 -15 -20 -9 -66 -15 -108 -15 -42 0 -88 -6
-108 -15 -22 -9 -67 -15 -112 -15 -62 0 -81 -4 -105 -22 -36 -26 -38 -52 -7
-72 18 -12 39 -13 117 -5 52 6 116 15 142 20 26 6 84 15 130 20 46 5 133 16
193 23 61 8 153 19 205 25 52 6 120 16 150 21 30 5 84 12 120 15 36 4 83 10
105 16 22 5 83 14 135 19 96 10 212 26 392 55 54 8 140 22 190 29 159 24 231
36 299 51 37 8 76 15 86 15 33 0 55 33 44 64 -10 25 -14 26 -86 26 l-75 0 0
40 c0 34 -4 42 -24 50 -13 5 -27 14 -31 19 -3 6 -21 11 -39 11 -40 0 -56 15
-56 54 0 22 -10 39 -42 66 l-41 37 23 33 c30 42 60 100 60 116 0 23 -35 78
-68 108 -27 25 -103 59 -122 55 -3 -1 -25 -7 -49 -13z"/>
<path d="M3308 4589 c-16 -17 -18 -42 -18 -212 0 -154 3 -197 15 -213 8 -10
15 -29 15 -41 0 -12 5 -25 11 -28 5 -4 14 -18 20 -32 8 -21 14 -24 46 -21 33
3 38 7 41 31 2 15 -1 27 -6 27 -6 0 -20 19 -31 43 -19 39 -21 61 -21 233 -1
170 -3 191 -19 212 -23 26 -30 27 -53 1z"/>
<path d="M1784 4565 c-3 -14 -2 -74 4 -133 5 -59 8 -110 5 -114 -2 -5 -61 -8
-131 -8 -84 0 -144 -5 -176 -15 -27 -8 -66 -15 -87 -15 -21 0 -53 -9 -72 -20
-31 -18 -35 -25 -35 -66 -1 -25 -4 -54 -7 -63 -3 -10 2 -37 10 -61 8 -23 15
-73 15 -110 0 -37 7 -84 15 -103 8 -20 15 -65 15 -99 1 -36 7 -74 15 -88 8
-14 15 -41 15 -60 0 -19 9 -46 19 -60 19 -24 21 -24 63 -11 24 7 65 15 93 18
27 3 59 11 70 19 11 8 38 14 61 14 23 0 61 7 84 15 61 21 272 21 290 0 16 -19
8 -263 -9 -308 -6 -16 -11 -96 -11 -180 -1 -87 -7 -186 -15 -232 -10 -54 -15
-153 -15 -303 0 -203 2 -226 20 -262 11 -22 29 -44 40 -50 27 -14 65 -3 78 23
7 14 13 252 17 686 l7 664 -46 91 c-46 92 -116 264 -116 285 0 6 -4 19 -9 29
-9 19 -42 125 -66 217 -9 33 -22 83 -30 111 -8 28 -15 64 -15 81 0 16 -3 33
-7 37 -5 4 -12 26 -18 49 -8 35 -14 43 -37 45 -22 3 -29 -2 -34 -23z m36 -349
c0 -18 7 -47 15 -62 8 -16 15 -47 15 -69 0 -22 7 -49 15 -59 8 -11 15 -36 15
-55 0 -20 7 -45 15 -55 8 -11 15 -34 15 -51 0 -17 7 -40 15 -51 8 -10 15 -31
15 -45 0 -15 7 -30 16 -33 9 -3 14 -15 12 -28 -3 -23 -6 -23 -133 -23 l-130 0
-5 62 c-3 34 -11 68 -17 75 -8 7 -13 40 -13 82 0 39 -7 112 -15 161 -16 96
-19 167 -8 178 3 4 44 7 90 7 l83 0 0 -34z"/>
<path d="M2755 4026 c-11 -9 -41 -16 -66 -16 -29 0 -51 -6 -59 -15 -7 -9 -29
-15 -54 -15 -23 0 -51 -7 -62 -15 -10 -8 -33 -15 -50 -15 -16 0 -39 -7 -50
-15 -10 -8 -33 -15 -50 -15 -16 0 -39 -7 -50 -15 -10 -8 -32 -15 -49 -15 -45
0 -95 -34 -95 -65 0 -31 43 -56 62 -37 7 7 22 12 34 12 12 0 27 7 34 15 7 8
27 15 45 15 18 0 38 7 45 15 7 8 29 15 49 15 20 0 45 7 55 15 11 8 36 15 55
15 20 1 47 7 61 15 14 8 43 15 65 15 22 0 51 7 65 15 14 8 44 14 68 15 60 0
124 34 120 63 -3 20 -9 22 -78 25 -55 2 -80 -1 -95 -12z"/>
<path d="M3460 3593 c-167 -25 -321 -66 -420 -110 -19 -9 -51 -24 -70 -32 -53
-24 -230 -131 -273 -164 -30 -23 -37 -35 -35 -56 5 -44 38 -38 130 22 70 46
144 84 263 138 23 10 113 39 195 62 117 34 204 42 445 42 199 0 249 -3 294
-18 30 -9 71 -17 91 -17 20 0 40 -3 44 -7 4 -5 33 -13 64 -20 140 -29 158 -33
178 -44 32 -17 98 -8 102 14 6 31 -7 67 -24 67 -9 0 -28 7 -42 14 -45 25 -95
44 -132 51 -19 4 -39 11 -45 15 -12 9 -122 29 -225 40 -74 8 -491 11 -540 3z"/>
<path d="M4595 3233 c-55 -6 -144 -67 -170 -118 -39 -76 -47 -120 -34 -183 15
-64 17 -68 79 -131 34 -35 60 -50 107 -64 59 -18 66 -18 134 -2 64 14 79 22
120 63 25 26 55 65 65 87 26 54 25 149 -1 201 -24 47 -64 94 -81 94 -6 0 -14
6 -17 13 -6 16 -100 48 -136 45 -14 -1 -44 -3 -66 -5z m10 -123 c0 -18 -6 -26
-23 -28 -13 -2 -27 -14 -32 -27 -5 -13 -14 -26 -19 -30 -6 -3 -11 -17 -11 -30
0 -35 -16 -39 -39 -9 -26 32 -26 45 -3 82 34 55 55 71 92 69 30 -2 35 -5 35
-27z"/>
<path d="M4031 3099 c-29 -5 -144 -13 -255 -19 -206 -9 -389 -26 -416 -37 -8
-4 -40 -12 -70 -19 -172 -39 -210 -55 -210 -93 0 -15 9 -36 20 -46 21 -19 35
-18 135 10 33 9 92 22 130 29 39 8 77 16 85 20 8 3 83 10 165 15 503 32 530
34 553 49 27 18 37 53 22 81 -12 23 -59 26 -159 10z"/>
<path d="M2462 3009 c-201 -94 -203 -362 -4 -456 134 -64 307 -4 363 125 23
52 25 145 5 194 -22 53 -86 113 -143 137 -68 28 -162 28 -221 0z m84 -114 c16
-12 16 -14 3 -15 -19 0 -69 -44 -69 -60 0 -20 -34 -70 -47 -70 -9 0 -13 17
-13 53 0 67 28 98 96 106 5 0 19 -6 30 -14z"/>
<path d="M3905 2869 c-119 -7 -187 -18 -335 -51 -52 -11 -124 -26 -160 -33
-36 -7 -81 -18 -100 -24 -19 -6 -50 -11 -68 -11 -43 0 -91 -28 -98 -57 -4 -14
2 -29 16 -43 24 -24 34 -24 170 4 156 32 237 47 310 59 41 7 80 16 86 20 6 3
71 11 145 17 74 6 149 15 167 21 28 9 32 15 32 44 0 24 -7 39 -22 49 -12 9
-25 15 -28 14 -3 -1 -54 -5 -115 -9z"/>
<path d="M3745 2630 c-124 -15 -281 -38 -295 -44 -8 -3 -51 -7 -94 -10 -88 -4
-106 -16 -106 -68 0 -44 30 -50 172 -32 323 40 447 53 496 54 72 0 92 12 92
55 0 24 -6 38 -19 45 -22 11 -152 11 -246 0z"/>
<path d="M4857 2534 c-8 -8 -125 -32 -219 -44 -38 -5 -74 -12 -80 -17 -12 -7
-65 -16 -252 -43 -38 -5 -83 -14 -100 -20 -17 -5 -62 -15 -101 -21 -38 -6
-110 -17 -160 -24 -128 -20 -270 -42 -340 -54 -33 -6 -79 -11 -102 -11 -23 0
-52 -4 -65 -10 -13 -5 -70 -14 -128 -20 -146 -13 -283 -29 -360 -41 -65 -10
-188 -21 -475 -39 -252 -16 -378 -32 -397 -48 -23 -20 -23 -43 2 -70 18 -19
27 -21 127 -16 60 2 164 9 233 15 69 5 181 14 250 19 216 15 373 30 435 40 33
6 105 15 160 20 55 6 147 17 205 24 58 8 141 19 185 25 149 20 463 67 535 82
25 4 68 11 95 15 28 3 75 13 105 20 30 8 71 14 92 14 20 0 40 5 43 10 3 6 23
10 43 10 21 0 62 6 92 14 30 8 75 17 100 20 80 12 156 40 174 64 17 22 17 24
-1 55 -15 25 -27 33 -54 35 -19 2 -38 0 -42 -4z"/>
<path d="M5022 2425 c-20 -15 -22 -24 -22 -108 0 -55 6 -108 15 -132 18 -50
19 -85 3 -89 -7 -2 -38 -11 -68 -19 -87 -24 -151 -39 -200 -46 -25 -4 -52 -11
-60 -16 -8 -5 -40 -13 -70 -17 -56 -7 -115 -18 -231 -43 -37 -8 -86 -15 -109
-15 -23 0 -50 -5 -60 -10 -11 -6 -61 -14 -112 -20 -170 -16 -292 -31 -358 -41
-36 -6 -112 -14 -170 -19 -186 -16 -402 -38 -505 -51 -82 -10 -130 -10 -260 1
-203 17 -531 23 -555 10 -16 -9 -18 -28 -19 -220 -1 -175 1 -214 14 -233 8
-12 15 -31 15 -43 0 -12 7 -27 15 -34 8 -7 15 -22 15 -34 1 -43 40 -56 177
-62 86 -4 143 -2 173 6 25 7 72 15 106 19 71 7 89 19 98 64 6 26 9 29 16 16 8
-14 27 -16 127 -13 233 7 462 27 718 63 39 6 104 13 145 16 41 4 145 15 230
24 219 25 285 20 565 -40 109 -23 188 -21 260 5 22 8 54 16 70 16 17 1 53 14
80 30 28 16 71 40 97 52 72 35 97 98 63 158 -8 14 -14 50 -15 81 0 31 -7 76
-15 99 -8 23 -15 68 -15 99 -1 33 -7 64 -15 75 -22 29 -18 54 11 88 16 20 23
37 18 47 -4 9 -10 39 -14 66 -8 50 -25 101 -48 142 -7 12 -12 33 -12 48 0 29
-26 85 -39 85 -5 0 -15 2 -23 5 -7 3 -23 -2 -36 -10z m-491 -568 c-1 -12 -15
-9 -19 4 -3 6 1 10 8 8 6 -3 11 -8 11 -12z"/>
</g>
</svg>
