<?xml version="1.0" encoding="UTF-8"?>
<svg version="1.1" xmlns="http://www.w3.org/2000/svg" width="169" height="169">
<path d="M0 0 C55.77 0 111.54 0 169 0 C169 55.77 169 111.54 169 169 C113.23 169 57.46 169 0 169 C0 113.23 0 57.46 0 0 Z " fill="#FEFEFE" transform="translate(0,0)"/>
<path d="M0 0 C0 3.3 0 6.6 0 10 C-1.03386841 9.99214478 -1.03386841 9.99214478 -2.08862305 9.98413086 C-20.07200929 9.78755692 -20.07200929 9.78755692 -38 11 C-37.855625 12.03640625 -37.71125 13.0728125 -37.5625 14.140625 C-37.37485993 15.51039749 -37.1873677 16.88019023 -37 18.25 C-36.90460938 18.93191406 -36.80921875 19.61382812 -36.7109375 20.31640625 C-36.2654774 23.59371988 -36 26.68384153 -36 30 C-36.66 30 -37.32 30 -38 30 C-40.28062828 26.57905758 -40.21925007 25.31812778 -40.125 21.3125 C-40.10695312 20.31863281 -40.08890625 19.32476562 -40.0703125 18.30078125 C-40.04710937 17.54152344 -40.02390625 16.78226563 -40 16 C-40.99 15.67 -41.98 15.34 -43 15 C-42.67 14.34 -42.34 13.68 -42 13 C-49.48932645 13.91728062 -56.67541065 14.91409524 -63.81640625 17.4140625 C-66.28503266 18.07648461 -68.45528165 18.09838981 -71 18 C-71 18.66 -71 19.32 -71 20 C-71.66 20 -72.32 20 -73 20 C-72.6390625 20.68707031 -72.278125 21.37414062 -71.90625 22.08203125 C-71.4421875 22.98308594 -70.978125 23.88414063 -70.5 24.8125 C-69.80390625 26.15248047 -69.80390625 26.15248047 -69.09375 27.51953125 C-68 30 -68 30 -68 33 C-66.46279297 32.566875 -66.46279297 32.566875 -64.89453125 32.125 C-63.53394621 31.74966619 -62.17326392 31.37468476 -60.8125 31 C-60.13896484 30.80921875 -59.46542969 30.6184375 -58.77148438 30.421875 C-55.09444844 29.4174164 -51.8149818 28.76295259 -48 29 C-48 29.99 -48 30.98 -48 32 C-53.28 33.32 -58.56 34.64 -64 36 C-60.65681641 35.566875 -60.65681641 35.566875 -57.24609375 35.125 C-55.06841092 34.84595048 -52.8905404 34.56841227 -50.71264648 34.29101562 C-49.20821214 34.09858234 -47.70397533 33.90459777 -46.19995117 33.70898438 C-44.02834328 33.42682651 -41.85606781 33.15039965 -39.68359375 32.875 C-37.72764282 32.62363281 -37.72764282 32.62363281 -35.73217773 32.3671875 C-32.1262186 32.01241792 -28.6205184 31.93443317 -25 32 C-25.309375 30.6078125 -25.309375 30.6078125 -25.625 29.1875 C-26 26 -26 26 -24 23 C-23.34 23 -22.68 23 -22 23 C-22 22.34 -22 21.68 -22 21 C-22.66 21 -23.32 21 -24 21 C-24.125 18.625 -24.125 18.625 -24 16 C-22 14 -22 14 -19.5 13.75 C-17 14 -17 14 -15 16 C-14.95758277 18.33294775 -14.95907063 20.66702567 -15 23 C-14.505 24.485 -14.505 24.485 -14 26 C-13.01 26 -12.02 26 -11 26 C-11 26.99 -11 27.98 -11 29 C-9.02 28.67 -7.04 28.34 -5 28 C-4.79503906 26.92878906 -4.59007813 25.85757813 -4.37890625 24.75390625 C-4.10697291 23.35673149 -3.83482648 21.95959819 -3.5625 20.5625 C-3.36043945 19.50192383 -3.36043945 19.50192383 -3.15429688 18.41992188 C-2.11328125 13.11328125 -2.11328125 13.11328125 -1 12 C0.59391863 11.60224617 2.20088224 11.25604817 3.8125 10.9375 C4.68519531 10.76089844 5.55789062 10.58429687 6.45703125 10.40234375 C9 10 9 10 13 10 C13.88809097 13.80610417 14.1346183 17.34497067 14.125 21.25 C14.12886719 22.83554687 14.12886719 22.83554687 14.1328125 24.453125 C14 27 14 27 13 28 C11.15400312 28.39454223 9.29774178 28.74176866 7.4375 29.0625 C6.42558594 29.23910156 5.41367188 29.41570312 4.37109375 29.59765625 C3.58863281 29.73042969 2.80617188 29.86320312 2 30 C2.18175781 30.74161377 2.36351563 31.48322754 2.55078125 32.24731445 C3.37073898 35.60151974 4.18542934 38.95698258 5 42.3125 C5.28617187 43.47974609 5.57234375 44.64699219 5.8671875 45.84960938 C6.27324219 47.52700195 6.27324219 47.52700195 6.6875 49.23828125 C6.93886719 50.26993408 7.19023437 51.30158691 7.44921875 52.36450195 C8 55 8 55 8 58 C8.66 58 9.32 58 10 58 C13.61601216 63.57468542 13.30720059 68.60567654 13 75 C11.35 75 9.7 75 8 75 C8.33 81.27 8.66 87.54 9 94 C3.375 97.375 3.375 97.375 -0.8125 97.1875 C-1.60269531 97.16042969 -2.39289063 97.13335937 -3.20703125 97.10546875 C-3.79871094 97.07066406 -4.39039062 97.03585938 -5 97 C-6.90828622 92.30879638 -8.0882491 89.07800043 -8 84 C-8.70382813 84.12117188 -9.40765625 84.24234375 -10.1328125 84.3671875 C-23.49111135 86.63426172 -36.4240435 88.73826954 -50 88 C-49.98839844 88.85464844 -49.97679687 89.70929688 -49.96484375 90.58984375 C-49.95582031 91.69457031 -49.94679687 92.79929687 -49.9375 93.9375 C-49.92589844 95.03964844 -49.91429687 96.14179688 -49.90234375 97.27734375 C-50 100 -50 100 -51 101 C-53.18639453 101.07258946 -55.37500389 101.08373783 -57.5625 101.0625 C-58.76003906 101.05347656 -59.95757812 101.04445313 -61.19140625 101.03515625 C-62.58166016 101.01775391 -62.58166016 101.01775391 -64 101 C-65.90608098 97.78817851 -66.22266247 95.46117397 -66.125 91.75 C-66.10695313 90.85796875 -66.08890625 89.9659375 -66.0703125 89.046875 C-66.04710938 88.37140625 -66.02390625 87.6959375 -66 87 C-67.32 87 -68.64 87 -70 87 C-73.89457031 72.15195068 -72.0867298 56.15599955 -71 41 C-76.08303686 40.88679144 -76.08303686 40.88679144 -81 42 C-83.33299825 42.03954234 -85.66708189 42.04401732 -88 42 C-90.4008222 30.14594039 -90.4008222 30.14594039 -90 24 C-89 23 -89 23 -86.27734375 22.90234375 C-85.17519531 22.91394531 -84.07304688 22.92554687 -82.9375 22.9375 C-81.28041016 22.95103516 -81.28041016 22.95103516 -79.58984375 22.96484375 C-78.73519531 22.97644531 -77.88054687 22.98804687 -77 23 C-77.495 21.9275 -77.99 20.855 -78.5 19.75 C-79.88653911 16.74583192 -80 15.54065105 -80 12 C-76.67957917 8.58802345 -72.81384701 5.83999036 -69 3 C-68.34515625 2.49855469 -67.6903125 1.99710938 -67.015625 1.48046875 C-46.64550037 -12.71552519 -21.28187266 -9.54665565 0 0 Z " fill="#F9B82F" transform="translate(122,38)"/>
<path d="M0 0 C0 3.3 0 6.6 0 10 C-1.03386841 9.99214478 -1.03386841 9.99214478 -2.08862305 9.98413086 C-20.07200929 9.78755692 -20.07200929 9.78755692 -38 11 C-37.855625 12.03640625 -37.71125 13.0728125 -37.5625 14.140625 C-37.37485993 15.51039749 -37.1873677 16.88019023 -37 18.25 C-36.90460938 18.93191406 -36.80921875 19.61382812 -36.7109375 20.31640625 C-36.2654774 23.59371988 -36 26.68384153 -36 30 C-36.66 30 -37.32 30 -38 30 C-40.28062828 26.57905758 -40.21925007 25.31812778 -40.125 21.3125 C-40.10695312 20.31863281 -40.08890625 19.32476562 -40.0703125 18.30078125 C-40.04710937 17.54152344 -40.02390625 16.78226563 -40 16 C-40.99 15.67 -41.98 15.34 -43 15 C-42.67 14.34 -42.34 13.68 -42 13 C-49.48932645 13.91728062 -56.67541065 14.91409524 -63.81640625 17.4140625 C-66.28503266 18.07648461 -68.45528165 18.09838981 -71 18 C-71 18.66 -71 19.32 -71 20 C-71.66 20 -72.32 20 -73 20 C-72.6390625 20.68707031 -72.278125 21.37414062 -71.90625 22.08203125 C-71.4421875 22.98308594 -70.978125 23.88414063 -70.5 24.8125 C-69.80390625 26.15248047 -69.80390625 26.15248047 -69.09375 27.51953125 C-68 30 -68 30 -68 33 C-66.46279297 32.566875 -66.46279297 32.566875 -64.89453125 32.125 C-63.53394621 31.74966619 -62.17326392 31.37468476 -60.8125 31 C-60.13896484 30.80921875 -59.46542969 30.6184375 -58.77148438 30.421875 C-55.09444844 29.4174164 -51.8149818 28.76295259 -48 29 C-48 29.99 -48 30.98 -48 32 C-53.28 33.32 -58.56 34.64 -64 36 C-60.65681641 35.566875 -60.65681641 35.566875 -57.24609375 35.125 C-55.06841092 34.84595048 -52.8905404 34.56841227 -50.71264648 34.29101562 C-49.20821214 34.09858234 -47.70397533 33.90459777 -46.19995117 33.70898438 C-44.02834328 33.42682651 -41.85606781 33.15039965 -39.68359375 32.875 C-37.72764282 32.62363281 -37.72764282 32.62363281 -35.73217773 32.3671875 C-32.1262186 32.01241792 -28.6205184 31.93443317 -25 32 C-25.309375 30.6078125 -25.309375 30.6078125 -25.625 29.1875 C-26 26 -26 26 -24 23 C-23.34 23 -22.68 23 -22 23 C-22 22.34 -22 21.68 -22 21 C-22.66 21 -23.32 21 -24 21 C-24.125 18.625 -24.125 18.625 -24 16 C-22 14 -22 14 -19.5 13.75 C-17 14 -17 14 -15 16 C-14.95758277 18.33294775 -14.95907063 20.66702567 -15 23 C-14.505 24.485 -14.505 24.485 -14 26 C-13.01 26 -12.02 26 -11 26 C-11 26.99 -11 27.98 -11 29 C-9.68 29 -8.36 29 -7 29 C-7 29.66 -7 30.32 -7 31 C-18.64932009 33.14043405 -30.25156702 35.17445504 -42.04223633 36.34667969 C-46.64264192 36.81289069 -51.08422967 37.49697828 -55.56640625 38.6328125 C-59.33689181 39.20171401 -63.18683723 39 -67 39 C-67 50.22 -67 61.44 -67 73 C-68.98 73.495 -68.98 73.495 -71 74 C-75.10691385 65.78617231 -71.61934224 50.13529807 -71 41 C-76.08303686 40.88679144 -76.08303686 40.88679144 -81 42 C-83.33299825 42.03954234 -85.66708189 42.04401732 -88 42 C-90.4008222 30.14594039 -90.4008222 30.14594039 -90 24 C-89 23 -89 23 -86.27734375 22.90234375 C-85.17519531 22.91394531 -84.07304688 22.92554687 -82.9375 22.9375 C-81.28041016 22.95103516 -81.28041016 22.95103516 -79.58984375 22.96484375 C-78.73519531 22.97644531 -77.88054687 22.98804687 -77 23 C-77.495 21.9275 -77.99 20.855 -78.5 19.75 C-79.88653911 16.74583192 -80 15.54065105 -80 12 C-76.67957917 8.58802345 -72.81384701 5.83999036 -69 3 C-68.34515625 2.49855469 -67.6903125 1.99710938 -67.015625 1.48046875 C-46.64550037 -12.71552519 -21.28187266 -9.54665565 0 0 Z " fill="#E9B857" transform="translate(122,38)"/>
<path d="M0 0 C0.88809097 3.80610417 1.1346183 7.34497067 1.125 11.25 C1.12886719 12.83554687 1.12886719 12.83554687 1.1328125 14.453125 C1 17 1 17 0 18 C-1.84599688 18.39454223 -3.70225822 18.74176866 -5.5625 19.0625 C-6.57441406 19.23910156 -7.58632812 19.41570312 -8.62890625 19.59765625 C-9.41136719 19.73042969 -10.19382812 19.86320312 -11 20 C-10.81824219 20.74161377 -10.63648437 21.48322754 -10.44921875 22.24731445 C-9.62926102 25.60151974 -8.81457066 28.95698258 -8 32.3125 C-7.71382813 33.47974609 -7.42765625 34.64699219 -7.1328125 35.84960938 C-6.72675781 37.52700195 -6.72675781 37.52700195 -6.3125 39.23828125 C-6.06113281 40.26993408 -5.80976563 41.30158691 -5.55078125 42.36450195 C-5 45 -5 45 -5 48 C-4.34 48 -3.68 48 -3 48 C0.61601216 53.57468542 0.30720059 58.60567654 0 65 C-1.65 65 -3.3 65 -5 65 C-4.67 71.27 -4.34 77.54 -4 84 C-9.625 87.375 -9.625 87.375 -13.8125 87.1875 C-14.60269531 87.16042969 -15.39289063 87.13335937 -16.20703125 87.10546875 C-16.79871094 87.07066406 -17.39039062 87.03585938 -18 87 C-19.90828622 82.30879638 -21.0882491 79.07800043 -21 74 C-21.70382813 74.12117188 -22.40765625 74.24234375 -23.1328125 74.3671875 C-36.49111135 76.63426172 -49.4240435 78.73826954 -63 78 C-62.98839844 78.85464844 -62.97679688 79.70929688 -62.96484375 80.58984375 C-62.95582031 81.69457031 -62.94679688 82.79929687 -62.9375 83.9375 C-62.92589844 85.03964844 -62.91429688 86.14179688 -62.90234375 87.27734375 C-63 90 -63 90 -64 91 C-66.18639453 91.07258946 -68.37500389 91.08373783 -70.5625 91.0625 C-72.35880859 91.04896484 -72.35880859 91.04896484 -74.19140625 91.03515625 C-75.58166016 91.01775391 -75.58166016 91.01775391 -77 91 C-79 87 -79 87 -79 76 C-68.44 75.67 -57.88 75.34 -47 75 C-47 74.34 -47 73.68 -47 73 C-45.71867187 72.81824219 -44.43734375 72.63648437 -43.1171875 72.44921875 C-37.73805033 71.67481477 -32.36764206 70.85021047 -27 70 C-26.24460938 69.88253418 -25.48921875 69.76506836 -24.7109375 69.64404297 C-22.76124092 69.33050328 -20.8177316 68.97914378 -18.875 68.625 C-17.77929688 68.43164062 -16.68359375 68.23828125 -15.5546875 68.0390625 C-12.76010117 67.22234297 -12.76010117 67.22234297 -11.6328125 64.3984375 C-11.42398438 63.60695312 -11.21515625 62.81546875 -11 62 C-13.58620832 62.42401788 -16.16810219 62.8635714 -18.75 63.3125 C-19.84441406 63.48942383 -19.84441406 63.48942383 -20.9609375 63.66992188 C-25.16588494 64.41534438 -27.6240753 65.28720337 -31 68 C-33.73713695 68.37460816 -36.22025584 68.13898721 -39 68 C-39 67.34 -39 66.68 -39 66 C-39.76441406 66.09087891 -40.52882812 66.18175781 -41.31640625 66.27539062 C-69.39867648 69.57024182 -69.39867648 69.57024182 -83 69 C-83 68.34 -83 67.68 -83 67 C-79.66398566 66.050797 -76.41230168 65.6929929 -72.9609375 65.38671875 C-71.75219971 65.27497314 -70.54346191 65.16322754 -69.2980957 65.0480957 C-68.00347412 64.92909912 -66.70885254 64.81010254 -65.375 64.6875 C-51.90966575 63.41966877 -38.59164931 61.56388952 -25.2512207 59.31958008 C-23 59 -23 59 -20 59 C-20 58.34 -20 57.68 -20 57 C-14.375 55.875 -14.375 55.875 -11 57 C-11 56.34 -11 55.68 -11 55 C-10.34 54.67 -9.68 54.34 -9 54 C-9 52.68 -9 51.36 -9 50 C-12.11785113 50.64644661 -12.11785113 50.64644661 -13 53 C-16.795878 54.5183512 -20.9877022 54.06687163 -25 54 C-26.07310858 50.72814447 -25.89263102 48.57052408 -25.0625 45.25 C-24.86785156 44.45078125 -24.67320313 43.6515625 -24.47265625 42.828125 C-24.23869141 41.92320313 -24.23869141 41.92320313 -24 41 C-30.70154643 34.90768506 -37.31104981 34.70443901 -45.9375 34.875 C-46.81212891 34.88402344 -47.68675781 34.89304688 -48.58789062 34.90234375 C-50.72538064 34.9257043 -52.86272786 34.96156753 -55 35 C-51.15659319 32.4377288 -47.95740292 32.65838449 -43.5 32.6875 C-42.69643066 32.68878906 -41.89286133 32.69007812 -41.06494141 32.69140625 C-34.70979062 32.79347653 -28.98483105 33.78534886 -23 36 C-23 36.99 -23 37.98 -23 39 C-21.741875 38.814375 -20.48375 38.62875 -19.1875 38.4375 C-16.17255732 37.99267239 -14.99531539 38.00156154 -12 39 C-12.33 38.01 -12.66 37.02 -13 36 C-13.14403348 34.66636297 -13.24590423 33.32781954 -13.31640625 31.98828125 C-13.35830078 31.23095703 -13.40019531 30.47363281 -13.44335938 29.69335938 C-13.48267578 28.90767578 -13.52199219 28.12199219 -13.5625 27.3125 C-13.60568359 26.51521484 -13.64886719 25.71792969 -13.69335938 24.89648438 C-13.79927368 22.93118553 -13.90012551 20.96561504 -14 19 C-12.02 18.34 -10.04 17.68 -8 17 C-8 12.71 -8 8.42 -8 4 C-9.32 4 -10.64 4 -12 4 C-12.99 9.28 -13.98 14.56 -15 20 C-15.99 20 -16.98 20 -18 20 C-17.5256323 17.18661171 -17.04575381 14.37436287 -16.5625 11.5625 C-16.36043945 10.35883789 -16.36043945 10.35883789 -16.15429688 9.13085938 C-15.11328125 3.11328125 -15.11328125 3.11328125 -14 2 C-12.40608137 1.60224617 -10.79911776 1.25604817 -9.1875 0.9375 C-8.31480469 0.76089844 -7.44210938 0.58429687 -6.54296875 0.40234375 C-4 0 -4 0 0 0 Z " fill="#DBB04D" transform="translate(135,48)"/>
<path d="M0 0 C0.33 0 0.66 0 1 0 C1 2.31 1 4.62 1 7 C2.65 7.33 4.3 7.66 6 8 C6 8.33 6 8.66 6 9 C3.69 9.33 1.38 9.66 -1 10 C-1.20496094 11.07121094 -1.40992187 12.14242187 -1.62109375 13.24609375 C-1.89302709 14.64326851 -2.16517352 16.04040181 -2.4375 17.4375 C-2.63956055 18.49807617 -2.63956055 18.49807617 -2.84570312 19.58007812 C-3.88671875 24.88671875 -3.88671875 24.88671875 -5 26 C-6.99958364 26.04080783 -9.00045254 26.04254356 -11 26 C-11 25.01 -11 24.02 -11 23 C-11.99 23 -12.98 23 -14 23 C-15.61726841 19.46222536 -16.10748399 16.86942352 -16 13 C-17.06645115 11.70366379 -17.06645115 11.70366379 -19.5625 11.9375 C-20.366875 11.958125 -21.17125 11.97875 -22 12 C-22.66 13.98 -23.32 15.96 -24 18 C-23.34 18 -22.68 18 -22 18 C-22 18.66 -22 19.32 -22 20 C-22.495 20.4125 -22.99 20.825 -23.5 21.25 C-25.65079137 23.37510892 -25.65079137 23.37510892 -25 29 C-38.53 30.65 -52.06 32.3 -66 34 C-65.67 33.34 -65.34 32.68 -65 32 C-62.19921875 31.1484375 -62.19921875 31.1484375 -58.6875 30.375 C-56.96080078 29.98441406 -56.96080078 29.98441406 -55.19921875 29.5859375 C-52 29 -52 29 -48 29 C-48 28.01 -48 27.02 -48 26 C-49.10859375 26.28875 -50.2171875 26.5775 -51.359375 26.875 C-52.82285243 27.25025062 -54.28639768 27.62523678 -55.75 28 C-56.47960937 28.19078125 -57.20921875 28.3815625 -57.9609375 28.578125 C-61.44571646 29.46515964 -64.38123722 30 -68 30 C-68.83790789 28.21046815 -69.67019396 26.41830305 -70.5 24.625 C-71.19609375 23.12839844 -71.19609375 23.12839844 -71.90625 21.6015625 C-73 19 -73 19 -73 17 C-72.34 17 -71.68 17 -71 17 C-71 16.34 -71 15.68 -71 15 C-51.03189066 9.25968109 -51.03189066 9.25968109 -42 10 C-42 10.66 -42 11.32 -42 12 C-41.34 12.33 -40.68 12.66 -40 13 C-39.62109375 15.3984375 -39.62109375 15.3984375 -39.4375 18.375 C-39.23313343 21.53642575 -39.00622117 23.98133648 -38 27 C-37.34 27 -36.68 27 -36 27 C-36.144375 25.96359375 -36.28875 24.9271875 -36.4375 23.859375 C-36.62514007 22.48960251 -36.8126323 21.11980977 -37 19.75 C-37.09539062 19.06808594 -37.19078125 18.38617188 -37.2890625 17.68359375 C-37.7345226 14.40628012 -38 11.31615847 -38 8 C-25.29039575 5.59953512 -12.82480726 5.31014304 0 7 C0 4.69 0 2.38 0 0 Z " fill="#F9F9F8" transform="translate(122,41)"/>
<path d="M0 0 C1.32 0 2.64 0 4 0 C4.495 6.435 4.495 6.435 5 13 C1 15 1 15 -2 15 C-1.7834375 16.78857422 -1.7834375 16.78857422 -1.5625 18.61328125 C-1.37490776 20.17967646 -1.18741283 21.74608332 -1 23.3125 C-0.90460938 24.09818359 -0.80921875 24.88386719 -0.7109375 25.69335938 C-0.62070313 26.45068359 -0.53046875 27.20800781 -0.4375 27.98828125 C-0.31181641 29.03302612 -0.31181641 29.03302612 -0.18359375 30.09887695 C0 32 0 32 0 35 C-3.63 35 -7.26 35 -11 35 C-11 34.01 -11 33.02 -11 32 C-12.79126452 31.66451233 -14.58302587 31.33167645 -16.375 31 C-17.37273437 30.814375 -18.37046875 30.62875 -19.3984375 30.4375 C-21.88903545 29.94472017 -21.88903545 29.94472017 -24 30 C-23.34 30.66 -22.68 31.32 -22 32 C-28.93 31.505 -28.93 31.505 -36 31 C-36 31.99 -36 32.98 -36 34 C-36.969375 34.12375 -37.93875 34.2475 -38.9375 34.375 C-39.948125 34.58125 -40.95875 34.7875 -42 35 C-42.33 35.66 -42.66 36.32 -43 37 C-43.99 37 -44.98 37 -46 37 C-46 37.66 -46 38.32 -46 39 C-45.34 39.33 -44.68 39.66 -44 40 C-44.99 40 -45.98 40 -47 40 C-47 39.34 -47 38.68 -47 38 C-49.31 38 -51.62 38 -54 38 C-54 38.66 -54 39.32 -54 40 C-53.34 40.33 -52.68 40.66 -52 41 C-49.88704744 44.16942884 -49.74749071 44.99629953 -49.8125 48.625 C-49.81894531 49.42164063 -49.82539062 50.21828125 -49.83203125 51.0390625 C-50 53 -50 53 -51 54 C-52.8056894 54.26085401 -54.62057806 54.45961049 -56.4375 54.625 C-57.42621094 54.72039062 -58.41492188 54.81578125 -59.43359375 54.9140625 C-62 55 -62 55 -64 54 C-64.66796875 51.53125 -64.66796875 51.53125 -65.1875 48.5 C-65.36667969 47.4996875 -65.54585937 46.499375 -65.73046875 45.46875 C-65.81941406 44.6540625 -65.90835938 43.839375 -66 43 C-65.505 42.505 -65.505 42.505 -65 42 C-65.66 41.67 -66.32 41.34 -67 41 C-66.67 40.01 -66.34 39.02 -66 38 C-65.34 38 -64.68 38 -64 38 C-64 37.01 -64 36.02 -64 35 C-63.34 35.33 -62.68 35.66 -62 36 C-62.33 36.66 -62.66 37.32 -63 38 C-61.02 38 -59.04 38 -57 38 C-57.66 36.35 -58.32 34.7 -59 33 C-57.68 33 -56.36 33 -55 33 C-55 32.34 -55 31.68 -55 31 C-51.91190305 29.23537317 -50.76687864 29 -47 29 C-47 28.01 -47 27.02 -47 26 C-48.32 25.67 -49.64 25.34 -51 25 C-50.01 24.67 -49.02 24.34 -48 24 C-48.33 23.34 -48.66 22.68 -49 22 C-47.90498169 21.87939209 -47.90498169 21.87939209 -46.7878418 21.75634766 C-43.42060964 21.38318668 -40.05406555 21.00412595 -36.6875 20.625 C-35.53958984 20.49867187 -34.39167969 20.37234375 -33.20898438 20.2421875 C-26.85178325 19.52182477 -20.58949298 18.64071799 -14.31567383 17.38037109 C-12 17 -12 17 -8 17 C-8 16.34 -8 15.68 -8 15 C-5.525 15.495 -5.525 15.495 -3 16 C-2.92652344 15.02160156 -2.92652344 15.02160156 -2.8515625 14.0234375 C-2.42757771 9.06720147 -1.84334427 4.66980549 0 0 Z " fill="#E8B43D" transform="translate(123,52)"/>
<path d="M0 0 C2.5 0.25 2.5 0.25 4.5 2.25 C4.54241723 4.58294775 4.54092937 6.91702567 4.5 9.25 C4.995 10.735 4.995 10.735 5.5 12.25 C6.49 12.25 7.48 12.25 8.5 12.25 C8.5 13.24 8.5 14.23 8.5 15.25 C9.82 15.25 11.14 15.25 12.5 15.25 C12.5 15.91 12.5 16.57 12.5 17.25 C0.85067991 19.39043405 -10.75156702 21.42445504 -22.54223633 22.59667969 C-27.14264192 23.06289069 -31.58422967 23.74697828 -36.06640625 24.8828125 C-39.83689181 25.45171401 -43.68683723 25.25 -47.5 25.25 C-47.5 36.47 -47.5 47.69 -47.5 59.25 C-49.48 59.745 -49.48 59.745 -51.5 60.25 C-55.60691385 52.03617231 -52.11934224 36.38529807 -51.5 27.25 C-56.58303686 27.13679144 -56.58303686 27.13679144 -61.5 28.25 C-63.83299825 28.28954234 -66.16708189 28.29401732 -68.5 28.25 C-70.9008222 16.39594039 -70.9008222 16.39594039 -70.5 10.25 C-69.5 9.25 -69.5 9.25 -66.77734375 9.15234375 C-65.12412109 9.16974609 -65.12412109 9.16974609 -63.4375 9.1875 C-61.78041016 9.20103516 -61.78041016 9.20103516 -60.08984375 9.21484375 C-59.23519531 9.22644531 -58.38054688 9.23804688 -57.5 9.25 C-57.5 6.94 -57.5 4.63 -57.5 2.25 C-56.84 2.25 -56.18 2.25 -55.5 2.25 C-55.17 3.24 -54.84 4.23 -54.5 5.25 C-53.51 5.58 -52.52 5.91 -51.5 6.25 C-52.16 6.25 -52.82 6.25 -53.5 6.25 C-53.1390625 6.93707031 -52.778125 7.62414063 -52.40625 8.33203125 C-51.9421875 9.23308594 -51.478125 10.13414063 -51 11.0625 C-50.5359375 11.95582031 -50.071875 12.84914063 -49.59375 13.76953125 C-48.5 16.25 -48.5 16.25 -48.5 19.25 C-46.96279297 18.816875 -46.96279297 18.816875 -45.39453125 18.375 C-44.03394621 17.99966619 -42.67326392 17.62468476 -41.3125 17.25 C-40.63896484 17.05921875 -39.96542969 16.8684375 -39.27148438 16.671875 C-35.59444844 15.6674164 -32.3149818 15.01295259 -28.5 15.25 C-28.5 16.24 -28.5 17.23 -28.5 18.25 C-33.78 19.57 -39.06 20.89 -44.5 22.25 C-41.15681641 21.816875 -41.15681641 21.816875 -37.74609375 21.375 C-35.56841092 21.09595048 -33.3905404 20.81841227 -31.21264648 20.54101562 C-29.70821214 20.34858234 -28.20397533 20.15459777 -26.69995117 19.95898438 C-24.52834328 19.67682651 -22.35606781 19.40039965 -20.18359375 19.125 C-18.87962646 18.95742187 -17.57565918 18.78984375 -16.23217773 18.6171875 C-12.6262186 18.26241792 -9.1205184 18.18443317 -5.5 18.25 C-5.70625 17.321875 -5.9125 16.39375 -6.125 15.4375 C-6.5 12.25 -6.5 12.25 -4.5 9.25 C-3.84 9.25 -3.18 9.25 -2.5 9.25 C-2.5 8.59 -2.5 7.93 -2.5 7.25 C-3.16 7.25 -3.82 7.25 -4.5 7.25 C-4.625 4.875 -4.625 4.875 -4.5 2.25 C-2.5 0.25 -2.5 0.25 0 0 Z " fill="#D3AA4C" transform="translate(102.5,51.75)"/>
<path d="M0 0 C0.66 0 1.32 0 2 0 C4.44698897 4.80445395 4.43620061 9.53791706 4.625 14.8125 C4.66367188 15.69615234 4.70234375 16.57980469 4.7421875 17.49023438 C4.83600784 19.65982972 4.91907326 21.82988547 5 24 C1.56538307 26.32431447 -0.65478581 27.37366631 -4.8125 27.1875 C-5.99779297 27.14689453 -5.99779297 27.14689453 -7.20703125 27.10546875 C-7.79871094 27.07066406 -8.39039063 27.03585938 -9 27 C-10.90828622 22.30879638 -12.0882491 19.07800043 -12 14 C-12.70382813 14.12117188 -13.40765625 14.24234375 -14.1328125 14.3671875 C-27.49111135 16.63426172 -40.4240435 18.73826954 -54 18 C-53.98839844 18.85464844 -53.97679688 19.70929688 -53.96484375 20.58984375 C-53.95582031 21.69457031 -53.94679688 22.79929688 -53.9375 23.9375 C-53.92589844 25.03964844 -53.91429688 26.14179688 -53.90234375 27.27734375 C-54 30 -54 30 -55 31 C-57.18639453 31.07258946 -59.37500389 31.08373783 -61.5625 31.0625 C-63.35880859 31.04896484 -63.35880859 31.04896484 -65.19140625 31.03515625 C-66.11824219 31.02355469 -67.04507813 31.01195312 -68 31 C-70.02558881 27.65060119 -70.21738987 25.13037449 -70.125 21.25 C-70.09792969 19.77273437 -70.09792969 19.77273437 -70.0703125 18.265625 C-70.03550781 17.14414063 -70.03550781 17.14414063 -70 16 C-69.33806641 15.98541748 -68.67613281 15.97083496 -67.99414062 15.95581055 C-45.3984873 15.4056927 -22.95657605 13.64902199 -1 8 C-0.67 5.36 -0.34 2.72 0 0 Z " fill="#221C1B" transform="translate(126,108)"/>
<path d="M0 0 C0 -0.66 0 -1.32 0 -2 C0.66 -2 1.32 -2 2 -2 C2 1.3 2 4.6 2 8 C-0.31 8 -2.62 8 -5 8 C-5 7.01 -5 6.02 -5 5 C-13.96978475 4.76186412 -22.57657743 5.17892511 -31.47558594 6.28417969 C-37.66911782 7.02977218 -43.76120242 7.22019286 -50 7 C-50.28617187 6.19175781 -50.57234375 5.38351563 -50.8671875 4.55078125 C-51.24101563 3.70902344 -51.61484375 2.86726563 -52 2 C-54.04105639 1.11306697 -54.04105639 1.11306697 -56 1 C-51.84313815 -5.08395071 -47.02443231 -6.24833504 -40.00585938 -7.67041016 C-25.95208813 -9.97963498 -12.36981807 -6.92709812 0 0 Z " fill="#EABE5B" transform="translate(120,40)"/>
<path d="M0 0 C5.7169022 -0.23228948 11.31666749 0.01106332 17 0.6875 C18.093125 0.81511719 19.18625 0.94273438 20.3125 1.07421875 C23 2 23 2 24.4296875 4.29296875 C25.04050562 7.19226297 24.91267369 8.79520933 24.125 11.625 C23.40623047 14.2908161 23 16.20633845 23 19 C26.96 18.67 30.92 18.34 35 18 C35.495 16.515 35.495 16.515 36 15 C36.99 15 37.98 15 39 15 C39.495 18.465 39.495 18.465 40 22 C39.505 21.01 39.505 21.01 39 20 C38.34 20 37.68 20 37 20 C37 20.66 37 21.32 37 22 C34.03 22 31.06 22 28 22 C28 22.66 28 23.32 28 24 C23.93631321 24.77403558 20.13574827 25.0984702 16 25 C16 24.34 16 23.68 16 23 C15.34 23 14.68 23 14 23 C14 22.01 14 21.02 14 20 C4.595 20.495 4.595 20.495 -5 21 C-5 21.99 -5 22.98 -5 24 C-3.68 24.33 -2.36 24.66 -1 25 C-2.65 25.33 -4.3 25.66 -6 26 C-6.66 24.02 -7.32 22.04 -8 20 C-0.34458305 18.0921453 7.1177798 16.51599184 15 16 C15 14.35 15 12.7 15 11 C15.99 11 16.98 11 18 11 C18 10.01 18 9.02 18 8 C14.66495276 8.25184671 11.3325765 8.52996514 8 8.8125 C7.06542969 8.88275391 6.13085938 8.95300781 5.16796875 9.02539062 C-0.73504846 9.54138863 -5.55242422 10.65522977 -11 13 C-11 12.01 -11 11.02 -11 10 C-10.34 9.67 -9.68 9.34 -9 9 C-9.33 8.01 -9.66 7.02 -10 6 C-9.01 5.34 -8.02 4.68 -7 4 C-7 3.67 -7 3.34 -7 3 C-4.69 3 -2.38 3 0 3 C0 2.01 0 1.02 0 0 Z " fill="#F4BA37" transform="translate(87,83)"/>
<path d="M0 0 C1.32 0 2.64 0 4 0 C4.495 6.435 4.495 6.435 5 13 C1 15 1 15 -2 15 C-1.855625 16.19238281 -1.71125 17.38476562 -1.5625 18.61328125 C-1.37490776 20.17967646 -1.18741283 21.74608332 -1 23.3125 C-0.90460938 24.09818359 -0.80921875 24.88386719 -0.7109375 25.69335938 C-0.62070313 26.45068359 -0.53046875 27.20800781 -0.4375 27.98828125 C-0.35371094 28.68477783 -0.26992187 29.38127441 -0.18359375 30.09887695 C0 32 0 32 0 35 C-3.63 35 -7.26 35 -11 35 C-10.67 33.02 -10.34 31.04 -10 29 C-16.26081185 25.6875421 -21.93319779 25.46467292 -28.9375 25.3125 C-30.00291016 25.27833984 -31.06832031 25.24417969 -32.16601562 25.20898438 C-34.77723846 25.12701774 -37.38814721 25.05770113 -40 25 C-39.67 24.34 -39.34 23.68 -39 23 C-37.26586914 22.52929688 -37.26586914 22.52929688 -35.03515625 22.21875 C-34.23529297 22.09886719 -33.43542969 21.97898437 -32.61132812 21.85546875 C-31.77021484 21.73816406 -30.92910156 21.62085937 -30.0625 21.5 C-28.40647506 21.26797803 -26.75144333 21.02871935 -25.09765625 20.78125 C-24.36039307 20.67876953 -23.62312988 20.57628906 -22.86352539 20.47070312 C-20.76946619 20.11107106 -20.76946619 20.11107106 -19 18 C-16.3984375 17.5859375 -16.3984375 17.5859375 -13.375 17.375 C-12.37210938 17.30023438 -11.36921875 17.22546875 -10.3359375 17.1484375 C-9.17964844 17.07496094 -9.17964844 17.07496094 -8 17 C-8 16.34 -8 15.68 -8 15 C-5.525 15.495 -5.525 15.495 -3 16 C-2.95101562 15.34773438 -2.90203125 14.69546875 -2.8515625 14.0234375 C-2.42757771 9.06720147 -1.84334427 4.66980549 0 0 Z " fill="#F8BA2F" transform="translate(123,52)"/>
<path d="M0 0 C-0.33 1.98 -0.66 3.96 -1 6 C-11.50555103 8.44055843 -21.9816126 10.40845366 -32.6875 11.75 C-33.68974609 11.87737549 -34.69199219 12.00475098 -35.72460938 12.13598633 C-42.87677573 12.99163198 -49.92264119 13.7693397 -57 12 C-57 12.33 -57 12.66 -57 13 C-61.29 13 -65.58 13 -70 13 C-70 11.35 -70 9.7 -70 8 C-69.01193359 7.91435791 -68.02386719 7.82871582 -67.00585938 7.74047852 C-63.30813502 7.41956895 -59.6105867 7.09666806 -55.91308594 6.77319336 C-54.31873158 6.63398577 -52.7243312 6.49530413 -51.12988281 6.35717773 C-48.82604604 6.15750227 -46.52238641 5.9558786 -44.21875 5.75390625 C-43.16512268 5.66321617 -43.16512268 5.66321617 -42.09020996 5.57069397 C-37.37686539 5.15496458 -32.69231828 4.60954134 -28 4 C-28 4.66 -28 5.32 -28 6 C-25.36 5.67 -22.72 5.34 -20 5 C-20 4.34 -20 3.68 -20 3 C-17.60530271 2.49395076 -15.20948283 1.99500483 -12.8125 1.5 C-12.13896484 1.35691406 -11.46542969 1.21382813 -10.77148438 1.06640625 C-7.12490207 0.31930158 -3.72351043 -0.17352282 0 0 Z " fill="#F9BB33" transform="translate(124,110)"/>
<path d="M0 0 C0.88809097 3.80610417 1.1346183 7.34497067 1.125 11.25 C1.12886719 12.83554687 1.12886719 12.83554687 1.1328125 14.453125 C1 17 1 17 0 18 C-1.84599688 18.39454223 -3.70225822 18.74176866 -5.5625 19.0625 C-7.08037109 19.32740234 -7.08037109 19.32740234 -8.62890625 19.59765625 C-9.80259766 19.79681641 -9.80259766 19.79681641 -11 20 C-10.79636841 20.86612915 -10.79636841 20.86612915 -10.58862305 21.74975586 C-8.26178787 31.69222508 -5.95588331 41.62808101 -4.1875 51.6875 C-4.00223755 52.73635376 -4.00223755 52.73635376 -3.81323242 53.80639648 C-3.34083117 56.58223042 -3 59.17794707 -3 62 C-3.66 62 -4.32 62 -5 62 C-6.88040664 56.86857921 -7.92426187 51.72572324 -8.9375 46.375 C-10.23746476 39.651783 -11.65592759 33.01396367 -13.484375 26.41015625 C-14.02711548 23.8732557 -14.09254032 21.58650195 -14 19 C-12.02 18.34 -10.04 17.68 -8 17 C-8 12.71 -8 8.42 -8 4 C-9.32 4 -10.64 4 -12 4 C-12.99 9.28 -13.98 14.56 -15 20 C-15.99 20 -16.98 20 -18 20 C-17.5256323 17.18661171 -17.04575381 14.37436287 -16.5625 11.5625 C-16.42779297 10.76005859 -16.29308594 9.95761719 -16.15429688 9.13085938 C-15.11328125 3.11328125 -15.11328125 3.11328125 -14 2 C-12.40608137 1.60224617 -10.79911776 1.25604817 -9.1875 0.9375 C-8.31480469 0.76089844 -7.44210938 0.58429687 -6.54296875 0.40234375 C-4 0 -4 0 0 0 Z " fill="#1C181B" transform="translate(135,48)"/>
<path d="M0 0 C0 0.33 0 0.66 0 1 C-1.65 1.33 -3.3 1.66 -5 2 C-4.67 3.32 -4.34 4.64 -4 6 C-6.64 6.66 -9.28 7.32 -12 8 C-12 8.66 -12 9.32 -12 10 C-13.32 10 -14.64 10 -16 10 C-15.34 11.65 -14.68 13.3 -14 15 C-15.98 15 -17.96 15 -20 15 C-20.33 14.01 -20.66 13.02 -21 12 C-21 12.99 -21 13.98 -21 15 C-22.5 16.6875 -22.5 16.6875 -24 18 C-23.01 18.33 -22.02 18.66 -21 19 C-21.185625 19.495 -21.37125 19.99 -21.5625 20.5 C-22.20139296 24.15081689 -21.54905291 27.33964724 -21 31 C-17.37 31 -13.74 31 -10 31 C-10 31.66 -10 32.32 -10 33 C-12.31 33 -14.62 33 -17 33 C-17 33.66 -17 34.32 -17 35 C-17.66 35 -18.32 35 -19 35 C-18.67 35.99 -18.34 36.98 -18 38 C-20.64 38 -23.28 38 -26 38 C-25.67 26.12 -25.34 14.24 -25 2 C-8 0 -8 0 0 0 Z " fill="#F9B935" transform="translate(80,75)"/>
<path d="M0 0 C2.5 0.25 2.5 0.25 4.5 2.25 C4.54241723 4.58294775 4.54092937 6.91702567 4.5 9.25 C4.995 10.735 4.995 10.735 5.5 12.25 C6.49 12.25 7.48 12.25 8.5 12.25 C8.5 13.24 8.5 14.23 8.5 15.25 C9.82 15.25 11.14 15.25 12.5 15.25 C12.5 15.91 12.5 16.57 12.5 17.25 C0.85198835 19.39019364 -10.748806 21.42230289 -22.5378418 22.59667969 C-27.25942934 23.07594061 -31.81305609 23.84826028 -36.44140625 24.875 C-39.50488067 25.43305227 -42.39526895 25.38498831 -45.5 25.25 C-45.005 23.765 -45.005 23.765 -44.5 22.25 C-40.07159069 21.67469313 -35.64247819 21.10523983 -31.21264648 20.54101562 C-29.70821214 20.34858234 -28.20397533 20.15459777 -26.69995117 19.95898438 C-24.52834328 19.67682651 -22.35606781 19.40039965 -20.18359375 19.125 C-18.87962646 18.95742187 -17.57565918 18.78984375 -16.23217773 18.6171875 C-12.6262186 18.26241792 -9.1205184 18.18443317 -5.5 18.25 C-5.70625 17.321875 -5.9125 16.39375 -6.125 15.4375 C-6.5 12.25 -6.5 12.25 -4.5 9.25 C-3.84 9.25 -3.18 9.25 -2.5 9.25 C-2.5 8.59 -2.5 7.93 -2.5 7.25 C-3.16 7.25 -3.82 7.25 -4.5 7.25 C-4.625 4.875 -4.625 4.875 -4.5 2.25 C-2.5 0.25 -2.5 0.25 0 0 Z " fill="#2A2729" transform="translate(102.5,51.75)"/>
<path d="M0 0 C0 0.99 0 1.98 0 3 C2.64 3.33 5.28 3.66 8 4 C4.8343254 6.11044973 3.19494043 6.46159262 -0.50390625 7 C-1.62571289 7.1640332 -2.74751953 7.32806641 -3.90332031 7.49707031 C-5.11084961 7.66303711 -6.31837891 7.82900391 -7.5625 8 C-8.79709961 8.17370117 -10.03169922 8.34740234 -11.30371094 8.52636719 C-23.82908949 10.22380598 -36.38799728 11.22007223 -49 12 C-49 12.66 -49 13.32 -49 14 C-48.03513672 13.91697632 -48.03513672 13.91697632 -47.05078125 13.83227539 C-34.37392612 12.74610761 -21.70408887 11.70993438 -9 11 C-12.95930857 13.5399338 -17.24661779 13.68438083 -21.8125 14.125 C-22.64821533 14.20991699 -23.48393066 14.29483398 -24.3449707 14.38232422 C-31.91560684 15.09744465 -39.40085353 15.20446134 -47 15 C-47 16.65 -47 18.3 -47 20 C-43.535 19.505 -43.535 19.505 -40 19 C-40 18.67 -40 18.34 -40 18 C-38.54176788 17.9729957 -37.08339325 17.95360213 -35.625 17.9375 C-34.81289062 17.92589844 -34.00078125 17.91429688 -33.1640625 17.90234375 C-31 18 -31 18 -29 19 C-26.28239892 19.07181821 -23.59140612 19.09299506 -20.875 19.0625 C-19.74384766 19.05573242 -19.74384766 19.05573242 -18.58984375 19.04882812 C-16.72652873 19.03703499 -14.86325445 19.01909942 -13 19 C-13 19.33 -13 19.66 -13 20 C-17.40900502 20.82927069 -21.66603007 21.18231714 -26.1484375 21.31640625 C-26.80582916 21.33718735 -27.46322083 21.35796844 -28.14053345 21.37937927 C-30.21859362 21.44420753 -32.29676856 21.50344564 -34.375 21.5625 C-35.79298011 21.60574888 -37.21094907 21.64936509 -38.62890625 21.69335938 C-42.0858188 21.79981918 -45.54285706 21.90126984 -49 22 C-49.33951619 20.43883181 -49.67132544 18.87598662 -50 17.3125 C-50.185625 16.44238281 -50.37125 15.57226562 -50.5625 14.67578125 C-50.98972047 12.06287036 -51.07616201 9.64186962 -51 7 C-50.67 7.66 -50.34 8.32 -50 9 C-41.30673654 9.45843382 -32.93041003 8.64613946 -24.3125 7.5625 C-22.69891602 7.360802 -22.69891602 7.360802 -21.05273438 7.1550293 C-15.86578624 6.64110701 -15.86578624 6.64110701 -11 5 C-13.64 4.67 -16.28 4.34 -19 4 C-19 3.01 -19 2.02 -19 1 C-12.65758005 -0.15316726 -6.43311296 -0.09507063 0 0 Z " fill="#DCB660" transform="translate(101,103)"/>
<path d="M0 0 C0.33 0 0.66 0 1 0 C1 2.31 1 4.62 1 7 C3.475 7.495 3.475 7.495 6 8 C6 8.33 6 8.66 6 9 C3.69 9.33 1.38 9.66 -1 10 C-1.20496094 11.07121094 -1.40992187 12.14242187 -1.62109375 13.24609375 C-1.89302709 14.64326851 -2.16517352 16.04040181 -2.4375 17.4375 C-2.57220703 18.14455078 -2.70691406 18.85160156 -2.84570312 19.58007812 C-3.88671875 24.88671875 -3.88671875 24.88671875 -5 26 C-6.99958364 26.04080783 -9.00045254 26.04254356 -11 26 C-11 25.01 -11 24.02 -11 23 C-11.99 23 -12.98 23 -14 23 C-15.61726841 19.46222536 -16.10748399 16.86942352 -16 13 C-17.12534105 11.64381501 -17.12534105 11.64381501 -20.0625 11.9375 C-21.5165625 11.9684375 -21.5165625 11.9684375 -23 12 C-23 10.68 -23 9.36 -23 8 C-23.66 7.34 -24.32 6.68 -25 6 C-16.58807963 5.89905696 -8.35600408 5.89897358 0 7 C0 4.69 0 2.38 0 0 Z " fill="#F6F7F4" transform="translate(122,41)"/>
<path d="M0 0 C1.75570312 0.01353516 1.75570312 0.01353516 3.546875 0.02734375 C4.43890625 0.03894531 5.3309375 0.05054688 6.25 0.0625 C6.58 0.7225 6.91 1.3825 7.25 2.0625 C8.89363134 2.78409424 10.56050386 3.45601421 12.25 4.0625 C11.92 5.7125 11.59 7.3625 11.25 9.0625 C7.52153308 9.56781187 3.79212492 10.0658133 0.0625 10.5625 C-0.99259766 10.70558594 -2.04769531 10.84867188 -3.13476562 10.99609375 C-4.15634766 11.13144531 -5.17792969 11.26679687 -6.23046875 11.40625 C-7.16785889 11.53193359 -8.10524902 11.65761719 -9.07104492 11.78710938 C-11.65317808 12.05254692 -14.15650989 12.11186064 -16.75 12.0625 C-16.9975 11.258125 -17.245 10.45375 -17.5 9.625 C-18.47238859 6.891419 -18.47238859 6.891419 -20.875 6.25 C-21.49375 6.188125 -22.1125 6.12625 -22.75 6.0625 C-20.625 4 -20.625 4 -17.75 2.0625 C-14.4375 2.3125 -14.4375 2.3125 -11.75 3.0625 C-11.42 2.4025 -11.09 1.7425 -10.75 1.0625 C-7.2520607 -0.26171988 -3.69552923 -0.03695529 0 0 Z " fill="#FAB930" transform="translate(86.75,34.9375)"/>
<path d="M0 0 C1.093125 -0.00257812 2.18625 -0.00515625 3.3125 -0.0078125 C6 0.125 6 0.125 8 1.125 C8 2.115 8 3.105 8 4.125 C6.85144531 4.11339844 5.70289063 4.10179687 4.51953125 4.08984375 C-4.71728006 4.02604536 -13.79982246 4.21473508 -23 5.125 C-22.855625 6.16140625 -22.71125 7.1978125 -22.5625 8.265625 C-22.37485993 9.63539749 -22.1873677 11.00519023 -22 12.375 C-21.90460938 13.05691406 -21.80921875 13.73882812 -21.7109375 14.44140625 C-21.2654774 17.71871988 -21 20.80884153 -21 24.125 C-21.66 24.125 -22.32 24.125 -23 24.125 C-25.28062828 20.70405758 -25.21925007 19.44312778 -25.125 15.4375 C-25.10695313 14.44363281 -25.08890625 13.44976562 -25.0703125 12.42578125 C-25.04710938 11.66652344 -25.02390625 10.90726563 -25 10.125 C-25.99 9.795 -26.98 9.465 -28 9.125 C-27.67 8.465 -27.34 7.805 -27 7.125 C-34.54926568 8.04962188 -41.79314533 9.08838715 -49.01171875 11.5390625 C-51 12.125 -51 12.125 -54 12.125 C-53.67 11.135 -53.34 10.145 -53 9.125 C-37.92103133 1.86168725 -16.56749754 -0.03982572 0 0 Z " fill="#3C2C1A" transform="translate(107,43.875)"/>
<path d="M0 0 C0 0.99 0 1.98 0 3 C-0.99 3 -1.98 3 -3 3 C-3 4.65 -3 6.3 -3 8 C-6.26988299 8.67138621 -9.54105049 9.33629263 -12.8125 10 C-13.74126953 10.19078125 -14.67003906 10.3815625 -15.62695312 10.578125 C-16.51962891 10.75859375 -17.41230469 10.9390625 -18.33203125 11.125 C-19.15421143 11.29257813 -19.9763916 11.46015625 -20.82348633 11.6328125 C-23 12 -23 12 -26 12 C-25.67 10.35 -25.34 8.7 -25 7 C-25.99 6.67 -26.98 6.34 -28 6 C-27.67 5.01 -27.34 4.02 -27 3 C-19.04199159 -0.87146355 -8.66862926 -0.14447715 0 0 Z " fill="#D7AF45" transform="translate(105,91)"/>
<path d="M0 0 C1.21236328 0.01353516 1.21236328 0.01353516 2.44921875 0.02734375 C3.37154297 0.04474609 3.37154297 0.04474609 4.3125 0.0625 C3.9825 1.0525 3.6525 2.0425 3.3125 3.0625 C-45.40340942 11.97136774 -45.40340942 11.97136774 -67.6875 11.0625 C-67.6875 10.4025 -67.6875 9.7425 -67.6875 9.0625 C-64.35148566 8.113297 -61.09980168 7.7554929 -57.6484375 7.44921875 C-56.43969971 7.33755371 -55.23096191 7.22588867 -53.9855957 7.11083984 C-52.04366333 6.93222412 -52.04366333 6.93222412 -50.0625 6.75 C-39.65959374 5.76526929 -29.32887476 4.54491553 -19 2.9375 C-17.90284668 2.76694092 -16.80569336 2.59638184 -15.67529297 2.4206543 C-0.53045644 -0.00768777 -0.53045644 -0.00768777 0 0 Z " fill="#46270B" transform="translate(119.6875,105.9375)"/>
<path d="M0 0 C2.14042862 1.42535269 2.7891238 2.80697319 3.7421875 5.16015625 C3.08734375 4.83402344 2.4325 4.50789063 1.7578125 4.171875 C-13.78733526 -3.27135253 -29.22235991 -5.53140523 -45.66552734 0.03588867 C-54.77621915 3.32491851 -61.85762513 7.27803384 -69.2265625 13.5859375 C-71.2578125 15.16015625 -71.2578125 15.16015625 -73.2578125 15.16015625 C-71.22089641 10.56226314 -68.18057397 8.17646288 -64.2578125 5.16015625 C-63.69320312 4.72445312 -63.12859375 4.28875 -62.546875 3.83984375 C-44.12753701 -8.94912891 -19.89209288 -8.41588545 0 0 Z " fill="#3B2508" transform="translate(117.2578125,35.83984375)"/>
<path d="M0 0 C1.51400391 0.01740234 1.51400391 0.01740234 3.05859375 0.03515625 C4.07050781 0.04417969 5.08242188 0.05320313 6.125 0.0625 C7.29869141 0.07990234 7.29869141 0.07990234 8.49609375 0.09765625 C7.50609375 0.42765625 6.51609375 0.75765625 5.49609375 1.09765625 C5.64046875 1.8453125 5.78484375 2.59296875 5.93359375 3.36328125 C6.11921875 4.348125 6.30484375 5.33296875 6.49609375 6.34765625 C6.68171875 7.3221875 6.86734375 8.29671875 7.05859375 9.30078125 C7.49609375 12.09765625 7.49609375 12.09765625 7.49609375 16.09765625 C10.46609375 16.09765625 13.43609375 16.09765625 16.49609375 16.09765625 C16.49609375 16.42765625 16.49609375 16.75765625 16.49609375 17.09765625 C10.42793853 18.32664971 4.69714187 19.37325839 -1.50390625 19.09765625 C-3.90472845 7.24359664 -3.90472845 7.24359664 -3.50390625 1.09765625 C-2.50390625 0.09765625 -2.50390625 0.09765625 0 0 Z " fill="#242222" transform="translate(35.50390625,60.90234375)"/>
<path d="M0 0 C7.85546636 -0.31918373 15.26940505 0.64290496 23 2 C23.5625 3.9375 23.5625 3.9375 24 6 C23 7 23 7 21.1015625 7.06030273 C20.28429687 7.03911377 19.46703125 7.0179248 18.625 6.99609375 C12.07025622 6.9295659 5.65905673 7.65844778 -0.84765625 8.37695312 C-2.19150391 8.51713867 -2.19150391 8.51713867 -3.5625 8.66015625 C-4.36816406 8.74918213 -5.17382812 8.83820801 -6.00390625 8.92993164 C-8 9 -8 9 -10 8 C-10 7.34 -10 6.68 -10 6 C-9.01 5.34 -8.02 4.68 -7 4 C-7 3.67 -7 3.34 -7 3 C-4.69 3 -2.38 3 0 3 C0 2.01 0 1.02 0 0 Z " fill="#FAB930" transform="translate(87,83)"/>
<path d="M0 0 C-0.66 2.97 -1.32 5.94 -2 9 C-2.495 7.02 -2.495 7.02 -3 5 C-3.99 5.33 -4.98 5.66 -6 6 C-6.33 7.65 -6.66 9.3 -7 11 C-8.98 11 -10.96 11 -13 11 C-12.67 11.99 -12.34 12.98 -12 14 C-17.94 14.33 -23.88 14.66 -30 15 C-30 15.99 -30 16.98 -30 18 C-28.68 18.33 -27.36 18.66 -26 19 C-27.65 19.33 -29.3 19.66 -31 20 C-31.66 18.02 -32.32 16.04 -33 14 C-25.34458305 12.0921453 -17.8822202 10.51599184 -10 10 C-10 8.35 -10 6.7 -10 5 C-9.01 5 -8.02 5 -7 5 C-7 4.01 -7 3.02 -7 2 C-10.33504724 2.25184671 -13.6674235 2.52996514 -17 2.8125 C-17.93457031 2.88275391 -18.86914062 2.95300781 -19.83203125 3.02539062 C-25.73504846 3.54138863 -30.55242422 4.65522977 -36 7 C-36 6.01 -36 5.02 -36 4 C-23.93313723 0.59817167 -12.49462047 -0.19938224 0 0 Z " fill="#E9B852" transform="translate(112,89)"/>
<path d="M0 0 C1.32 0 2.64 0 4 0 C4.33 4.29 4.66 8.58 5 13 C1 15 1 15 -2 15 C-1.7525 15.928125 -1.7525 15.928125 -1.5 16.875 C-0.79924683 21.25470729 -0.92265749 25.57428989 -1 30 C-1.99 30.33 -2.98 30.66 -4 31 C-6.22923777 26.67265609 -5.92470553 23.71599818 -5 19 C-9.62 19 -14.24 19 -19 19 C-19 18.67 -19 18.34 -19 18 C-15.37 17.67 -11.74 17.34 -8 17 C-8 16.34 -8 15.68 -8 15 C-6.35 15.33 -4.7 15.66 -3 16 C-2.95101562 15.34773438 -2.90203125 14.69546875 -2.8515625 14.0234375 C-2.42757771 9.06720147 -1.84334427 4.66980549 0 0 Z " fill="#F6BA3F" transform="translate(123,52)"/>
<path d="M0 0 C0.66 0 1.32 0 2 0 C2.33773437 1.22976562 2.67546875 2.45953125 3.0234375 3.7265625 C3.47387489 5.35939802 3.92440038 6.99220924 4.375 8.625 C4.59671875 9.43324219 4.8184375 10.24148437 5.046875 11.07421875 C6.25021847 15.42749072 7.52135525 19.72989508 9 24 C5.25838897 24 1.71046443 23.48661829 -2 23 C-2.66 18.05 -3.32 13.1 -4 8 C-3.01 7.67 -2.02 7.34 -1 7 C-0.67 4.69 -0.34 2.38 0 0 Z " fill="#3E3225" transform="translate(45,54)"/>
<path d="M0 0 C0.33 0 0.66 0 1 0 C1 2.31 1 4.62 1 7 C3.475 7.495 3.475 7.495 6 8 C6 8.33 6 8.66 6 9 C3.69 9.33 1.38 9.66 -1 10 C-1.20496094 11.07121094 -1.40992187 12.14242187 -1.62109375 13.24609375 C-1.89302709 14.64326851 -2.16517352 16.04040181 -2.4375 17.4375 C-2.57220703 18.14455078 -2.70691406 18.85160156 -2.84570312 19.58007812 C-3.88671875 24.88671875 -3.88671875 24.88671875 -5 26 C-6.99958364 26.04080783 -9.00045254 26.04254356 -11 26 C-11 25.01 -11 24.02 -11 23 C-11.99 23 -12.98 23 -14 23 C-15.125 20.75 -15.125 20.75 -16 18 C-15.125 15.6875 -15.125 15.6875 -14 14 C-13.01 15.98 -12.02 17.96 -11 20 C-10.34 19.67 -9.68 19.34 -9 19 C-8.34444881 16.47266765 -8.34444881 16.47266765 -8 14 C-7.34 14 -6.68 14 -6 14 C-6 13.01 -6 12.02 -6 11 C-5.34 11 -4.68 11 -4 11 C-4.33 9.68 -4.66 8.36 -5 7 C-3.35 7 -1.7 7 0 7 C0 4.69 0 2.38 0 0 Z " fill="#F2EEED" transform="translate(122,41)"/>
<path d="M0 0 C2 2 2 2 2.3125 4.9375 C2 8 2 8 0.9375 9.875 C-2.14071911 11.66235303 -4.52906068 11.43386742 -8 11 C-10.41022129 8.900775 -10.90282867 7.56914635 -11.4375 4.4375 C-11 2 -11 2 -9.4375 0.125 C-5.97560081 -1.47279963 -3.64504476 -0.87751077 0 0 Z " fill="#301A0F" transform="translate(69,94)"/>
<path d="M0 0 C1.9375 1.0625 1.9375 1.0625 3 3 C2.66666667 9.33333333 2.66666667 9.33333333 0 12 C-3.4375 12.375 -3.4375 12.375 -7 12 C-9 10.375 -9 10.375 -10 8 C-9.875 4.875 -9.875 4.875 -9 2 C-5.53076119 -0.31282587 -4.07794425 -0.42478586 0 0 Z " fill="#2E1D0C" transform="translate(120,88)"/>
<path d="M0 0 C-3.51886956 1.95297261 -7.15269051 2.97882238 -11 4.125 C-18.64852653 6.53382262 -24.56918714 10.17436649 -31 15 C-32.15435547 15.86238281 -32.15435547 15.86238281 -33.33203125 16.7421875 C-33.88246094 17.15726563 -34.43289062 17.57234375 -35 18 C-35.33 16.68 -35.66 15.36 -36 14 C-35.34 14 -34.68 14 -34 14 C-33.67 13.34 -33.34 12.68 -33 12 C-32.34 12 -31.68 12 -31 12 C-31.33 11.01 -31.66 10.02 -32 9 C-31.34 9 -30.68 9 -30 9 C-29.67 8.01 -29.34 7.02 -29 6 C-27.2578125 5.12109375 -27.2578125 5.12109375 -25.125 4.4375 C-22.29073539 3.51191912 -20.54841174 2.69894116 -18 1 C-12.08345489 -0.11394988 -6.0006252 -0.11112269 0 0 Z " fill="#F4F7E8" transform="translate(80,30)"/>
<path d="M0 0 C-0.59950296 3.68266103 -1.24758891 7.34543185 -2 11 C-3.65 11.33 -5.3 11.66 -7 12 C-7.33 9.36 -7.66 6.72 -8 4 C-8.81082031 4.144375 -9.62164062 4.28875 -10.45703125 4.4375 C-17.71955124 5.65496552 -24.64012428 6.2654865 -32 6 C-32 5.67 -32 5.34 -32 5 C-28.08641574 4.28344971 -24.17202369 3.5715076 -20.25683594 2.86376953 C-18.92587836 2.62251323 -17.59514559 2.38001315 -16.26464844 2.13623047 C-14.3489079 1.78544091 -12.43227474 1.43953732 -10.515625 1.09375 C-9.36352539 0.88427734 -8.21142578 0.67480469 -7.02441406 0.45898438 C-4 0 -4 0 0 0 Z " fill="#241D19" transform="translate(122,118)"/>
<path d="M0 0 C0.66 0.66 1.32 1.32 2 2 C1.34 2 0.68 2 0 2 C0.20363159 2.86612915 0.20363159 2.86612915 0.41137695 3.74975586 C2.73821213 13.69222508 5.04411669 23.62808101 6.8125 33.6875 C6.99776245 34.73635376 6.99776245 34.73635376 7.18676758 35.80639648 C7.65916883 38.58223042 8 41.17794707 8 44 C7.34 44 6.68 44 6 44 C4.11959336 38.86857921 3.07573813 33.72572324 2.0625 28.375 C0.76253524 21.651783 -0.65592759 15.01396367 -2.484375 8.41015625 C-3.02711548 5.8732557 -3.09254032 3.58650195 -3 1 C-2.01 0.67 -1.02 0.34 0 0 Z " fill="#463012" transform="translate(124,66)"/>
<path d="M0 0 C0 0.99 0 1.98 0 3 C2.64 3.33 5.28 3.66 8 4 C4.38367728 6.41088181 1.14354682 6.7442331 -3.0625 7.25 C-3.79533203 7.353125 -4.52816406 7.45625 -5.28320312 7.5625 C-7.17964265 7.79933726 -9.0910157 7.9086014 -11 8 C-11.66 7.34 -12.32 6.68 -13 6 C-12.34 5.67 -11.68 5.34 -11 5 C-13.64 4.67 -16.28 4.34 -19 4 C-19 3.01 -19 2.02 -19 1 C-12.65758005 -0.15316726 -6.43311296 -0.09507063 0 0 Z " fill="#E7B344" transform="translate(101,103)"/>
<path d="M0 0 C0.33 0 0.66 0 1 0 C1 11.22 1 22.44 1 34 C0.01 34 -0.98 34 -2 34 C-5.76045195 26.47909611 -3.14319104 12.17489439 -2 4 C-0.9609375 1.6015625 -0.9609375 1.6015625 0 0 Z " fill="#2B2B27" transform="translate(53,78)"/>
<path d="M0 0 C0.69867188 0.00515625 1.39734375 0.0103125 2.1171875 0.015625 C2.82875 0.01691406 3.5403125 0.01820312 4.2734375 0.01953125 C10.7035224 0.13476575 16.61283388 1.37787612 22.7421875 3.328125 C21.8671875 10.203125 21.8671875 10.203125 20.7421875 11.328125 C18.40921317 11.36905437 16.07513525 11.37054223 13.7421875 11.328125 C13.0821875 9.348125 12.4221875 7.368125 11.7421875 5.328125 C12.7321875 4.998125 13.7221875 4.668125 14.7421875 4.328125 C14.7421875 3.668125 14.7421875 3.008125 14.7421875 2.328125 C7.4821875 2.328125 0.2221875 2.328125 -7.2578125 2.328125 C-4.80126292 -0.12842458 -3.36115934 0.04631519 0 0 Z " fill="#C8A44F" transform="translate(87.2578125,31.671875)"/>
<path d="M0 0 C0.6875 2.0625 0.6875 2.0625 1 4 C3.31 4.33 5.62 4.66 8 5 C8 5.33 8 5.66 8 6 C-7.74487472 9.62870159 -7.74487472 9.62870159 -15 8 C-14.67 6.35 -14.34 4.7 -14 3 C-12.02 3.495 -12.02 3.495 -10 4 C-9.5875 3.360625 -9.175 2.72125 -8.75 2.0625 C-5.9292529 -1.26195194 -4.05086207 -1.35028736 0 0 Z " fill="#DCB449" transform="translate(69,42)"/>
<path d="M0 0 C-0.73524902 0.08040527 -1.47049805 0.16081055 -2.22802734 0.24365234 C-5.61087039 0.61621683 -8.99292096 0.99556503 -12.375 1.375 C-13.53128906 1.50132813 -14.68757813 1.62765625 -15.87890625 1.7578125 C-21.95769666 2.44468147 -27.9166025 3.27069486 -33.88867188 4.60742188 C-36.97429735 5.18115982 -39.87095323 5.13604551 -43 5 C-42.67 4.01 -42.34 3.02 -42 2 C-37.57159069 1.42469313 -33.14247819 0.85523983 -28.71264648 0.29101562 C-27.20821214 0.09858234 -25.70397533 -0.09540223 -24.19995117 -0.29101562 C-22.02834328 -0.57317349 -19.85606781 -0.84960035 -17.68359375 -1.125 C-15.72764282 -1.37636719 -15.72764282 -1.37636719 -13.73217773 -1.6328125 C-3.90018811 -2.60012541 -3.90018811 -2.60012541 0 0 Z " fill="#352412" transform="translate(100,72)"/>
<path d="M0 0 C1.40572266 -0.01063477 1.40572266 -0.01063477 2.83984375 -0.02148438 C8.85252284 0.03317634 13.37691503 0.99893761 18.875 3.4375 C18.875 4.0975 18.875 4.7575 18.875 5.4375 C17.99714844 5.2209375 17.99714844 5.2209375 17.1015625 5 C4.66581845 2.31119048 -8.13841112 1.44420556 -19.7421875 7.24609375 C-21.89586894 8.32293447 -23.77650468 8.96233932 -26.125 9.4375 C-19.32529975 1.2778597 -10.18833708 -0.21902805 0 0 Z " fill="#4D2C07" transform="translate(93.125,78.5625)"/>
<path d="M0 0 C-0.33 0.99 -0.66 1.98 -1 3 C-4.76820947 3.68207811 -8.53989 4.3427354 -12.3125 5 C-13.36501953 5.19078125 -14.41753906 5.3815625 -15.50195312 5.578125 C-22.4073147 6.76797192 -28.99624277 7.25122457 -36 7 C-36 6.67 -36 6.34 -36 6 C-34.02 6 -32.04 6 -30 6 C-30 5.34 -30 4.68 -30 4 C-26.69025988 3.31912883 -23.37686003 2.6579816 -20.0625 2 C-19.13630859 1.80921875 -18.21011719 1.6184375 -17.25585938 1.421875 C-11.38627294 0.26855275 -5.98115802 -0.19630467 0 0 Z " fill="#341F03" transform="translate(124,106)"/>
<path d="M0 0 C0.66 0 1.32 0 2 0 C4.54100004 3.52880568 5.6300462 6.84780884 6.5625 11.0625 C7.4401224 15.16275821 7.4401224 15.16275821 9.08203125 18.98046875 C10.3607952 21.79374943 10.19175112 24.17944847 10.125 27.25 C10.10695312 28.32765625 10.08890625 29.4053125 10.0703125 30.515625 C10.04710937 31.33546875 10.02390625 32.1553125 10 33 C10.66 33 11.32 33 12 33 C11.34 34.32 10.68 35.64 10 37 C8.35 36.67 6.7 36.34 5 36 C4.67 36.99 4.34 37.98 4 39 C4 37.35 4 35.7 4 34 C5.65 34 7.3 34 9 34 C8.42697721 25.31963046 8.42697721 25.31963046 6 17 C5.34 17 4.68 17 4 17 C3.33191847 14.35451646 2.66546951 11.7086406 2 9.0625 C1.80921875 8.30775391 1.6184375 7.55300781 1.421875 6.77539062 C0 1.11328125 0 1.11328125 0 0 Z " fill="#FDF6CC" transform="translate(126,79)"/>
<path d="M0 0 C2.39073445 3.82517513 2.55966552 7.59665524 3 12 C1.02 12.99 1.02 12.99 -1 14 C-1.495 13.505 -1.495 13.505 -2 13 C-3.99952758 12.95653201 -6.00039988 12.960008 -8 13 C-11 13 -11 13 -13.25 11.125 C-19.21957691 6.51214511 -25.70504617 6.73200091 -32.9375 6.875 C-33.81212891 6.88402344 -34.68675781 6.89304687 -35.58789062 6.90234375 C-37.72538064 6.9257043 -39.86272786 6.96156753 -42 7 C-38.15659319 4.4377288 -34.95740292 4.65838449 -30.5 4.6875 C-29.69643066 4.68878906 -28.89286133 4.69007812 -28.06494141 4.69140625 C-21.70979062 4.79347653 -15.98483105 5.78534886 -10 8 C-10 8.99 -10 9.98 -10 11 C-8.741875 10.814375 -7.48375 10.62875 -6.1875 10.4375 C-3.17255732 9.99267239 -1.99531539 10.00156154 1 11 C0.505 9.515 0.505 9.515 0 8 C-0.12781786 5.32605036 -0.04391871 2.67904143 0 0 Z " fill="#DBAC4F" transform="translate(122,76)"/>
<path d="M0 0 C13.19794763 -0.39593843 27.50516727 -0.65463077 39 7 C40.2421875 9.12890625 40.2421875 9.12890625 41 11 C40.01773438 10.51080078 40.01773438 10.51080078 39.015625 10.01171875 C25.50249794 3.54145028 13.74261132 2.58362918 -1 3 C-0.67 2.01 -0.34 1.02 0 0 Z " fill="#392410" transform="translate(80,30)"/>
<path d="M0 0 C-0.33 1.98 -0.66 3.96 -1 6 C-3.99799992 6.67696772 -6.99788223 7.34175788 -10 8 C-10.83917969 8.19078125 -11.67835937 8.3815625 -12.54296875 8.578125 C-17.82072021 9.72368346 -22.6001862 10.1999931 -28 10 C-28 9.67 -28 9.34 -28 9 C-25.95888458 8.51849058 -23.91708068 8.03989917 -21.875 7.5625 C-20.73804687 7.29566406 -19.60109375 7.02882813 -18.4296875 6.75390625 C-15.29538696 6.0649313 -12.16982274 5.49618806 -9 5 C-9 4.34 -9 3.68 -9 3 C-11.31 3 -13.62 3 -16 3 C-16 2.67 -16 2.34 -16 2 C-14.27192682 1.66104344 -12.54248026 1.32908475 -10.8125 1 C-9.84957031 0.814375 -8.88664062 0.62875 -7.89453125 0.4375 C-5.2065794 0.03122388 -2.71228981 -0.07933572 0 0 Z " fill="#F7B835" transform="translate(124,110)"/>
<path d="M0 0 C1.25361328 0.00322266 2.50722656 0.00644531 3.79882812 0.00976562 C5.76432617 0.02233398 5.76432617 0.02233398 7.76953125 0.03515625 C9.10481606 0.04017308 10.44010266 0.04473566 11.77539062 0.04882812 C15.04431598 0.0606293 18.31315116 0.07709328 21.58203125 0.09765625 C21.58203125 0.75765625 21.58203125 1.41765625 21.58203125 2.09765625 C20.92203125 2.75765625 20.26203125 3.41765625 19.58203125 4.09765625 C19.25203125 4.75765625 18.92203125 5.41765625 18.58203125 6.09765625 C15.94203125 5.43765625 13.30203125 4.77765625 10.58203125 4.09765625 C11.24203125 3.43765625 11.90203125 2.77765625 12.58203125 2.09765625 C10.49876994 2.07056181 8.41540684 2.05121752 6.33203125 2.03515625 C5.171875 2.02355469 4.01171875 2.01195312 2.81640625 2 C0.17225997 2.07983533 -1.91622966 2.31121847 -4.41796875 3.09765625 C-4.08796875 3.75765625 -3.75796875 4.41765625 -3.41796875 5.09765625 C-5.06796875 4.76765625 -6.71796875 4.43765625 -8.41796875 4.09765625 C-8.74796875 4.75765625 -9.07796875 5.41765625 -9.41796875 6.09765625 C-9.41796875 5.43765625 -9.41796875 4.77765625 -9.41796875 4.09765625 C-10.40796875 3.76765625 -11.39796875 3.43765625 -12.41796875 3.09765625 C-8.06361627 0.1947546 -5.13106138 -0.02321747 0 0 Z " fill="#F6BD38" transform="translate(80.41796875,33.90234375)"/>
<path d="M0 0 C0 0.33 0 0.66 0 1 C-1.65 1.33 -3.3 1.66 -5 2 C-4.67 3.32 -4.34 4.64 -4 6 C-5.4562672 6.36256858 -6.91511185 6.71479793 -8.375 7.0625 C-9.59316406 7.35833984 -9.59316406 7.35833984 -10.8359375 7.66015625 C-13 8 -13 8 -15 7 C-15 6.01 -15 5.02 -15 4 C-16.65 3.67 -18.3 3.34 -20 3 C-20 3.66 -20 4.32 -20 5 C-20.99 4.67 -21.98 4.34 -23 4 C-23 3.34 -23 2.68 -23 2 C-7.25512528 -0.29612756 -7.25512528 -0.29612756 0 0 Z " fill="#F5BD42" transform="translate(80,75)"/>
<path d="M0 0 C1.17755859 -0.02126953 1.17755859 -0.02126953 2.37890625 -0.04296875 C4.4375 0.1875 4.4375 0.1875 6.4375 2.1875 C8.55045256 5.35692884 8.69000929 6.18379953 8.625 9.8125 C8.61855469 10.60914062 8.61210938 11.40578125 8.60546875 12.2265625 C8.4375 14.1875 8.4375 14.1875 7.4375 15.1875 C5.6318106 15.44835401 3.81692194 15.64711049 2 15.8125 C0.51693359 15.95558594 0.51693359 15.95558594 -0.99609375 16.1015625 C-3.5625 16.1875 -3.5625 16.1875 -5.5625 15.1875 C-5.2325 14.1975 -4.9025 13.2075 -4.5625 12.1875 C-4.2325 12.5175 -3.9025 12.8475 -3.5625 13.1875 C-2.04321962 13.25929964 -0.52082518 13.27142007 1 13.25 C1.82628906 13.24097656 2.65257813 13.23195313 3.50390625 13.22265625 C4.14199219 13.21105469 4.78007813 13.19945313 5.4375 13.1875 C5.499375 11.90875 5.56125 10.63 5.625 9.3125 C5.65980469 8.59320313 5.69460937 7.87390625 5.73046875 7.1328125 C5.63378906 6.49085937 5.53710938 5.84890625 5.4375 5.1875 C2.55150612 2.83131458 2.55150612 2.83131458 -1.0625 3.375 C-4.40604588 4.15118029 -5.57809292 4.50271395 -7.5625 7.1875 C-7.376875 6.56875 -7.19125 5.95 -7 5.3125 C-6.32563824 3.14589822 -6.32563824 3.14589822 -7.5625 1.1875 C-4.76092552 0.25364184 -2.90802197 0.02395405 0 0 Z " fill="#E4B552" transform="translate(64.5625,90.8125)"/>
<path d="M0 0 C0 0.99 0 1.98 0 3 C-1.52367187 3.07347656 -1.52367187 3.07347656 -3.078125 3.1484375 C-11.50693339 3.5930859 -19.69829465 4.38053854 -28 6 C-27.67 5.01 -27.34 4.02 -27 3 C-19.04199159 -0.87146355 -8.66862926 -0.14447715 0 0 Z " fill="#43260A" transform="translate(105,91)"/>
<path d="M0 0 C1.32 0 2.64 0 4 0 C4.33 4.29 4.66 8.58 5 13 C3.02 13.99 3.02 13.99 1 15 C0.01 14.67 -0.98 14.34 -2 14 C-1.85923685 12.0412957 -1.7122324 10.08303907 -1.5625 8.125 C-1.48128906 7.03445312 -1.40007812 5.94390625 -1.31640625 4.8203125 C-1 2 -1 2 0 0 Z " fill="#E1DBCC" transform="translate(123,52)"/>
<path d="M0 0 C0.66 0 1.32 0 2 0 C2.33 0.66 2.66 1.32 3 2 C3.99 2.33 4.98 2.66 6 3 C6.33 3.33 6.66 3.66 7 4 C7.66 3.34 8.32 2.68 9 2 C9.99 2 10.98 2 12 2 C12 2.66 12 3.32 12 4 C13.32 4 14.64 4 16 4 C16 4.66 16 5.32 16 6 C9.93184478 7.22899346 4.20104812 8.27560214 -2 8 C-2 7.01 -2 6.02 -2 5 C-1.34 5 -0.68 5 0 5 C0 3.35 0 1.7 0 0 Z " fill="#251C19" transform="translate(99,63)"/>
<path d="M0 0 C2.31 0.66 4.62 1.32 7 2 C7 2.99 7 3.98 7 5 C1.16706493 6.59201668 -4.48899279 7.52781525 -10.5 8.125 C-11.32242188 8.21136719 -12.14484375 8.29773438 -12.9921875 8.38671875 C-14.99426526 8.59623852 -16.99706397 8.79885044 -19 9 C-18.67 8.34 -18.34 7.68 -18 7 C-15.19921875 6.1484375 -15.19921875 6.1484375 -11.6875 5.375 C-10.53636719 5.11460938 -9.38523437 4.85421875 -8.19921875 4.5859375 C-5 4 -5 4 -1 4 C-0.67 2.68 -0.34 1.36 0 0 Z " fill="#E9E9EC" transform="translate(75,66)"/>
<path d="M0 0 C0.33659249 2.41625321 0.66938388 4.83292808 1 7.25 C1.09539062 7.93191406 1.19078125 8.61382812 1.2890625 9.31640625 C1.7345226 12.59371988 2 15.68384153 2 19 C1.34 19 0.68 19 0 19 C-2.28062828 15.57905758 -2.21925007 14.31812778 -2.125 10.3125 C-2.10695313 9.31863281 -2.08890625 8.32476562 -2.0703125 7.30078125 C-2.04710938 6.54152344 -2.02390625 5.78226563 -2 5 C-2.99 4.67 -3.98 4.34 -5 4 C-4.67 3.34 -4.34 2.68 -4 2 C-5.65 2 -7.3 2 -9 2 C-9 1.67 -9 1.34 -9 1 C-5.846632 0.29925156 -3.27275026 0 0 0 Z " fill="#CCCCCC" transform="translate(84,49)"/>
<path d="M0 0 C-1.65 0.33 -3.3 0.66 -5 1 C-4.67 1.99 -4.34 2.98 -4 4 C-9.94 4.33 -15.88 4.66 -22 5 C-22 5.99 -22 6.98 -22 8 C-20.68 8.33 -19.36 8.66 -18 9 C-19.65 9.33 -21.3 9.66 -23 10 C-23.66 8.02 -24.32 6.04 -25 4 C-18.78145212 2.53795896 -12.5596337 1.08540486 -6.3125 -0.25 C-5.13107422 -0.50523438 -5.13107422 -0.50523438 -3.92578125 -0.765625 C-2 -1 -2 -1 0 0 Z " fill="#E1B659" transform="translate(104,99)"/>
<path d="M0 0 C1.65 0.33 3.3 0.66 5 1 C5.88706471 4.1047265 6 6.73720471 6 10 C3.03 10 0.06 10 -3 10 C-3.66 8.35 -4.32 6.7 -5 5 C-3.35 4.67 -1.7 4.34 0 4 C0 2.68 0 1.36 0 0 Z " fill="#2B1F26" transform="translate(120,125)"/>
<path d="M0 0 C1.32 0 2.64 0 4 0 C4.99 4.29 5.98 8.58 7 13 C5.02 13 3.04 13 1 13 C-0.00496852 9.98509443 -0.10335303 7.95818308 -0.0625 4.8125 C-0.05347656 3.91144531 -0.04445312 3.01039062 -0.03515625 2.08203125 C-0.02355469 1.39496094 -0.01195312 0.70789062 0 0 Z " fill="#F0EEEF" transform="translate(42,63)"/>
<path d="M0 0 C0 0.66 0 1.32 0 2 C-1.18078125 2.18175781 -2.3615625 2.36351563 -3.578125 2.55078125 C-5.13551373 2.80409146 -6.69280023 3.05803077 -8.25 3.3125 C-9.02730469 3.43044922 -9.80460937 3.54839844 -10.60546875 3.66992188 C-14.94756899 4.39360525 -17.53927577 5.16849836 -21 8 C-23.73713695 8.37460816 -26.22025584 8.13898721 -29 8 C-29 7.34 -29 6.68 -29 6 C-29.66 5.67 -30.32 5.34 -31 5 C-26.90694512 4.28578586 -22.81351643 3.57375904 -18.71972656 2.86376953 C-17.32671796 2.62186011 -15.93381353 2.37935006 -14.54101562 2.13623047 C-12.54063474 1.78716116 -10.5398909 1.44024374 -8.5390625 1.09375 C-7.33459473 0.88427734 -6.13012695 0.67480469 -4.88916016 0.45898438 C-2 0 -2 0 0 0 Z " fill="#E6B650" transform="translate(125,108)"/>
<path d="M0 0 C1.30582031 -0.01417969 2.61164063 -0.02835937 3.95703125 -0.04296875 C7.1875 0.1875 7.1875 0.1875 9.1875 2.1875 C2.2575 1.6925 2.2575 1.6925 -4.8125 1.1875 C-4.8125 2.1775 -4.8125 3.1675 -4.8125 4.1875 C-6.13314453 4.26097656 -6.13314453 4.26097656 -7.48046875 4.3359375 C-9.22263672 4.44808594 -9.22263672 4.44808594 -11 4.5625 C-12.14855469 4.63210937 -13.29710938 4.70171875 -14.48046875 4.7734375 C-17.61209117 5.16259574 -19.96535809 5.8684851 -22.8125 7.1875 C-16.24561145 0.15154799 -9.37059345 0.04671283 0 0 Z " fill="#F8BA42" transform="translate(91.8125,81.8125)"/>
<path d="M0 0 C-5.56742228 2.24838207 -10.82641912 3.7498671 -16.75 4.6875 C-17.91764893 4.87856323 -17.91764893 4.87856323 -19.10888672 5.07348633 C-25.42671437 6.04480836 -31.6094644 6.33832247 -38 6 C-38 5.67 -38 5.34 -38 5 C-36.73027344 4.81824219 -35.46054688 4.63648437 -34.15234375 4.44921875 C-24.64815289 3.0667236 -15.24608476 1.5478656 -5.87109375 -0.546875 C-3 -1 -3 -1 0 0 Z " fill="#E2BA68" transform="translate(126,116)"/>
<path d="M0 0 C-3.52015212 2.1092564 -6.72447354 2.47749954 -10.77734375 2.88671875 C-11.42570694 2.95284866 -12.07407013 3.01897858 -12.74208069 3.08711243 C-14.10916384 3.22446934 -15.47664962 3.35786971 -16.84448242 3.48754883 C-18.9282395 3.68661532 -21.00985774 3.90196966 -23.09179688 4.11914062 C-24.42438236 4.25098212 -25.75706231 4.38187305 -27.08984375 4.51171875 C-28.29503662 4.62990967 -29.50022949 4.74810059 -30.74194336 4.86987305 C-33.73191624 4.98929272 -36.11608839 4.7397875 -39 4 C-39 3.34 -39 2.68 -39 2 C-37.90558594 2.03480469 -37.90558594 2.03480469 -36.7890625 2.0703125 C-29.22089878 2.20112027 -21.94635474 1.67697302 -14.44580078 0.71142578 C-9.58718864 0.10206262 -4.89806559 -0.0885526 0 0 Z " fill="#ECBA4E" transform="translate(90,110)"/>
<path d="M0 0 C0.99 0.103125 1.98 0.20625 3 0.3125 C5.1519437 3.54041555 5.20086443 4.59650809 5 8.3125 C3.25 9 3.25 9 1 9.3125 C-1.25 7.875 -1.25 7.875 -3 6.3125 C-3.99 6.8075 -3.99 6.8075 -5 7.3125 C-5.125 4.9375 -5.125 4.9375 -5 2.3125 C-3 0.3125 -3 0.3125 0 0 Z " fill="#242128" transform="translate(63,93.6875)"/>
<path d="M0 0 C0.99 0 1.98 0 3 0 C4.17661508 3.67692213 4.14475933 7.1638778 4 11 C3.67 11.33 3.34 11.66 3 12 C0.66055264 11.71269945 -1.6739143 11.38063221 -4 11 C-3.71125 10.28972656 -3.4225 9.57945312 -3.125 8.84765625 C-2.568125 7.46900391 -2.568125 7.46900391 -2 6.0625 C-1.62875 5.14597656 -1.2575 4.22945312 -0.875 3.28515625 C0.059598 1.25217842 0.059598 1.25217842 0 0 Z " fill="#322D2F" transform="translate(68,127)"/>
<path d="M0 0 C0 0.99 0 1.98 0 3 C-2.85440587 2.85803484 -5.70846196 2.71154174 -8.5625 2.5625 C-9.36236328 2.52318359 -10.16222656 2.48386719 -10.98632812 2.44335938 C-15.71371506 2.19251844 -20.32476901 1.74678186 -25 1 C-25 0.67 -25 0.34 -25 0 C-5.04504505 -2.52252252 -5.04504505 -2.52252252 0 0 Z " fill="#4E361C" transform="translate(115,45)"/>
<path d="M0 0 C-3.55648605 1.96589681 -7.25021605 3.05653472 -11.125 4.25 C-17.67005564 6.33378738 -23.3080662 9.10269944 -29 13 C-28.67 12.01 -28.34 11.02 -28 10 C-27.34 10 -26.68 10 -26 10 C-26 9.34 -26 8.68 -26 8 C-17.83274855 1.84108907 -10.11479027 -0.36124251 0 0 Z " fill="#D1BB79" transform="translate(80,30)"/>
<path d="M0 0 C0.66 0 1.32 0 2 0 C1.67 2.31 1.34 4.62 1 7 C3.97 7.495 3.97 7.495 7 8 C7 9.32 7 10.64 7 12 C8.32 12.33 9.64 12.66 11 13 C7.91190305 14.76462683 6.76687864 15 3 15 C2.16209211 13.21046815 1.32980604 11.41830305 0.5 9.625 C-0.19609375 8.12839844 -0.19609375 8.12839844 -0.90625 6.6015625 C-2 4 -2 4 -2 2 C-1.34 2 -0.68 2 0 2 C0 1.34 0 0.68 0 0 Z " fill="#F6F2E4" transform="translate(51,56)"/>
<path d="M0 0 C0 0.99 0 1.98 0 3 C-2.79104343 3.6693723 -5.58277023 4.33561092 -8.375 5 C-9.1690625 5.19078125 -9.963125 5.3815625 -10.78125 5.578125 C-11.54179688 5.75859375 -12.30234375 5.9390625 -13.0859375 6.125 C-13.7876709 6.29257813 -14.4894043 6.46015625 -15.21240234 6.6328125 C-17 7 -17 7 -19 7 C-18.67 6.01 -18.34 5.02 -18 4 C-15.234375 2.83203125 -15.234375 2.83203125 -11.75 1.8125 C-10.04070313 1.29623047 -10.04070313 1.29623047 -8.296875 0.76953125 C-5.37090487 0.08657377 -2.9823919 -0.16257399 0 0 Z " fill="#575352" transform="translate(74,67)"/>
<path d="M0 0 C0 0.66 0 1.32 0 2 C-3.26988299 2.67138621 -6.54105049 3.33629263 -9.8125 4 C-10.74126953 4.19078125 -11.67003906 4.3815625 -12.62695312 4.578125 C-13.9659668 4.84882812 -13.9659668 4.84882812 -15.33203125 5.125 C-16.15421143 5.29257813 -16.9763916 5.46015625 -17.82348633 5.6328125 C-20 6 -20 6 -23 6 C-22.67 5.01 -22.34 4.02 -22 3 C-19.45953542 2.49311395 -16.91791124 1.99433126 -14.375 1.5 C-13.66214844 1.35691406 -12.94929688 1.21382813 -12.21484375 1.06640625 C-8.07855065 0.26950574 -4.23566321 -0.16034056 0 0 Z " fill="#462F08" transform="translate(102,97)"/>
<path d="M0 0 C0 0.99 0 1.98 0 3 C-5.94 3.33 -11.88 3.66 -18 4 C-18 3.01 -18 2.02 -18 1 C-11.97403427 -0.0712828 -6.11090483 -0.09945415 0 0 Z " fill="#50350D" transform="translate(100,103)"/>
<path d="M0 0 C-5.61527443 1.70899657 -11.23457274 2.89430162 -17 4 C-13.7 4.33 -10.4 4.66 -7 5 C-7 5.33 -7 5.66 -7 6 C-11.95 6 -16.9 6 -22 6 C-21.67 4.68 -21.34 3.36 -21 2 C-4.46800502 -1.48933501 -4.46800502 -1.48933501 0 0 Z " fill="#EABB4E" transform="translate(103,72)"/>
<path d="M0 0 C-2 3 -2 3 -4.6015625 3.68359375 C-8.54575364 4.05081155 -12.41719137 4.10902035 -16.375 4.0625 C-17.11105469 4.05798828 -17.84710938 4.05347656 -18.60546875 4.04882812 C-20.40368158 4.03715142 -22.20185197 4.01922011 -24 4 C-24 3.67 -24 3.34 -24 3 C-21.50159546 2.49061655 -19.00176612 1.99236886 -16.5 1.5 C-15.80390625 1.35691406 -15.1078125 1.21382813 -14.390625 1.06640625 C-9.50912797 0.11722627 -4.97281701 -0.13440046 0 0 Z " fill="#292722" transform="translate(96,122)"/>
<path d="M0 0 C2.0625 0.4375 2.0625 0.4375 4 1 C3.54625 1.94875 3.0925 2.8975 2.625 3.875 C0.65414994 8.42383401 -0.16796155 13.13502224 -1 18 C-1.99 18 -2.98 18 -4 18 C-3.5256323 15.18661171 -3.04575381 12.37436287 -2.5625 9.5625 C-2.42779297 8.76005859 -2.29308594 7.95761719 -2.15429688 7.13085938 C-1.11328125 1.11328125 -1.11328125 1.11328125 0 0 Z " fill="#36302C" transform="translate(121,50)"/>
<path d="M0 0 C1.45823212 -0.0270043 2.91660675 -0.04639787 4.375 -0.0625 C5.18710938 -0.07410156 5.99921875 -0.08570312 6.8359375 -0.09765625 C9 0 9 0 11 1 C13.71760108 1.07181821 16.40859388 1.09299506 19.125 1.0625 C20.25615234 1.05573242 20.25615234 1.05573242 21.41015625 1.04882812 C23.27347127 1.03703499 25.13674555 1.01909942 27 1 C27 1.33 27 1.66 27 2 C22.85076942 2.78579793 18.94706569 3.11854983 14.7265625 3.09765625 C13.57285156 3.09443359 12.41914062 3.09121094 11.23046875 3.08789062 C10.04066406 3.07951172 8.85085937 3.07113281 7.625 3.0625 C6.41199219 3.05798828 5.19898437 3.05347656 3.94921875 3.04882812 C0.96609493 3.03708354 -2.01692679 3.0206584 -5 3 C-5 2.67 -5 2.34 -5 2 C-3.35 1.67 -1.7 1.34 0 1 C0 0.67 0 0.34 0 0 Z " fill="#C9A03B" transform="translate(61,121)"/>
<path d="M0 0 C0.33 0 0.66 0 1 0 C1 11.22 1 22.44 1 34 C0.01 34 -0.98 34 -2 34 C-1.83628906 33.31067383 -1.67257813 32.62134766 -1.50390625 31.91113281 C-0.94542478 28.68471175 -0.90419606 25.69583757 -0.9375 22.421875 C-0.94523437 21.17921875 -0.95296875 19.9365625 -0.9609375 18.65625 C-0.97382812 17.3671875 -0.98671875 16.078125 -1 14.75 C-1.02537221 12.18233251 -1.04645161 9.6146177 -1.0625 7.046875 C-1.07410156 5.91088867 -1.08570313 4.77490234 -1.09765625 3.60449219 C-1 1 -1 1 0 0 Z " fill="#2A1705" transform="translate(53,78)"/>
<path d="M0 0 C8.00945568 -0.30372936 14.69065285 -0.50848663 22 3 C22 3.66 22 4.32 22 5 C20.39583333 4.70833333 18.79166667 4.41666667 17.1875 4.125 C16.19492188 3.94453125 15.20234375 3.7640625 14.1796875 3.578125 C9.453125 2.71875 4.7265625 1.859375 0 1 C0 0.67 0 0.34 0 0 Z " fill="#3C1E05" transform="translate(90,79)"/>
<path d="M0 0 C2.97 0.495 2.97 0.495 6 1 C6 1.66 6 2.32 6 3 C8.97 3 11.94 3 15 3 C15 3.33 15 3.66 15 4 C3.47835991 6.29612756 3.47835991 6.29612756 -2 6 C-1.34 4.02 -0.68 2.04 0 0 Z " fill="#1E1B1C" transform="translate(37,74)"/>
<path d="M0 0 C0.66 1.32 1.32 2.64 2 4 C1.34 4 0.68 4 0 4 C-0.33 5.65 -0.66 7.3 -1 9 C-1.99 9 -2.98 9 -4 9 C-4.33 9.66 -4.66 10.32 -5 11 C-5 9.35 -5 7.7 -5 6 C-5.66 5.67 -6.32 5.34 -7 5 C-4.63707344 2.47411298 -3.33537489 1.11179163 0 0 Z " fill="#EDB638" transform="translate(52,48)"/>
<path d="M0 0 C2.91691525 -0.05401695 5.83282724 -0.09368066 8.75 -0.125 C9.575 -0.14175781 10.4 -0.15851562 11.25 -0.17578125 C12.04921875 -0.18222656 12.8484375 -0.18867188 13.671875 -0.1953125 C14.4050293 -0.20578613 15.13818359 -0.21625977 15.89355469 -0.22705078 C18 0 18 0 22 2 C14.41 2.33 6.82 2.66 -1 3 C-0.67 2.01 -0.34 1.02 0 0 Z " fill="#25180B" transform="translate(80,30)"/>
<path d="M0 0 C1.06347656 0.02578125 2.12695312 0.0515625 3.22265625 0.078125 C4.36992188 0.10390625 5.5171875 0.1296875 6.69921875 0.15625 C11.90940786 0.40597584 17.09561868 0.80449598 22.28515625 1.328125 C22.28515625 1.658125 22.28515625 1.988125 22.28515625 2.328125 C13.04515625 2.658125 3.80515625 2.988125 -5.71484375 3.328125 C-2.71484375 0.328125 -2.71484375 0.328125 0 0 Z " fill="#F1E9D4" transform="translate(73.71484375,27.671875)"/>
<path d="M0 0 C0 0.33 0 0.66 0 1 C-2.99799992 1.67696772 -5.99788223 2.34175788 -9 3 C-10.25876953 3.28617187 -10.25876953 3.28617187 -11.54296875 3.578125 C-16.82072021 4.72368346 -21.6001862 5.1999931 -27 5 C-27 4.67 -27 4.34 -27 4 C-25.69675781 3.70996094 -25.69675781 3.70996094 -24.3671875 3.4140625 C-23.21476562 3.15367188 -22.06234375 2.89328125 -20.875 2.625 C-19.73804687 2.36976562 -18.60109375 2.11453125 -17.4296875 1.8515625 C-14.01278093 1.06316985 -14.01278093 1.06316985 -10.84375 -0.125 C-6.81691171 -1.36402717 -4.10962614 -0.70855623 0 0 Z " fill="#EBB939" transform="translate(123,115)"/>
<path d="M0 0 C0.33 0 0.66 0 1 0 C1.14285714 8.57142857 1.14285714 8.57142857 0 12 C-5.66642551 13.22517308 -11.23708518 13.09228867 -17 13 C-17 12.67 -17 12.34 -17 12 C-11.555 11.505 -11.555 11.505 -6 11 C-6 10.34 -6 9.68 -6 9 C-4.35 9.33 -2.7 9.66 -1 10 C-0.67 6.7 -0.34 3.4 0 0 Z " fill="#CDAE61" transform="translate(121,58)"/>
<path d="M0 0 C0.99 0.33 1.98 0.66 3 1 C2.01 2.32 1.02 3.64 0 5 C0.66 6.32 1.32 7.64 2 9 C1.34 9 0.68 9 0 9 C0 9.66 0 10.32 0 11 C-0.99 11 -1.98 11 -3 11 C-3.33 8.03 -3.66 5.06 -4 2 C-2.68 1.34 -1.36 0.68 0 0 Z " fill="#FAF8ED" transform="translate(126,37)"/>
<path d="M0 0 C1.21236328 0.02707031 1.21236328 0.02707031 2.44921875 0.0546875 C3.37154297 0.08949219 3.37154297 0.08949219 4.3125 0.125 C3.9825 1.115 3.6525 2.105 3.3125 3.125 C1.73163952 3.49004603 0.14766093 3.84160506 -1.4375 4.1875 C-2.31921875 4.38472656 -3.2009375 4.58195312 -4.109375 4.78515625 C-6.67429028 5.12325872 -8.25841639 4.93658635 -10.6875 4.125 C-4.3125 -0.125 -4.3125 -0.125 0 0 Z " fill="#4C330F" transform="translate(119.6875,105.875)"/>
<path d="M0 0 C3.96941369 5.95412054 4.47676094 12.03265889 5 19 C4.34 19 3.68 19 3 19 C1.37150031 14.64409432 0.65881554 10.76065388 0.375 6.125 C0.30023438 4.97257812 0.22546875 3.82015625 0.1484375 2.6328125 C0.07496094 1.32957031 0.07496094 1.32957031 0 0 Z " fill="#381D05" transform="translate(127,91)"/>
<path d="M0 0 C0 0.66 0 1.32 0 2 C0.66 2.33 1.32 2.66 2 3 C-2.95 3.33 -7.9 3.66 -13 4 C-12.67 3.01 -12.34 2.02 -12 1 C-7.93631321 0.22596442 -4.13574827 -0.0984702 0 0 Z " fill="#493D1F" transform="translate(70,73)"/>
<path d="M0 0 C0.99 0 1.98 0 3 0 C3.33 2.31 3.66 4.62 4 7 C1.04335481 8.4783226 -1.74229737 8.06032783 -5 8 C-4.67 7.34 -4.34 6.68 -4 6 C-3.01 6 -2.02 6 -1 6 C-1.020625 5.195625 -1.04125 4.39125 -1.0625 3.5625 C-1 1 -1 1 0 0 Z " fill="#F7BA24" transform="translate(106,94)"/>
<path d="M0 0 C0.66 0.66 1.32 1.32 2 2 C1.34 2 0.68 2 0 2 C0.350625 3.2375 0.70125 4.475 1.0625 5.75 C1.95593273 8.903292 2.00881294 10.86774164 1 14 C0.34 14 -0.32 14 -1 14 C-3.28571429 5.57142857 -3.28571429 5.57142857 -3 1 C-2.01 0.67 -1.02 0.34 0 0 Z " fill="#543B26" transform="translate(124,66)"/>
<path d="M0 0 C0.99 0.33 1.98 0.66 3 1 C2.67 2.32 2.34 3.64 2 5 C-0.85366354 5.33821197 -3.70780596 5.6706978 -6.5625 6 C-7.76229492 6.14308594 -7.76229492 6.14308594 -8.98632812 6.2890625 C-13.69452167 6.82714176 -18.26147265 7.10176703 -23 7 C-23 6.67 -23 6.34 -23 6 C-15.26940505 4.64290496 -7.85546636 3.68081627 0 4 C0 2.68 0 1.36 0 0 Z " fill="#E7BA52" transform="translate(98,40)"/>
<path d="M0 0 C0.66 0 1.32 0 2 0 C4.79516589 3.71998622 5.43515461 6.71981385 5.6875 11.3125 C5.75324219 12.38113281 5.81898438 13.44976562 5.88671875 14.55078125 C5.92410156 15.35902344 5.96148437 16.16726562 6 17 C5.34 17 4.68 17 4 17 C3.33191847 14.35451646 2.66546951 11.7086406 2 9.0625 C1.80921875 8.30775391 1.6184375 7.55300781 1.421875 6.77539062 C0 1.11328125 0 1.11328125 0 0 Z " fill="#EBDBAD" transform="translate(126,79)"/>
<path d="M0 0 C0.66 0 1.32 0 2 0 C2 0.66 2 1.32 2 2 C2.556875 1.7525 3.11375 1.505 3.6875 1.25 C6 1 6 1 8.75 2.8125 C9.86375 3.8953125 9.86375 3.8953125 11 5 C11 5.66 11 6.32 11 7 C6.15340923 6.40895235 2.39251833 5.02055843 -2 3 C-1.34 2.67 -0.68 2.34 0 2 C0 1.34 0 0.68 0 0 Z " fill="#E6E8E4" transform="translate(112,31)"/>
<path d="M0 0 C2.31 0 4.62 0 7 0 C8.30062431 3.81516464 7.89369853 7.27561763 7.5625 11.25 C7.46066406 12.51328125 7.35882813 13.7765625 7.25390625 15.078125 C7.17011719 16.04234375 7.08632813 17.0065625 7 18 C6.67 18 6.34 18 6 18 C5.93941406 17.18015625 5.87882812 16.3603125 5.81640625 15.515625 C5.73261719 14.43796875 5.64882813 13.3603125 5.5625 12.25 C5.48128906 11.18265625 5.40007813 10.1153125 5.31640625 9.015625 C5.05723048 6.5454559 4.82279852 4.33848001 4 2 C2.0162233 0.71563266 2.0162233 0.71563266 0 0 Z " fill="#D3D6D2" transform="translate(44,78)"/>
<path d="M0 0 C0.33 0 0.66 0 1 0 C1 3.96 1 7.92 1 12 C-0.32 12.33 -1.64 12.66 -3 13 C-3.99 12.34 -4.98 11.68 -6 11 C-4.69593116 8.98079663 -3.36176581 6.98075027 -2 5 C-1.67 5 -1.34 5 -1 5 C-0.67 3.35 -0.34 1.7 0 0 Z " fill="#464344" transform="translate(135,53)"/>
<path d="M0 0 C0.66 0.99 1.32 1.98 2 3 C0.35 3 -1.3 3 -3 3 C-2.67 4.98 -2.34 6.96 -2 9 C-3.32 9 -4.64 9 -6 9 C-7.125 3.25 -7.125 3.25 -6 1 C-2.9375 0.375 -2.9375 0.375 0 0 Z " fill="#5A4841" transform="translate(117,89)"/>
<path d="M0 0 C2.625 0.375 2.625 0.375 5 1 C4.67 2.65 4.34 4.3 4 6 C2.35 6 0.7 6 -1 6 C-1.625 4.125 -1.625 4.125 -2 2 C-1.34 1.34 -0.68 0.68 0 0 Z " fill="#3C2C1D" transform="translate(62,42)"/>
<path d="M0 0 C0.66 0.33 1.32 0.66 2 1 C0.28158532 3.86402446 -0.84116098 4.92902938 -3.9375 6.3125 C-6.97562373 6.99452778 -8.12975467 6.86169352 -11 6 C-9.73168307 5.18357746 -8.46024069 4.37200895 -7.1875 3.5625 C-6.47980469 3.11003906 -5.77210937 2.65757813 -5.04296875 2.19140625 C-3 1 -3 1 0 0 Z " fill="#DAA953" transform="translate(66,37)"/>
<path d="M0 0 C0.66 0 1.32 0 2 0 C3.99785435 4.1205746 4.17835515 7.45194365 4 12 C3.67 11.34 3.34 10.68 3 10 C0.98330173 8.86649466 0.98330173 8.86649466 -1 8 C-0.67 5.36 -0.34 2.72 0 0 Z " fill="#3A2919" transform="translate(126,108)"/>
<path d="M0 0 C0.5259375 0.7425 0.5259375 0.7425 1.0625 1.5 C4.02552179 3.79395236 6.37042697 3.38888282 10 3 C11.94369738 1.64570159 11.94369738 1.64570159 13 0 C12.67 1.65 12.34 3.3 12 5 C8.0186217 6.3271261 4.14954773 6.06915913 0 6 C-1.125 2.25 -1.125 2.25 0 0 Z " fill="#D9AC4A" transform="translate(110,96)"/>
<path d="M0 0 C0.99 0.33 1.98 0.66 3 1 C2.34 1 1.68 1 1 1 C1.37253906 1.77085938 1.74507812 2.54171875 2.12890625 3.3359375 C2.60199219 4.33882812 3.07507812 5.34171875 3.5625 6.375 C4.27599609 7.87160156 4.27599609 7.87160156 5.00390625 9.3984375 C5.33261719 10.25695312 5.66132812 11.11546875 6 12 C5.67 12.66 5.34 13.32 5 14 C4.34 14 3.68 14 3 14 C-0.44419134 4.58997722 -0.44419134 4.58997722 0 0 Z " fill="#DFC170" transform="translate(48,57)"/>
<path d="M0 0 C0.33 1.32 0.66 2.64 1 4 C-0.65 4.33 -2.3 4.66 -4 5 C-4 4.01 -4 3.02 -4 2 C-7.3 2 -10.6 2 -14 2 C-14 1.67 -14 1.34 -14 1 C-9.27685687 0.22887459 -4.78478822 -0.09764874 0 0 Z " fill="#F3BA23" transform="translate(110,85)"/>
<path d="M0 0 C0.66 0 1.32 0 2 0 C2.33 4.95 2.66 9.9 3 15 C2.34 15 1.68 15 1 15 C-0.44207941 12.11584117 -0.09394887 9.58278472 -0.0625 6.375 C-0.05347656 5.18648437 -0.04445313 3.99796875 -0.03515625 2.7734375 C-0.02355469 1.85820313 -0.01195313 0.94296875 0 0 Z " fill="#262525" transform="translate(83,53)"/>
<path d="M0 0 C1.66611905 -0.042721 3.33382885 -0.04063832 5 0 C6 1 6 1 6.0625 3.5625 C6.041875 4.366875 6.02125 5.17125 6 6 C4.02 6 2.04 6 0 6 C0 3 0 3 1 2 C0.67 1.34 0.34 0.68 0 0 Z " fill="#3E2812" transform="translate(101,37)"/>
<path d="M0 0 C0 0.99 0 1.98 0 3 C-1.91408757 3.24979445 -3.83151611 3.47408014 -5.75 3.6875 C-6.81734375 3.81511719 -7.8846875 3.94273438 -8.984375 4.07421875 C-12.40557866 3.99001814 -13.55420823 3.30925485 -16 1 C-10.59255982 0.22750855 -5.46137814 -0.09752461 0 0 Z " fill="#4F360F" transform="translate(94,111)"/>
<path d="M0 0 C2.33944736 0.28730055 4.6739143 0.61936779 7 1 C6.67 1.99 6.34 2.98 6 4 C5.67 3.34 5.34 2.68 5 2 C3.02 2.99 3.02 2.99 1 4 C1 5.65 1 7.3 1 9 C0.34 8.67 -0.32 8.34 -1 8 C-1.04241723 5.66705225 -1.04092937 3.33297433 -1 1 C-0.67 0.67 -0.34 0.34 0 0 Z " fill="#3C3E3B" transform="translate(33,61)"/>
<path d="M0 0 C0 1.65 0 3.3 0 5 C-2.31 4.67 -4.62 4.34 -7 4 C-7 3.34 -7 2.68 -7 2 C-8.98 2 -10.96 2 -13 2 C-13 1.67 -13 1.34 -13 1 C-11.58366664 0.83052421 -10.16691467 0.66454493 -8.75 0.5 C-7.56664063 0.36078125 -7.56664063 0.36078125 -6.359375 0.21875 C-4 0 -4 0 0 0 Z " fill="#D8DAD8" transform="translate(114,122)"/>
<path d="M0 0 C1.32 0 2.64 0 4 0 C4.3125 2.25 4.3125 2.25 4 5 C1.5 7.3125 1.5 7.3125 -1 9 C-0.67 6.03 -0.34 3.06 0 0 Z " fill="#F2F4F2" transform="translate(131,115)"/>
<path d="M0 0 C0.66 0 1.32 0 2 0 C2.19622241 4.21878192 1.80230168 7.17010894 0 11 C-0.66 11 -1.32 11 -2 11 C-2 8.36 -2 5.72 -2 3 C-1.34 3 -0.68 3 0 3 C0 2.01 0 1.02 0 0 Z " fill="#F9FEEE" transform="translate(138,101)"/>
<path d="M0 0 C-2.2601949 2.2601949 -4.55617914 3.48809716 -7.34375 5 C-9.17554302 6.0156448 -9.17554302 6.0156448 -11 8 C-11.66 6.68 -12.32 5.36 -13 4 C-11.68 4 -10.36 4 -9 4 C-9 3.34 -9 2.68 -9 2 C-5.86501708 0.14223235 -3.62528568 -0.20140476 0 0 Z " fill="#EAB44A" transform="translate(77,81)"/>
<path d="M0 0 C2.64 0 5.28 0 8 0 C7.67 1.65 7.34 3.3 7 5 C4.03 4.67 1.06 4.34 -2 4 C-1.01 3.34 -0.02 2.68 1 2 C0.67 1.34 0.34 0.68 0 0 Z " fill="#E0AA2F" transform="translate(74,74)"/>
<path d="M0 0 C1.32 0 2.64 0 4 0 C4 0.66 4 1.32 4 2 C5.32 2 6.64 2 8 2 C8 2.66 8 3.32 8 4 C3.545 4.495 3.545 4.495 -1 5 C-0.67 3.35 -0.34 1.7 0 0 Z " fill="#2D1B0C" transform="translate(107,65)"/>
<path d="M0 0 C0.7425 0.61875 1.485 1.2375 2.25 1.875 C5.07171298 4.19670804 5.07171298 4.19670804 9 6 C3.06 6.495 3.06 6.495 -3 7 C-1.68 6.67 -0.36 6.34 1 6 C1 5.34 1 4.68 1 4 C0.01 4 -0.98 4 -2 4 C-2 3.01 -2 2.02 -2 1 C-1.34 0.67 -0.68 0.34 0 0 Z " fill="#D1CECB" transform="translate(88,64)"/>
<path d="M0 0 C2.8992226 0.46761655 3.86675182 0.86675182 6 3 C5.01 3.495 5.01 3.495 4 4 C6.97 4.495 6.97 4.495 10 5 C10 5.33 10 5.66 10 6 C7.03 6 4.06 6 1 6 C0.34 4.35 -0.32 2.7 -1 1 C-0.67 0.67 -0.34 0.34 0 0 Z " fill="#3A3637" transform="translate(116,129)"/>
<path d="M0 0 C0.33 0.99 0.66 1.98 1 3 C0.01 4.485 0.01 4.485 -1 6 C-3.97 5.505 -3.97 5.505 -7 5 C-7 4.01 -7 3.02 -7 2 C-4.69 1.34 -2.38 0.68 0 0 Z " fill="#F6AF34" transform="translate(113,102)"/>
<path d="M0 0 C6.75 0.75 6.75 0.75 9 3 C9.25 6 9.25 6 9 9 C8.34 9.66 7.68 10.32 7 11 C7.0825 10.071875 7.165 9.14375 7.25 8.1875 C7.33637948 4.94982783 7.33637948 4.94982783 5.1875 3.125 C2.96532836 1.77132599 2.96532836 1.77132599 0 2 C0 1.34 0 0.68 0 0 Z " fill="#371F05" transform="translate(62,93)"/>
<path d="M0 0 C0.66 0.33 1.32 0.66 2 1 C2 2.98 2 4.96 2 7 C0.35 6.67 -1.3 6.34 -3 6 C-3 4.68 -3 3.36 -3 2 C-2.01 2 -1.02 2 0 2 C0 1.34 0 0.68 0 0 Z " fill="#281D2A" transform="translate(119,90)"/>
<path d="M0 0 C0.33 0.66 0.66 1.32 1 2 C3.64 2 6.28 2 9 2 C7 4 7 4 3.9375 5 C0.87849194 5.65752556 0.87849194 5.65752556 0 8 C-0.66 8 -1.32 8 -2 8 C-1.67 7.236875 -1.34 6.47375 -1 5.6875 C0.17436686 3.00930865 0.17436686 3.00930865 0 0 Z " fill="#E9BD50" transform="translate(53,48)"/>
<path d="M0 0 C0.66 0.33 1.32 0.66 2 1 C1.814375 1.556875 1.62875 2.11375 1.4375 2.6875 C0.92448835 5.399133 1.3359276 7.34371039 2 10 C0.68 9.67 -0.64 9.34 -2 9 C-2 6.36 -2 3.72 -2 1 C-1.34 0.67 -0.68 0.34 0 0 Z " fill="#EEB63B" transform="translate(57,93)"/>
<path d="M0 0 C1.09658936 3.28976808 0.79953138 4.71303767 0 8 C-0.99 8.33 -1.98 8.66 -3 9 C-3.33 6.36 -3.66 3.72 -4 1 C-2 0 -2 0 0 0 Z " fill="#F1F3F2" transform="translate(128,67)"/>
<path d="M0 0 C1.98 0 3.96 0 6 0 C6.33 1.65 6.66 3.3 7 5 C5.35 5.33 3.7 5.66 2 6 C2 4.68 2 3.36 2 2 C1.34 1.34 0.68 0.68 0 0 Z " fill="#EAEAE9" transform="translate(97,47)"/>
<path d="M0 0 C1.65 0.33 3.3 0.66 5 1 C5.33 2.32 5.66 3.64 6 5 C3.69 5 1.38 5 -1 5 C-0.67 3.35 -0.34 1.7 0 0 Z " fill="#F7B927" transform="translate(109,38)"/>
<path d="M0 0 C-0.66 0.66 -1.32 1.32 -2 2 C-1.67 2.66 -1.34 3.32 -1 4 C-2.65 3.67 -4.3 3.34 -6 3 C-6.33 3.66 -6.66 4.32 -7 5 C-7 4.34 -7 3.68 -7 3 C-7.99 2.67 -8.98 2.34 -10 2 C-6.19832777 -0.53444815 -4.31588991 -1.33941411 0 0 Z " fill="#DBB039" transform="translate(78,35)"/>
<path d="M0 0 C0.99 0.33 1.98 0.66 3 1 C4.23076923 6.41538462 4.23076923 6.41538462 3.0625 9.375 C2.711875 9.91125 2.36125 10.4475 2 11 C1.34 11 0.68 11 0 11 C0 7.37 0 3.74 0 0 Z " fill="#383034" transform="translate(56,124)"/>
<path d="M0 0 C1.4606285 2.64738916 2 3.89448334 2 7 C0.35 7 -1.3 7 -3 7 C-3 5.02 -3 3.04 -3 1 C-2.01 0.67 -1.02 0.34 0 0 Z " fill="#F1B633" transform="translate(119,40)"/>
<path d="M0 0 C0.66 0.66 1.32 1.32 2 2 C0.41870971 2.22331199 -1.16521089 2.42804644 -2.75 2.625 C-4.07257813 2.79902344 -4.07257813 2.79902344 -5.421875 2.9765625 C-8.22859878 3.00207817 -9.63384866 2.44843844 -12 1 C-7.94638511 0.22788288 -4.12876411 -0.28150664 0 0 Z " fill="#E2E8E2" transform="translate(100,124)"/>
<path d="M0 0 C5.94 0.33 11.88 0.66 18 1 C18 1.33 18 1.66 18 2 C9.585 2.495 9.585 2.495 1 3 C0.67 2.01 0.34 1.02 0 0 Z " fill="#DDB04E" transform="translate(51,112)"/>
<path d="M0 0 C0 0.66 0 1.32 0 2 C-2.99480917 2.8723412 -5.63575911 3.10829766 -8.75 3.0625 C-9.54921875 3.05347656 -10.3484375 3.04445313 -11.171875 3.03515625 C-11.77515625 3.02355469 -12.3784375 3.01195313 -13 3 C-8.54370064 0.02913376 -5.32064558 -0.12092376 0 0 Z " fill="#3B1903" transform="translate(102,97)"/>
<path d="M0 0 C2.01136276 2.55991624 3.62845496 5.04590299 5 8 C3.68 8.33 2.36 8.66 1 9 C-1.09230769 4.56923077 -1.09230769 4.56923077 -0.625 1.6875 C-0.41875 1.130625 -0.2125 0.57375 0 0 Z " fill="#E2DFE0" transform="translate(107,55)"/>
<path d="M0 0 C-4.92984325 2.03993514 -8.57960425 3.40652968 -14 3 C-11.73560813 0.73560813 -10.62863112 0.48211484 -7.5625 -0.1875 C-6.78003906 -0.36667969 -5.99757813 -0.54585938 -5.19140625 -0.73046875 C-3 -1 -3 -1 0 0 Z " fill="#E5C68D" transform="translate(126,116)"/>
<path d="M0 0 C2 2 2 2 2.1953125 4.6015625 C2.17210937 5.59929687 2.14890625 6.59703125 2.125 7.625 C2.10695312 8.62789062 2.08890625 9.63078125 2.0703125 10.6640625 C2.03550781 11.82035156 2.03550781 11.82035156 2 13 C0.68 12.67 -0.64 12.34 -2 12 C-1.505 11.2575 -1.505 11.2575 -1 10.5 C0.43636358 6.90909106 0.12851462 3.85543873 0 0 Z " fill="#E9C46F" transform="translate(133,100)"/>
<path d="M0 0 C1.32 0.33 2.64 0.66 4 1 C3.67 1.33 3.34 1.66 3 2 C3.08963062 3.69141656 3.24577676 5.37959602 3.4375 7.0625 C3.53933594 7.98160156 3.64117187 8.90070313 3.74609375 9.84765625 C3.82988281 10.55792969 3.91367188 11.26820312 4 12 C1.36170741 10.68085371 1.01736771 9.76142665 0 7 C-0.0777346 4.66796188 -0.08967728 2.33160941 0 0 Z " fill="#F0BC46" transform="translate(77,97)"/>
<path d="M0 0 C2.125 0.375 2.125 0.375 4 1 C3.25 3.4375 3.25 3.4375 2 6 C-0.125 6.8125 -0.125 6.8125 -2 7 C-2.125 4.625 -2.125 4.625 -2 2 C-1.34 1.34 -0.68 0.68 0 0 Z " fill="#77634F" transform="translate(60,94)"/>
<path d="M0 0 C2.875 -0.125 2.875 -0.125 6 0 C6.66 0.66 7.32 1.32 8 2 C4.91190305 3.76462683 3.76687864 4 0 4 C0 2.68 0 1.36 0 0 Z " fill="#FDB525" transform="translate(80,86)"/>
<path d="M0 0 C1.77706209 2.66559313 2.87548273 5.0280615 4 8 C1.69 8 -0.62 8 -3 8 C-2.5359375 7.13375 -2.5359375 7.13375 -2.0625 6.25 C-1.07416636 4.15705816 -0.4831387 2.25464725 0 0 Z " fill="#F8F2E3" transform="translate(41,51)"/>
<path d="M0 0 C1.32 0 2.64 0 4 0 C3.67 1.98 3.34 3.96 3 6 C1.35 6.33 -0.3 6.66 -2 7 C-2 6.01 -2 5.02 -2 4 C-1.01 4 -0.02 4 1 4 C0.67 2.68 0.34 1.36 0 0 Z " fill="#333031" transform="translate(131,48)"/>
<path d="M0 0 C0.33 0.66 0.66 1.32 1 2 C1.66 2.33 2.32 2.66 3 3 C3.625 5.5625 3.625 5.5625 4 8 C2.125 7.8125 2.125 7.8125 0 7 C-1.25 4.4375 -1.25 4.4375 -2 2 C-1.34 2 -0.68 2 0 2 C0 1.34 0 0.68 0 0 Z " fill="#DBB456" transform="translate(53,69)"/>
<path d="M0 0 C0.33 0 0.66 0 1 0 C2.28571429 8.57142857 2.28571429 8.57142857 1 12 C0.01 12 -0.98 12 -2 12 C-1.34 8.04 -0.68 4.08 0 0 Z " fill="#42301F" transform="translate(119,56)"/>
<path d="M0 0 C1.98 0.495 1.98 0.495 4 1 C4 2.32 4 3.64 4 5 C2.35 5 0.7 5 -1 5 C-0.67 3.35 -0.34 1.7 0 0 Z " fill="#FAB42E" transform="translate(55,45)"/>
<path d="M0 0 C-0.84304687 0.41378906 -0.84304687 0.41378906 -1.703125 0.8359375 C-4.08618794 2.04368028 -6.4179008 3.32176809 -8.75 4.625 C-9.94882812 5.29402344 -9.94882812 5.29402344 -11.171875 5.9765625 C-11.77515625 6.31429687 -12.3784375 6.65203125 -13 7 C-13 6.01 -13 5.02 -13 4 C-8.38987758 1.04952165 -5.63470383 -0.5497272 0 0 Z " fill="#F9F6D9" transform="translate(68,31)"/>
<path d="M0 0 C-0.99 1.485 -0.99 1.485 -2 3 C-5.96 2.67 -9.92 2.34 -14 2 C-14 1.67 -14 1.34 -14 1 C-9.23692563 0.04738513 -4.8333472 -0.08333357 0 0 Z " fill="#4C3A19" transform="translate(96,122)"/>
<path d="M0 0 C-1.65 0.33 -3.3 0.66 -5 1 C-4.67 1.99 -4.34 2.98 -4 4 C-6.3125 4.1875 -6.3125 4.1875 -9 4 C-10.66796875 2.48828125 -10.66796875 2.48828125 -12 1 C-10.37681021 0.63762737 -8.7513642 0.28534843 -7.125 -0.0625 C-6.22007813 -0.25972656 -5.31515625 -0.45695312 -4.3828125 -0.66015625 C-2 -1 -2 -1 0 0 Z " fill="#CF9E53" transform="translate(104,99)"/>
<path d="M0 0 C-1.33333333 0.66666667 -2.66666667 1.33333333 -4 2 C-4.680625 2.37125 -5.36125 2.7425 -6.0625 3.125 C-8 4 -8 4 -11 4 C-10.67 3.01 -10.34 2.02 -10 1 C-6.34742296 -0.62336757 -3.80637601 -1.46399077 0 0 Z " fill="#614311" transform="translate(88,93)"/>
<path d="M0 0 C-3.20336822 2.83374881 -5.78087253 3.5205537 -10 4 C-9.67 3.01 -9.34 2.02 -9 1 C-6.04335481 -0.4783226 -3.25770263 -0.06032783 0 0 Z " fill="#2C2929" transform="translate(65,70)"/>
<path d="M0 0 C-3.20336822 2.83374881 -5.78087253 3.5205537 -10 4 C-9.67 3.01 -9.34 2.02 -9 1 C-5.8035914 -0.06546953 -3.34252724 -0.07427838 0 0 Z " fill="#36270F" transform="translate(63,52)"/>
<path d="M0 0 C-0.66 1.32 -1.32 2.64 -2 4 C-3.65 3.67 -5.3 3.34 -7 3 C-7.33 3.99 -7.66 4.98 -8 6 C-8 4.35 -8 2.7 -8 1 C-2.25 0 -2.25 0 0 0 Z " fill="#EDE6CD" transform="translate(138,112)"/>
<path d="M0 0 C0 0.66 0 1.32 0 2 C-0.99 2.495 -0.99 2.495 -2 3 C-2.65555119 5.52733235 -2.65555119 5.52733235 -3 8 C-3.66 7.67 -4.32 7.34 -5 7 C-5.625 4.4375 -5.625 4.4375 -6 2 C-2.25 0 -2.25 0 0 0 Z " fill="#F9BC4B" transform="translate(108,92)"/>
<path d="M0 0 C0.33 0 0.66 0 1 0 C1 2.31 1 4.62 1 7 C2.65 7.33 4.3 7.66 6 8 C6 8.33 6 8.66 6 9 C2.625 9.125 2.625 9.125 -1 9 C-1.66 8.34 -2.32 7.68 -3 7 C-2.01 7 -1.02 7 0 7 C0 4.69 0 2.38 0 0 Z " fill="#E9D9B7" transform="translate(122,41)"/>
<path d="M0 0 C0.33 0.99 0.66 1.98 1 3 C-3.455 3.495 -3.455 3.495 -8 4 C-7.67 3.01 -7.34 2.02 -7 1 C-4.52260646 0.09162237 -2.66420516 0 0 0 Z " fill="#41280C" transform="translate(79,31)"/>
<path d="M0 0 C2 3.75 2 3.75 2 6 C2.66 6.33 3.32 6.66 4 7 C4 7.66 4 8.32 4 9 C3.01 9 2.02 9 1 9 C0.87625 8.195625 0.7525 7.39125 0.625 6.5625 C0.315625 5.2940625 0.315625 5.2940625 0 4 C-0.66 3.67 -1.32 3.34 -2 3 C-1.34 3 -0.68 3 0 3 C0 2.01 0 1.02 0 0 Z " fill="#C1A55A" transform="translate(128,104)"/>
<path d="M0 0 C0.33 0.66 0.66 1.32 1 2 C-5.0546875 2.9765625 -5.0546875 2.9765625 -7 3 C-7.66 2.34 -8.32 1.68 -9 1 C-5.92677456 0.08941469 -3.19902639 -0.08886184 0 0 Z " fill="#E1B350" transform="translate(97,108)"/>
<path d="M0 0 C0 0.99 0 1.98 0 3 C-6.625 5 -6.625 5 -10 5 C-8.71186658 4.16121545 -7.41936744 3.32913217 -6.125 2.5 C-5.40570313 2.0359375 -4.68640625 1.571875 -3.9453125 1.09375 C-2 0 -2 0 0 0 Z " fill="#DBB655" transform="translate(79,83)"/>
<path d="M0 0 C0.66 0 1.32 0 2 0 C2 3.3 2 6.6 2 10 C-1.375 5.5 -1.375 5.5 -2 2 C-1.34 2 -0.68 2 0 2 C0 1.34 0 0.68 0 0 Z " fill="#FDF3C9" transform="translate(51,56)"/>
<path d="M0 0 C1.32 0 2.64 0 4 0 C3.67 2.31 3.34 4.62 3 7 C2.01 6.67 1.02 6.34 0 6 C0 4.02 0 2.04 0 0 Z " fill="#F7F5F5" transform="translate(123,52)"/>
<path d="M0 0 C2.475 0.495 2.475 0.495 5 1 C4.34 2.98 3.68 4.96 3 7 C1.5 5.75 1.5 5.75 0 4 C0 2.68 0 1.36 0 0 Z " fill="#DFBD71" transform="translate(42,50)"/>
<path d="M0 0 C1.65 0.33 3.3 0.66 5 1 C5 1.66 5 2.32 5 3 C3.02 3.33 1.04 3.66 -1 4 C-0.67 2.68 -0.34 1.36 0 0 Z " fill="#FAB729" transform="translate(55,119)"/>
<path d="M0 0 C1.32 0.33 2.64 0.66 4 1 C1.03 3.475 1.03 3.475 -2 6 C-2.33 4.68 -2.66 3.36 -3 2 C-2.34 2 -1.68 2 -1 2 C-0.67 1.34 -0.34 0.68 0 0 Z " fill="#E5D8BB" transform="translate(47,42)"/>
</svg>
