<?xml version="1.0" standalone="no"?>
<!DOCTYPE svg PUBLIC "-//W3C//DTD SVG 20010904//EN"
 "http://www.w3.org/TR/2001/REC-SVG-20010904/DTD/svg10.dtd">
<svg version="1.0" xmlns="http://www.w3.org/2000/svg"
 width="300.000000pt" height="133.000000pt" viewBox="0 0 300.000000 133.000000"
 preserveAspectRatio="xMidYMid meet">
<metadata>
Created by potrace 1.10, written by Peter Selinger 2001-2011
</metadata>
<g transform="translate(0.000000,133.000000) scale(0.050000,-0.050000)"
fill="#000000" stroke="none">
<path d="M1333 2103 c-72 -80 -1 -408 74 -345 74 61 51 382 -27 382 -8 0 -29
-17 -47 -37z"/>
<path d="M1833 2103 c-44 -48 -45 -276 -2 -333 57 -74 98 -16 105 147 8 195
-31 266 -103 186z"/>
<path d="M2329 2106 c-28 -28 -31 -57 -20 -175 26 -265 131 -259 131 7 0 189
-36 243 -111 168z"/>
<path d="M4553 2089 c6 -16 29 -39 49 -50 124 -66 -301 -466 -671 -631 -87
-39 -130 -69 -130 -93 -3 -156 657 261 855 541 62 87 62 87 97 45 56 -65 67
-50 67 89 l0 130 -139 0 c-117 0 -138 -5 -128 -31z"/>
<path d="M3600 1427 l0 -612 -100 10 c-94 9 -100 6 -100 -38 0 -43 8 -47 100
-47 l100 0 0 -100 c0 -87 5 -100 40 -100 35 0 40 13 40 100 l0 100 680 0 680
0 0 45 0 45 -680 -6 -680 -6 0 611 c0 598 -1 611 -40 611 -39 0 -40 -13 -40
-613z"/>
<path d="M1091 1894 c-46 -70 -47 -1096 -2 -1166 l32 -48 459 0 459 0 -23 51
-23 50 -402 -2 -401 -2 -5 96 c-2 53 -7 234 -10 402 l-5 305 705 0 705 0 0
-147 c0 -130 5 -151 50 -193 l50 -47 0 330 c0 367 -18 417 -149 417 -54 0 -56
-3 -45 -81 8 -65 2 -88 -32 -120 -92 -86 -222 -11 -210 121 l6 70 -135 6 -135
6 0 -97 c0 -113 -24 -145 -110 -145 -85 0 -110 32 -110 144 l0 96 -140 0 -140
0 0 -96 c0 -108 -25 -144 -100 -144 -75 0 -100 36 -100 144 l0 96 -80 0 c-60
0 -86 -11 -109 -46z"/>
<path d="M4634 1285 l8 -395 99 -6 99 -6 0 401 0 401 -107 0 -106 0 7 -395z"/>
<path d="M4380 1185 l0 -307 91 6 91 6 4 295 c2 162 0 296 -6 296 -5 1 -48 4
-95 6 l-85 6 0 -308z"/>
<path d="M1534 1454 c-31 -81 9 -134 98 -134 l88 0 0 80 0 80 -88 0 c-54 0
-92 -10 -98 -26z"/>
<path d="M1780 1400 l0 -80 90 0 90 0 0 80 0 80 -90 0 -90 0 0 -80z"/>
<path d="M2020 1400 l0 -80 100 0 100 0 0 80 0 80 -100 0 -100 0 0 -80z"/>
<path d="M2280 1400 l0 -80 90 0 90 0 0 80 0 80 -90 0 -90 0 0 -80z"/>
<path d="M4080 1090 l0 -210 105 0 105 0 2 210 2 210 -107 0 -107 0 0 -210z"/>
<path d="M1280 1175 l0 -85 90 7 90 7 0 78 0 78 -90 0 -90 0 0 -85z"/>
<path d="M1540 1182 l0 -82 90 0 c90 0 90 0 90 70 0 64 -5 70 -58 70 -32 0
-73 5 -90 12 -26 10 -32 -3 -32 -70z"/>
<path d="M1855 1244 c-128 -11 -114 -144 15 -144 89 0 90 1 90 69 0 80 -5 84
-105 75z"/>
<path d="M2033 1247 c-20 -21 -15 -107 6 -107 19 0 121 94 121 111 0 14 -112
10 -127 -4z"/>
<path d="M2134 1161 l-104 -98 0 -158 c0 -509 698 -530 727 -22 13 237 -127
377 -377 377 l-143 0 -103 -99z m411 -15 c236 -163 163 -495 -116 -527 -199
-23 -329 82 -329 264 0 256 246 401 445 263z"/>
<path d="M2360 990 l0 -150 111 0 c96 0 111 5 105 35 -5 25 -26 35 -76 35 -76
0 -71 -11 -78 185 -1 26 -15 45 -32 45 -24 0 -30 -30 -30 -150z"/>
<path d="M3820 1010 l0 -130 100 0 100 0 0 130 0 130 -100 0 -100 0 0 -130z"/>
<path d="M1280 960 l0 -80 90 0 90 0 0 80 0 80 -90 0 -90 0 0 -80z"/>
<path d="M1540 960 l0 -80 90 0 90 0 0 80 0 80 -90 0 -90 0 0 -80z"/>
<path d="M1780 960 l0 -80 90 0 90 0 0 80 0 80 -90 0 -90 0 0 -80z"/>
</g>
</svg>
