<?xml version="1.0" standalone="no"?>
<!DOCTYPE svg PUBLIC "-//W3C//DTD SVG 20010904//EN"
 "http://www.w3.org/TR/2001/REC-SVG-20010904/DTD/svg10.dtd">
<svg version="1.0" xmlns="http://www.w3.org/2000/svg"
 width="300.000000pt" height="133.000000pt" viewBox="0 0 300.000000 133.000000"
 preserveAspectRatio="xMidYMid meet">
<metadata>
Created by potrace 1.10, written by Peter Selinger 2001-2011
</metadata>
<g transform="translate(0.000000,133.000000) scale(0.050000,-0.050000)"
fill="#000000" stroke="none">
<path d="M970 2000 c-32 -35 -35 -83 -32 -515 5 -612 -23 -565 342 -565 256 0
280 -3 280 -36 0 -65 -49 -143 -105 -166 -136 -57 -66 -78 255 -78 324 0 367
13 242 73 -68 32 -91 74 -92 162 0 45 3 45 278 45 200 0 283 7 298 26 42 50
36 1008 -6 1055 -56 61 -1404 61 -1460 -1z m1400 -460 l0 -390 -665 -5 -665
-6 0 401 0 401 665 -6 665 -5 0 -390z"/>
<path d="M1760 1888 c0 -31 111 -143 133 -134 41 16 32 58 -18 90 -55 35 -115
58 -115 44z"/>
<path d="M1524 1837 c-53 -34 -61 -47 -41 -70 20 -24 32 -20 80 26 94 90 72
115 -39 44z"/>
<path d="M1721 1795 c-1 -67 4 -75 49 -75 63 0 63 23 1 94 l-50 56 0 -75z"/>
<path d="M1610 1780 l-57 -60 63 0 c58 0 64 6 64 60 0 33 -3 60 -6 60 -4 0
-32 -27 -64 -60z"/>
<path d="M1393 1705 c-62 -121 -61 -145 3 -145 52 0 62 9 79 79 30 118 -30
168 -82 66z"/>
<path d="M1923 1734 c-45 -55 -4 -174 60 -174 68 0 70 16 17 121 -46 89 -47
89 -77 53z"/>
<path d="M1775 1686 c-101 -16 -79 -126 25 -126 51 0 80 9 80 25 -1 44 -24
115 -37 112 -7 -2 -38 -7 -68 -11z"/>
<path d="M1522 1635 c-24 -63 -11 -75 79 -75 74 0 79 3 79 60 0 80 -129 92
-158 15z"/>
<path d="M1352 1503 c-24 -38 57 -184 98 -178 41 5 45 41 20 150 -11 46 -95
65 -118 28z"/>
<path d="M1524 1455 c10 -106 156 -112 156 -6 0 70 -1 71 -81 71 -80 0 -81 -1
-75 -65z"/>
<path d="M1720 1450 c0 -78 121 -110 148 -38 31 82 15 108 -68 108 -78 0 -80
-2 -80 -70z"/>
<path d="M1915 1442 c-47 -122 35 -177 94 -63 46 89 40 141 -16 141 -36 0 -54
-18 -78 -78z"/>
<path d="M1580 1323 c0 -19 66 -83 87 -83 7 0 13 23 13 50 0 40 -10 50 -50 50
-27 0 -50 -8 -50 -17z"/>
<path d="M1720 1290 c0 -59 22 -64 67 -13 45 50 42 63 -17 63 -40 0 -50 -10
-50 -50z"/>
<path d="M1831 1269 c-36 -56 -6 -67 54 -21 42 32 44 44 7 59 -17 6 -42 -10
-61 -38z"/>
<path d="M1484 1278 c5 -15 39 -38 76 -54 l67 -27 -31 47 c-33 50 -127 78
-112 34z"/>
<path d="M3427 1969 c-56 -56 -57 -177 -3 -212 187 -120 377 33 255 205 -57
79 -177 82 -252 7z"/>
<path d="M4425 1980 c-132 -80 -66 -260 95 -260 158 0 217 149 98 248 -73 62
-107 64 -193 12z"/>
<path d="M3338 1642 c-62 -48 -228 -387 -212 -430 27 -69 105 -37 152 63 116
249 121 241 122 -220 l0 -415 60 0 60 0 0 240 c0 200 5 240 30 240 25 0 30
-40 30 -240 l0 -240 63 0 63 0 -11 420 c-13 449 -7 475 65 320 53 -113 66
-120 111 -52 36 55 -34 244 -117 317 -59 52 -349 50 -416 -3z m282 -120 c27
-2 27 -5 0 -22 -37 -24 -140 -26 -140 -3 0 28 19 38 66 33 24 -3 58 -6 74 -8z"/>
<path d="M4310 1628 c-89 -82 -156 -249 -117 -292 47 -52 58 -47 105 54 67
143 105 122 52 -30 -38 -109 -33 -400 7 -400 21 0 26 -35 20 -155 l-7 -155 60
0 60 0 -5 165 c-5 154 -3 165 35 165 37 0 40 -13 40 -170 l0 -170 60 0 60 0 0
160 0 160 62 0 c73 0 73 2 -10 237 -86 245 -57 346 34 118 52 -132 136 -184
167 -105 15 39 -74 241 -163 370 l-63 90 -174 1 c-154 2 -180 -3 -223 -43z
m310 -128 c0 -11 -36 -20 -80 -20 -44 0 -80 9 -80 20 0 11 36 20 80 20 44 0
80 -9 80 -20z m-10 -60 c39 -17 32 -23 -30 -29 -16 -2 -27 -16 -23 -32 42
-181 3 -342 -66 -273 -37 37 -44 234 -9 234 13 0 18 19 11 47 -19 73 25 92
117 53z"/>
<path d="M3960 1520 c-80 -80 -33 -168 83 -156 88 8 124 93 68 155 -47 52
-100 52 -151 1z"/>
<path d="M3917 1304 c-40 -8 -164 -236 -149 -275 16 -42 65 -15 92 52 65 156
83 119 78 -162 -5 -262 -4 -269 39 -275 41 -6 43 1 43 145 0 87 8 151 20 151
12 0 20 -64 20 -151 0 -145 2 -152 44 -145 44 6 45 10 39 271 -7 290 -3 303
57 185 83 -162 127 -97 47 70 -66 140 -139 170 -330 134z"/>
</g>
</svg>
